<?xml version="1.0" encoding="UTF-8" standalone="no"?>
<!-- Created with Inkscape (http://www.inkscape.org/) -->

<svg
   width="345.79608mm"
   height="181.06198mm"
   viewBox="0 0 345.79608 181.06198"
   version="1.1"
   id="svg5"
   inkscape:version="1.1.1 (3bf5ae0d25, 2021-09-20)"
   sodipodi:docname="folhas 4.svg"
   xmlns:inkscape="http://www.inkscape.org/namespaces/inkscape"
   xmlns:sodipodi="http://sodipodi.sourceforge.net/DTD/sodipodi-0.dtd"
   xmlns="http://www.w3.org/2000/svg"
   xmlns:svg="http://www.w3.org/2000/svg">
  <sodipodi:namedview
     id="namedview7"
     pagecolor="#505050"
     bordercolor="#eeeeee"
     borderopacity="1"
     inkscape:pageshadow="0"
     inkscape:pageopacity="0"
     inkscape:pagecheckerboard="0"
     inkscape:document-units="mm"
     showgrid="false"
     showguides="false"
     inkscape:zoom="0.5"
     inkscape:cx="712"
     inkscape:cy="548"
     inkscape:window-width="1920"
     inkscape:window-height="1043"
     inkscape:window-x="1920"
     inkscape:window-y="0"
     inkscape:window-maximized="1"
     inkscape:current-layer="layer1" />
  <defs
     id="defs2" />
  <g
     inkscape:label="Layer 1"
     inkscape:groupmode="layer"
     id="layer1"
     transform="translate(493.18886,194.82027)">
    <path
       id="path1536"
       style="fill:#6e9451;fill-opacity:1;stroke-width:0.232711"
       d="m -248.85049,-183.88239 c -0.74003,0.0934 -2.04584,0.39311 -4.30788,0.94766 -5.12763,1.25706 -8.62726,2.51195 -11.11696,3.98655 -5.69572,3.37349 -12.64163,11.43384 -15.06123,17.47788 -2.2051,5.50823 -2.97009,10.78889 -2.47711,17.09746 0.19052,2.43825 0.17288,2.64164 -0.2968,3.40158 -0.27477,0.4446 -0.49952,0.97277 -0.49952,1.17356 0,0.20078 -0.49174,1.07828 -1.09265,1.95032 -4.55283,6.60698 -6.70455,10.14184 -9.9643,16.36887 -1.35028,2.57935 -3.1157,5.85827 -3.92337,7.28677 -0.80767,1.42852 -1.92256,3.40912 -2.47756,4.40106 -1.05167,1.87944 -1.4574,2.2513 -1.26946,1.16355 0.0608,-0.35197 0.27367,-1.63479 0.47315,-2.85071 0.52492,-3.19929 1.29734,-6.48436 2.73573,-11.63556 0.69704,-2.49582 1.60359,-6.05631 2.01486,-7.91218 0.41118,-1.85587 1.41128,-6.04468 2.22211,-9.30845 0.81095,-3.26378 1.63927,-6.80983 1.84033,-7.87991 0.3987,-2.12155 0.49209,-5.74454 0.15363,-5.95368 -0.35462,-0.21922 -0.95176,0.12876 -0.95176,0.55451 0,0.22059 -0.49742,0.75199 -1.10538,1.18128 -2.17878,1.53848 -6.44073,5.2578 -7.54673,6.58591 -2.94638,3.53777 -5.78083,9.5697 -6.83364,14.54172 -0.5088,2.40281 -0.68512,7.50756 -0.35179,10.18612 0.50178,4.0316 1.71262,8.25866 3.26068,11.38557 0.76046,1.5359 1.71848,3.29981 2.1294,3.92019 l 0.74724,1.1281 -0.6377,3.52612 c -0.679,3.75594 -0.97152,4.772371 -1.27672,4.434242 -0.10414,-0.115448 -0.52186,-2.251567 -0.92812,-4.747402 -1.02554,-6.29974 -3.00568,-15.16746 -3.4684,-15.53347 -0.75103,-0.59397 -1.33178,-0.32679 -2.548,1.17219 -2.61761,3.22624 -4.07108,7.03947 -4.48833,11.77555 -0.44126,5.00958 0.24975,8.730784 2.82935,15.231225 0.51602,1.300299 1.24645,2.847612 1.62307,3.438399 0.72983,1.144965 2.86316,3.122114 4.25424,3.94291 1.81468,1.070634 2.18216,1.610108 2.45938,3.611568 0.51646,3.728478 2.37422,10.099565 3.40478,11.675557 0.35903,0.549131 0.90187,0.686284 1.14673,0.289981 0.0793,-0.128412 -0.1747,-0.88763 -0.56451,-1.687156 -0.82352,-1.689023 -2.12528,-6.309999 -2.66664,-9.465256 -0.47301,-2.757495 -0.53305,-9.897611 -0.0854,-10.178844 0.15999,-0.100532 0.60512,-0.200151 0.98902,-0.221348 1.40623,-0.078 20.02406,-3.370964 22.25166,-3.935638 6.49425,-1.646222 12.93784,-4.788268 21.96348,-10.710628 6.43251,-4.22085 14.16213,-10.14959 16.28524,-12.4905 2.08055,-2.29395 3.64877,-4.76931 3.56521,-5.62734 -0.0619,-0.63464 -0.18058,-0.74223 -1.01447,-0.91721 -0.77303,-0.16222 -1.38594,-0.064 -3.37432,0.54042 -1.33628,0.40623 -2.96613,0.93386 -3.62156,1.17265 -0.65544,0.2388 -2.38331,0.65564 -3.83974,0.92584 -4.35618,0.80819 -7.75506,1.80531 -12.30324,3.60975 -5.62817,2.23287 -16.53427,7.04437 -18.93779,8.35488 -2.31212,1.26067 -9.38854,5.87985 -17.48196,11.411486 -2.23554,1.527936 -4.13726,2.705464 -4.22608,2.616638 -0.17107,-0.171043 0.35909,-4.245274 0.99993,-7.685374 l 0.38316,-2.05759 3.76336,-1.81442 c 2.06974,-0.99796 4.8033,-2.19789 6.0746,-2.66618 4.55353,-1.67726 7.11466,-2.93124 10.22382,-5.00602 0.89592,-0.59788 4.247,-2.45732 7.44676,-4.13199 19.60994,-10.26321 28.82295,-16.71109 34.50899,-24.15242 1.95337,-2.55636 1.45244,-3.23234 -2.27848,-3.07342 -1.82785,0.0779 -2.71463,0.2641 -5.11964,1.07629 -1.59988,0.54028 -4.11316,1.23816 -5.58507,1.5508 -9.07015,1.92666 -15.78165,5.25402 -24.05926,11.9269 -1.55027,1.24977 -4.79492,3.67649 -7.20995,5.39281 -4.64336,3.29989 -7.80218,6.17537 -11.88463,10.81789 -3.24418,3.6893 -3.26766,3.38076 -0.16544,-2.17712 1.26055,-2.25842 3.04806,-5.55722 3.97245,-7.33086 2.22417,-4.2675 4.25615,-7.68131 7.0186,-11.79146 l 2.27166,-3.38022 4.14882,-1.20128 c 2.28196,-0.66081 5.72395,-1.51981 7.64855,-1.9085 6.0901,-1.22993 10.51227,-2.92333 18.84098,-7.21541 21.08693,-10.86673 20.62854,-10.62078 23.38747,-12.55868 0.83187,-0.58437 2.16533,-1.61583 2.96298,-2.29212 0.79765,-0.67628 1.7844,-1.41612 2.19303,-1.64443 0.40872,-0.22831 0.95233,-0.69547 1.2081,-1.03811 0.70477,-0.94388 0.27017,-1.71874 -1.0772,-1.92078 -1.2208,-0.18307 -5.67167,0.23006 -7.28132,0.67587 -0.63098,0.17476 -1.88027,0.49844 -2.77617,0.71949 -10.77689,2.65896 -13.99821,3.66933 -17.86422,5.60234 -2.80186,1.40092 -3.10793,1.5718 -8.66485,4.8424 -2.1759,1.2806 -4.79383,2.74521 -5.81779,3.25432 -1.02387,0.5091 -3.22311,1.9363 -4.88693,3.1716 -4.83799,3.59185 -4.86477,3.56395 -0.58179,-0.59951 7.3548,-7.14949 12.40697,-11.67829 16.00482,-14.34719 3.10046,-2.29993 11.00686,-6.93585 15.35803,-9.00483 l 1.68852,-0.80268 1.91668,0.52179 c 9.5013,2.58717 14.05343,3.54547 21.12809,4.44787 3.2301,0.41201 4.19439,0.43851 8.95938,0.24771 6.95398,-0.27843 10.27873,-0.74672 16.67112,-2.34847 9.72251,-2.43618 20.43803,-6.62991 21.36489,-8.3617 0.28216,-0.5272 0.0868,-1.09983 -0.47815,-1.40217 -0.23246,-0.12443 -2.14222,-0.2259 -4.2438,-0.2259 -2.62577,0 -4.75963,-0.1434 -6.8218,-0.45769 -10.54311,-1.60695 -26.7221,-2.04986 -34.18445,-0.93585 -4.69225,0.70046 -14.1658,2.6285 -17.65651,3.59339 -1.64773,0.45546 -3.27087,0.81883 -3.60703,0.80722 -1.09977,-0.038 -3.5976,0.71951 -5.0492,1.53126 -0.90618,0.50677 -2.14497,1.55803 -3.41203,2.8957 -1.78854,1.88822 -2.40894,2.34902 -6.14549,4.56469 -6.77279,4.01606 -10.80117,7.30452 -20.79493,16.97655 -4.02047,3.89093 -8.10976,7.56039 -8.42578,7.56039 -0.77188,0 1.16148,-5.16866 3.38795,-9.05801 1.30551,-2.28054 3.73236,-5.64063 6.31547,-8.7444 2.59851,-3.12214 9.39349,-10.287 12.10326,-12.76184 4.00023,-3.65333 9.4248,-8.95164 9.4248,-9.20528 0,-0.26902 -0.17445,-0.38157 -0.91448,-0.28816 z m -151.76407,93.864887 c -2.5181,-0.08265 -4.78492,0.0048 -6.3082,0.279072 -2.49676,0.44955 -3.98958,1.164215 -4.10426,1.964411 -0.10388,0.7248 0.58325,1.428991 1.39446,1.428991 0.36491,0 2.62614,0.721768 5.02509,1.603981 8.21841,3.022288 14.9352,5.01347 29.14571,8.641221 l 4.30516,1.099016 -7.44676,0.118627 c -7.55972,0.120172 -9.96824,0.347743 -15.52982,1.468082 l -1.79989,0.362701 -0.75994,-0.570868 c -1.17621,-0.883814 -3.9358,-2.193501 -6.27184,-2.97616 -5.11285,-1.712962 -10.41313,-2.194411 -15.43213,-1.402176 -4.88715,0.771445 -6.31976,1.1629 -7.47038,2.041224 -0.56519,0.431395 -1.08167,0.78449 -1.14673,0.78449 -0.0655,0 -0.98072,0.40129 -2.03397,0.892213 -2.37316,1.106009 -4.07868,1.767814 -5.81324,2.255297 -2.02407,0.568842 -2.53902,1.307782 -1.31945,1.893053 0.68157,0.327101 8.95024,1.833524 12.86593,2.343927 2.39667,0.312397 3.36854,0.327202 6.43046,0.09772 3.1053,-0.232735 5.45354,-0.517883 9.07574,-1.10129 0.73802,-0.118869 0.67109,-0.04519 -0.71359,0.781766 -2.35459,1.406346 -5.31156,3.446539 -9.64206,6.653176 -2.47791,1.834902 -4.95603,3.443433 -6.63227,4.304704 l -2.67618,1.374904 -5.11965,0.251347 c -5.65313,0.277671 -7.72124,0.593136 -11.86827,1.81033 -11.06607,3.247995 -17.59229,7.612687 -22.57161,15.094866 -3.07521,4.620947 -5.85467,11.641313 -5.24417,13.246814 0.30957,0.814444 1.35047,0.816773 2.11348,0.0045 0.30748,-0.327268 1.0852,-0.898436 1.72807,-1.269003 0.64275,-0.37055 2.97898,-2.020128 5.1919,-3.665656 4.21405,-3.13362 9.70981,-6.658835 16.24434,-10.42019 2.1341,-1.228434 6.82428,-4.077599 10.42292,-6.331381 3.73011,-2.336072 7.53017,-4.529673 8.83893,-5.102375 3.32624,-1.455627 7.04045,-4.317137 9.83115,-7.574024 1.1791,-1.376047 3.50013,-3.177792 7.30447,-5.670062 2.21574,-1.451583 7.21405,-4.202066 7.21405,-3.969728 0,0.06807 -1.07336,1.04391 -2.38529,2.168487 -4.47033,3.832009 -9.69021,9.562458 -13.31725,14.619901 -2.50087,3.487133 -5.87924,11.178462 -6.31866,14.384918 -0.12848,0.937032 -0.0728,1.108894 0.58452,1.796693 0.72015,0.753614 0.7315,0.756706 1.2199,0.318161 0.73592,-0.660807 2.12402,-2.805085 2.92299,-4.515145 0.80134,-1.714967 3.43,-5.763426 5.22646,-8.049443 0.97513,-1.240819 1.24433,-1.462295 1.41172,-1.163103 0.25514,0.455849 0.81765,0.469216 1.84214,0.04363 0.43159,-0.179286 1.62267,-0.448044 2.64663,-0.59723 11.85512,-1.727302 35.01619,-7.26308 45.88411,-10.966516 4.26031,-1.451776 11.89699,-4.459941 13.43907,-5.293727 1.02581,-0.554671 1.39033,-0.61896 3.49067,-0.616321 3.5097,0.0041 7.08228,0.929946 10.06885,2.609821 2.42858,1.36601 2.88902,1.604732 5.71234,2.962977 1.69495,0.815392 13.7941,8.694354 13.61952,8.868931 -0.0446,0.04461 -0.74347,-0.125266 -1.55309,-0.377245 -2.31169,-0.719481 -6.3374,-1.371284 -10.17202,-1.647158 -3.10195,-0.223175 -4.12327,-0.194323 -8.61031,0.244072 -6.82417,0.666718 -12.44612,1.36948 -14.25675,1.782151 -0.81752,0.186304 -2.99528,0.598429 -4.83965,0.915845 -9.05512,1.558515 -14.95493,3.81691 -14.07496,5.387811 0.20099,0.358694 0.54692,0.428563 2.17485,0.438151 1.25343,0.0074 3.74116,0.353335 7.05587,0.98084 2.81576,0.533072 6.00973,1.075089 7.0977,1.204919 2.84075,0.338939 22.76925,0.353944 26.06365,0.01955 6.72603,-0.682777 9.53558,-1.800384 12.41598,-4.939658 l 1.77168,-1.931231 0.71405,0.756312 c 0.39254,0.415978 0.81493,0.756311 0.93904,0.756311 0.74109,0 10.92104,8.445416 10.92104,9.060285 0,0.0906 0.8639,1.107766 1.91987,2.260752 1.0559,1.153022 2.69894,3.004478 3.65112,4.114262 1.71325,1.996957 2.17471,2.321023 2.41485,1.695337 0.14442,-0.376345 -0.25459,-1.011489 -1.56808,-2.494373 -0.52193,-0.589273 -1.94335,-2.212428 -3.15887,-3.607024 -3.20627,-3.678609 -6.69515,-6.982738 -10.23748,-9.696148 l -3.10753,-2.380292 -0.53905,-2.04713 c -0.69765,-2.649857 -1.43125,-4.495824 -3.22021,-8.102169 -1.52654,-3.077073 -3.00787,-5.420989 -4.97286,-7.869458 -1.96496,-2.448377 -7.07719,-7.911301 -7.94308,-8.488048 -6.33733,-4.22073 -7.06509,-4.633913 -10.64472,-6.041402 -5.68463,-2.235093 -15.07653,-3.871128 -16.83112,-2.93207 -0.82299,0.440455 -0.54699,1.214117 0.67223,1.886233 0.61347,0.338174 2.62745,1.799798 4.47606,3.247958 1.84852,1.448185 7.81177,5.96197 13.25135,10.03067 13.57753,10.155513 20.47858,15.630637 20.47858,16.247061 0,0.104727 -2.4871,-1.465415 -5.52689,-3.489304 -3.03977,-2.02389 -7.51655,-4.772879 -9.9484,-6.108669 -4.77324,-2.621888 -6.41108,-3.615828 -11.41284,-6.927704 -3.39202,-2.246033 -7.76171,-4.511775 -10.49383,-5.440988 -0.91497,-0.311226 -2.68335,-1.257446 -4.1229,-2.206212 -4.75768,-3.135686 -7.4499,-4.31835 -15.50939,-6.812711 -4.57016,-1.414403 -11.14309,-2.839899 -18.73325,-4.062447 -2.52847,-0.407266 -5.29771,-0.660027 -7.81581,-0.742677 z m 25.57186,16.280242 c 4.55102,0.05496 8.39176,0.345339 12.00646,0.896755 1.65053,0.251796 3.04428,0.45815 3.09706,0.45815 0.053,0 0.0319,0.104722 -0.0473,0.232711 -0.0791,0.127991 -0.74351,0.232711 -1.47625,0.232711 -1.74782,0 -13.08728,1.274893 -16.76384,1.884871 -3.7419,0.620847 -6.71292,1.516748 -10.79698,3.255685 -8.72784,3.716147 -13.85784,6.829872 -20.26361,12.299151 -1.13303,0.967404 -2.46828,2.107786 -2.96707,2.534369 -0.49886,0.426585 -0.90676,0.705348 -0.90676,0.619503 0,-0.239604 4.27174,-5.765143 6.47137,-8.370785 1.0779,-1.276791 2.67723,-3.33347 3.55432,-4.570595 0.94269,-1.3295 2.05344,-2.58618 2.71662,-3.072968 1.39927,-1.027161 3.43487,-3.160851 3.64384,-3.819282 0.18568,-0.584989 1.52759,-0.933011 7.11452,-1.846237 2.9841,-0.487791 4.68566,-0.611037 9.81203,-0.711315 1.69272,-0.03311 3.28859,-0.04105 4.80558,-0.02274 z"
       sodipodi:nodetypes="sssssssssscsccccccsscsscsccsccscsccsssscscssscscssssssccccscssscscssscccscssscsscssscsscccsssssscsssssscssccssssssscccccsssscssssscscccsscssssscsssssssssscsssscssssssscssssscccssccsssscccscsssccsssssssssssssssssssscssssssss" />
  </g>
</svg>
