<?xml version="1.0" encoding="UTF-8" standalone="no"?>
<!-- Created with Inkscape (http://www.inkscape.org/) -->

<svg
   width="277.18317mm"
   height="290.76578mm"
   viewBox="0 0 277.18317 290.76578"
   version="1.1"
   id="svg5"
   inkscape:version="1.1.1 (3bf5ae0d25, 2021-09-20)"
   sodipodi:docname="folhas 3.svg"
   xmlns:inkscape="http://www.inkscape.org/namespaces/inkscape"
   xmlns:sodipodi="http://sodipodi.sourceforge.net/DTD/sodipodi-0.dtd"
   xmlns="http://www.w3.org/2000/svg"
   xmlns:svg="http://www.w3.org/2000/svg">
  <sodipodi:namedview
     id="namedview7"
     pagecolor="#505050"
     bordercolor="#eeeeee"
     borderopacity="1"
     inkscape:pageshadow="0"
     inkscape:pageopacity="0"
     inkscape:pagecheckerboard="0"
     inkscape:document-units="mm"
     showgrid="false"
     showguides="false"
     inkscape:zoom="0.70710678"
     inkscape:cx="592.55548"
     inkscape:cy="615.1829"
     inkscape:window-width="1920"
     inkscape:window-height="1043"
     inkscape:window-x="1920"
     inkscape:window-y="0"
     inkscape:window-maximized="1"
     inkscape:current-layer="layer1" />
  <defs
     id="defs2" />
  <g
     inkscape:label="Layer 1"
     inkscape:groupmode="layer"
     id="layer1"
     transform="translate(-115.02517,506.6188)">
    <path
       id="path2892"
       style="fill:#366539;fill-opacity:1;stroke-width:0.239674"
       d="m 282.81771,-492.90262 c -0.96517,-0.0528 -2.09088,-0.0302 -3.95182,0.0356 -6.60626,0.23351 -8.97094,0.68999 -10.26247,1.98152 -0.73722,0.7372 -0.81003,0.92594 -0.69374,1.79289 0.0715,0.53304 0.40306,1.36601 0.73681,1.85091 0.33375,0.48492 0.93581,1.35651 1.33834,1.9366 0.68753,0.99067 0.73213,1.1894 0.73213,3.27445 0,6.16009 -2.7527,13.10198 -8.16766,20.59702 -5.21824,7.2228 -6.48124,9.43279 -7.77912,13.61371 -0.62278,2.00607 -0.64875,2.28276 -0.52851,5.63235 0.10354,2.88357 0.25833,4.02306 0.85384,6.27928 2.02147,7.65894 4.91721,13.45746 8.59271,17.20602 1.05483,1.07577 1.35051,1.49628 0.97556,1.38702 -1.21889,-0.35523 -3.69544,-0.84974 -4.27717,-0.85339 -1.34005,-0.009 -2.07747,0.48953 -3.47621,2.349 -0.76178,1.01272 -1.15076,2.00209 -1.35611,2.25513 -0.30268,0.37299 -0.87107,3.4159 -0.25988,2.97276 24.55869,-4.16457 27.31195,30.66119 22.69824,46.05058 0.088,0.0877 2.62786,0.16204 4.42903,0.14529 2.41026,-0.0223 4.22411,-0.20221 6.87005,-0.68065 6.24299,-1.1289 6.13455,-1.14675 4.25422,0.70826 -2.78599,2.74847 -7.61,5.13848 -17.16201,8.50329 -1.56274,0.55048 -3.01611,1.0678 -3.22951,1.1497 -0.28682,0.11005 -0.24535,-0.0352 0.15869,-0.5566 1.41458,-1.82541 2.48352,-3.67749 3.15321,-5.46383 0.40252,-1.07361 0.83104,-2.12894 0.95215,-2.34525 0.17702,-0.31608 0.86545,-2.74971 0.4936,-2.65245 8.38709,-22.95158 -3.24049,-48.63275 -17.67386,-45.84839 -1.67932,-0.36286 -2.18168,-0.38292 -3.43081,-0.13716 -1.06653,0.20981 -1.54967,0.21648 -1.78117,0.0244 -0.40259,-0.33413 -2.42495,0.39681 -3.61946,1.30791 -0.45483,0.34692 -1.61499,1.74834 -2.57791,3.11435 -0.96291,1.36598 -3.09193,3.95759 -4.73123,5.75921 -1.6393,1.80165 -3.8201,4.42532 -4.84639,5.83082 -2.45429,3.36122 -3.66167,4.56288 -6.40286,6.37198 -3.51633,2.3207 -4.85033,2.8785 -5.13147,2.14583 -0.0814,-0.21222 -0.58614,-2.5571 -1.1216,-5.21104 -0.90439,-4.48194 -0.96763,-5.05558 -0.89317,-8.06093 0.072,-2.905 0.14533,-3.37478 0.71669,-4.59782 0.64261,-1.37559 3.58277,-5.65497 6.30971,-9.18346 2.37151,-3.06855 5.41321,-7.72334 5.92539,-9.06737 0.58224,-1.5278 0.47691,-2.7975 -0.37777,-4.54446 -1.36096,-2.78169 -5.17312,-6.02499 -8.33805,-7.09427 -2.68075,-0.90568 -15.73643,-1.68829 -26.56969,-1.59251 -5.84404,0.0516 -6.81715,0.11664 -8.58475,0.57296 -4.60329,1.1883 -7.20002,3.05304 -8.98592,6.45155 -1.54965,2.94896 -2.15575,6.35553 -2.44028,13.71622 -0.21034,5.43893 -0.61811,9.58697 -0.94231,9.58697 -0.31678,0 -1.51788,-0.77632 -3.81233,-2.4632 -2.78496,-2.04747 -6.23083,-4.00861 -8.18965,-4.66147 -1.72004,-0.57331 -2.27499,-0.64008 -5.39267,-0.64461 -3.32513,-0.005 -3.57693,0.0299 -5.82382,0.80046 -1.45752,0.49987 -3.95763,1.71138 -6.59104,3.19443 -5.87548,3.30887 -6.99697,3.84661 -9.87487,4.73264 -1.38415,0.42609 -3.46169,1.08311 -4.61701,1.46005 -1.15524,0.37693 -3.04269,0.83809 -4.19431,1.02467 -2.46021,0.39873 -4.68475,1.31517 -5.11368,2.10701 -0.3309,0.61088 -0.72128,2.37146 -0.73307,3.30255 -0.005,0.4397 0.87122,1.4477 3.55065,4.08288 5.92611,5.82818 8.38432,9.81007 12.58197,20.37935 0.3926,0.98865 1.07498,2.50709 1.51622,3.37463 0.44134,0.86758 0.87359,2.1079 0.95964,2.75626 1.03087,7.73572 4.13768,14.50801 9.52753,20.76835 2.34562,2.72455 5.69023,4.73778 7.87181,4.73778 0.52757,0 1.41293,-0.23027 1.96795,-0.51165 1.95067,-0.98899 8.25579,-4.86881 13.66004,-8.40591 6.36872,-4.16832 8.37463,-5.28875 10.3926,-5.80508 3.74428,-0.95808 7.91322,0.11676 10.68097,2.75438 1.02905,0.98071 1.14828,1.20346 1.14828,2.14162 0,2.37222 -2.29074,5.13226 -5.7667,6.94775 l -2.02272,1.05606 -4.79349,0.17507 c -2.63641,0.0963 -5.23621,0.28783 -5.77746,0.42553 -1.88835,0.48035 -4.9505,1.92674 -7.60593,3.59324 -3.67433,2.30587 -6.85131,3.7691 -8.90634,4.10115 -6.12612,0.9898 -6.15053,0.99642 -6.61351,1.7807 -0.23869,0.40419 -0.91484,1.13654 -1.50264,1.62764 -2.31393,1.9334 -4.87626,6.88786 -5.12492,9.90998 -0.24014,2.91732 1.18787,6.05572 6.02931,13.2523 1.89804,2.82147 3.98384,6.29162 5.06453,8.42513 2.10738,4.16047 3.67721,6.35641 6.87706,9.61929 1.91063,1.94817 2.58159,2.46155 4.28043,3.27678 2.68614,1.28905 4.31087,1.5738 8.06936,1.41279 3.74454,-0.16044 6.57258,-0.87776 10.0036,-2.53672 2.929,-1.41619 8.34364,-4.99019 8.11664,-5.35756 -0.0917,-0.14833 -0.0517,-0.19325 0.0927,-0.10393 0.29721,0.18365 1.9494,-1.07745 4.97277,-3.79548 4.02812,-3.62132 6.17156,-4.93943 8.60395,-5.29108 l 1.17356,-0.16947 -0.12312,1.53729 c -0.13211,1.64564 -0.31186,2.07194 -2.71459,6.43704 -1.75998,3.19735 -2.44333,4.86678 -3.48324,8.50844 -0.86956,3.04511 -1.33859,4.0494 -2.74174,5.87203 -1.47206,1.91209 -3.28035,3.53618 -5.86782,5.27096 -4.02662,2.69965 -8.46872,6.13562 -9.95912,7.70329 -1.80601,1.89952 -3.78846,4.66775 -3.58201,5.00181 0.0852,0.13791 0.021,0.22112 -0.14278,0.18491 -0.42729,-0.0945 -2.46477,4.00614 -2.94958,5.93613 -0.47349,1.88493 -0.53352,4.65499 -0.13295,6.1426 0.68682,2.55055 2.51683,5.2292 4.54305,6.65051 2.14352,1.50363 4.83105,2.19801 9.70682,2.50815 3.64217,0.23167 9.34826,-0.0496 11.56709,-0.57062 1.21766,-0.28586 2.21419,-0.62505 2.21419,-0.75368 0,-0.12866 0.0954,-0.17498 0.21205,-0.10299 0.21934,0.13558 9.56618,-3.20519 13.28134,-4.74714 4.73813,-1.9665 8.77561,-4.27645 13.57718,-7.76694 4.19109,-3.04669 11.7639,-9.23669 13.59545,-11.11303 1.94623,-1.99385 5.15277,-6.17435 4.96669,-6.47543 -0.0676,-0.1094 -0.0201,-0.19895 0.10579,-0.19895 0.33313,0 1.68299,-2.18655 2.21605,-3.58949 0.25234,-0.66407 0.67169,-2.52791 0.93155,-4.14188 0.30529,-1.8964 0.76477,-3.65873 1.29949,-4.98169 0.45505,-1.12591 1.12655,-3.06727 1.49187,-4.31414 0.36537,-1.24685 0.70214,-2.31666 0.74852,-2.37754 0.0464,-0.061 0.29519,0.0207 0.55284,0.18162 2.8677,2.08462 0,0 2.62568,1.98069 0,0.13959 0.10876,0.18628 0.24202,0.10393 0.13326,-0.0823 0.86925,0.23104 1.63559,0.69656 0.76632,0.46554 2.36729,1.218 3.5572,1.67209 1.18991,0.45409 2.81021,1.15226 3.60074,1.55134 2.17604,1.09845 4.12708,1.64436 8.34085,2.33448 3.19641,0.52352 4.25684,0.6022 6.3701,0.47281 3.51401,-0.21519 6.72386,-0.91812 8.73969,-1.91414 2.73754,-1.35262 7.29492,-6.2893 9.19704,-9.96241 1.27961,-2.47097 1.63848,-3.84106 2.06205,-7.8746 0.34655,-3.29991 1.2745,-7.80483 3.1401,-15.2404 1.45037,-5.78065 2.73156,-16.04222 2.38786,-19.12762 -0.0625,-0.56132 -0.17849,-1.69275 -0.25793,-2.51423 -0.18455,-1.90884 -0.81496,-3.72831 -2.14163,-6.18193 l -1.05606,-1.95296 0.54161,-0.21909 c 1.35964,-0.54974 6.19357,-7.16419 8.47942,-11.60314 0.57699,-1.12048 1.40753,-2.68563 1.84577,-3.47809 2.12968,-3.85085 3.21335,-7.77027 3.44485,-12.46027 0.0911,-1.84549 0.10607,-3.40932 0.0333,-3.47528 -0.0728,-0.0659 -0.8999,-2.43869 -1.83782,-5.27283 -3.75711,-11.35329 -7.04106,-19.24862 -12.69479,-30.52198 -5.16089,-10.29063 -8.97582,-16.32532 -16.0755,-25.42704 -1.22735,-1.57344 -2.23151,-3.05383 -2.23151,-3.28992 0,-0.54513 1.00618,-1.21785 1.52418,-1.01907 0.7836,0.3007 7.79651,9.67355 11.1032,14.83969 5.77217,9.01807 12.47808,22.70774 17.20788,35.12823 1.77882,4.67118 5.94618,17.25076 5.77232,17.42462 -0.19404,0.19404 1.55093,1.48641 2.99406,2.21744 2.0137,1.02003 6.09404,2.31451 9.5116,3.01748 8.66919,1.78323 16.83651,-0.0395 22.20594,-4.95592 2.6868,-2.46009 8.21627,-10.33534 10.33784,-14.72361 1.82555,-3.77597 2.1389,-4.93425 2.14162,-7.90926 0.003,-3.00595 -0.4107,-4.45815 -2.54513,-8.93583 -1.71703,-3.60202 -2.39713,-3.9168 -6.00217,-2.78012 -2.10683,0.66428 -3.73525,1.42237 -6.66314,3.1022 -2.23036,1.27964 -4.8879,2.18475 -7.07133,2.40844 -1.66156,0.17024 -1.66599,0.16918 -1.31259,-0.33471 1.89813,-2.70633 6.04938,-9.07805 6.56623,-10.0785 0.62016,-1.20039 1.08993,-3.7535 1.09446,-5.9516 0.005,-2.27333 -1.32507,-9.42869 -2.30874,-12.42235 -1.09721,-3.33916 -2.978,-6.57642 -5.19092,-8.93396 -2.0708,-2.20613 -5.22412,-3.33445 -8.70786,-3.11623 -3.26066,0.20428 -5.73806,1.73388 -8.79914,5.43385 -1.76463,2.13297 -3.11604,3.06328 -4.7832,3.2918 -1.49427,0.20479 -1.57243,-0.0923 -0.69374,-2.64158 0.86216,-2.50129 2.07472,-4.64532 4.75838,-8.41435 2.60771,-3.66236 4.42319,-6.74101 5.91883,-10.03543 1.54583,-3.40496 1.66055,-4.67885 0.77988,-8.66855 -1.32902,-6.02079 -2.96518,-9.85567 -5.16142,-12.09653 -2.35878,-2.40667 -4.47554,-2.68048 -9.20359,-1.1904 -3.3118,1.04369 -6.26177,1.66061 -7.97106,1.66694 -1.28247,0.005 -1.63441,0.11732 -2.88404,0.925 -3.42555,2.21404 -4.40502,4.31562 -5.35102,11.48144 -0.50341,3.81339 -0.91427,5.23614 -1.58691,5.49425 -0.95449,0.36626 -5.492,-1.82421 -8.03892,-3.88112 -1.70076,-1.37355 -3.48634,-3.57141 -4.45551,-5.48398 -0.5287,-1.04332 -0.62358,-1.63824 -0.80469,-5.03644 -0.38396,-7.20267 -2.0391,-12.02845 -4.81549,-14.03968 -1.22569,-0.88787 -4.48754,-1.953 -8.12225,-2.65233 -1.21805,-0.23435 -2.02281,-0.36236 -2.98798,-0.41521 z m -2.16971,61.7878 c 1.32337,0 1.94064,0.35847 4.06931,2.36349 1.81992,1.71427 2.21788,1.9679 4.1915,2.67388 1.19928,0.429 2.18048,0.85162 2.18048,0.93905 0,0.0874 -0.1297,0.28838 -0.28789,0.44656 -0.42463,0.42468 -3.51258,0.36524 -4.37454,-0.0842 -0.38931,-0.20303 -1.18133,-0.76869 -1.7601,-1.25691 -0.57879,-0.48824 -1.60848,-1.29884 -2.28814,-1.80129 -1.86512,-1.37885 -2.55403,-2.11407 -2.55403,-2.7263 0,-0.47173 0.12282,-0.55424 0.82341,-0.55424 z m 55.11343,9.58697 c 1.06135,0 2.21515,0.41358 3.40038,1.21896 0.83724,0.56897 1.01869,0.85169 1.27186,1.98295 0.68063,3.04133 -0.89098,4.98592 -4.67787,5.78824 -2.00662,0.4254 -3.65882,0.42738 -5.22461,0.007 -1.88845,-0.507 -2.50847,-1.77522 -1.50031,-3.06802 0.83944,-1.07648 2.3897,-2.67173 4.30993,-4.43539 1.31137,-1.20448 1.78021,-1.49375 2.42062,-1.49375 z m -49.78676,6.76613 c 2.79321,0.0466 4.3516,0.44036 6.29005,1.40903 1.60388,0.80144 3.41736,2.62419 4.33895,4.36142 0.53242,1.00359 0.55428,1.15059 0.22142,1.48344 -0.73172,0.73171 -5.60047,0.6154 -9.17363,-0.21908 -1.69963,-0.3969 -11.17346,-4.02402 -14.61312,-5.59489 l -1.96187,-0.89598 3.59512,-0.14838 c 1.97732,-0.0816 5.59456,-0.2326 8.03846,-0.33518 1.26526,-0.0531 2.33355,-0.076 3.26462,-0.0604 z m -78.72978,0.27057 c 0.15981,-0.018 0.31058,-0.006 0.44938,0.0374 0.57184,0.18148 0.51304,-0.41524 0.63945,6.46747 0.0581,3.16371 0.11741,6.37324 0.13154,7.13266 0.0194,1.03538 -0.0941,1.54135 -0.45314,2.02226 -0.60621,0.81195 -0.72817,0.84047 -1.86169,0.43721 -1.16901,-0.4159 -2.87676,-2.0709 -3.53052,-3.42144 -0.8939,-1.8466 -0.45832,-5.62483 1.02892,-8.92694 0.92074,-2.0443 2.47735,-3.62223 3.59606,-3.74865 z m 146.03571,21.62267 c 0.41678,0.0427 0.71561,0.15368 1.1099,0.35483 0.50358,0.25691 1.03566,0.69141 1.18246,0.9657 0.37091,0.693 0.38951,4.52187 0.0253,5.19233 -0.24864,0.45771 -0.48215,0.53618 -1.5429,0.51914 -1.44312,-0.023 -3.6951,-0.52594 -4.71298,-1.05232 -1.67512,-0.86623 -1.94176,-2.69207 -0.67127,-4.59314 l 0.77894,-1.16513 2.01243,-0.16713 c 0.86657,-0.0718 1.40137,-0.097 1.81815,-0.0543 z m -17.7846,33.26703 c -0.0252,0.0252 -0.0425,0.10941 -0.0482,0.24902 -0.0104,0.25262 0.0463,0.3942 0.12593,0.31457 0.0796,-0.0796 0.0884,-0.28618 0.0192,-0.45921 -0.0382,-0.0956 -0.0716,-0.12959 -0.0969,-0.10438 z m 0.24623,3.1696 c -0.0219,0.0543 -0.0356,0.17039 -0.0356,0.33516 0,0.32958 0.0543,0.46437 0.12078,0.2996 0.0665,-0.16478 0.0665,-0.43442 0,-0.59919 -0.0332,-0.0824 -0.0633,-0.0899 -0.0852,-0.0356 z m -1.66602,0.31129 c -0.0217,0.0534 -0.0361,0.18565 -0.0384,0.38338 h -4.8e-4 c -0.005,0.39547 0.0448,0.58594 0.11048,0.42365 0.0659,-0.16226 0.0701,-0.48582 0.009,-0.71902 -0.0303,-0.1166 -0.0593,-0.14148 -0.081,-0.088 z m 0,4.55382 c -0.0217,0.0534 -0.0361,0.18565 -0.0384,0.38338 h -4.8e-4 c -0.005,0.39546 0.0448,0.58593 0.11048,0.42364 0.0659,-0.16225 0.0701,-0.48582 0.009,-0.71902 -0.0303,-0.1166 -0.0593,-0.14148 -0.081,-0.088 z m 1.67773,0.23967 c -0.0217,0.0534 -0.0362,0.18565 -0.0384,0.38338 h -4.8e-4 c -0.005,0.39545 0.0448,0.58594 0.11048,0.42365 0.0659,-0.16226 0.0701,-0.48582 0.009,-0.71902 -0.0303,-0.1166 -0.0593,-0.14149 -0.081,-0.0881 z m -1.93565,3.23 c -0.0252,0.0252 -0.0425,0.10941 -0.0482,0.24902 -0.0104,0.25262 0.0463,0.39419 0.12593,0.31457 0.0796,-0.0796 0.0884,-0.2862 0.0192,-0.45922 -0.0382,-0.0956 -0.0716,-0.12959 -0.0969,-0.10437 z m 1.67771,0.23967 c -0.0252,0.0252 -0.0425,0.10941 -0.0482,0.24902 -0.0104,0.25262 0.0463,0.39419 0.12593,0.31458 0.0796,-0.0796 0.0884,-0.2862 0.0192,-0.45922 -0.0382,-0.0956 -0.0716,-0.12959 -0.0969,-0.10438 z m -104.9292,1.36128 c 0.55664,0.0513 1.13404,0.16962 1.74981,0.35249 2.03507,0.60434 2.5323,2.03028 1.33647,3.83245 -0.95231,1.43512 -1.55021,2.03161 -2.54982,2.54418 -1.96107,1.00566 -4.10727,0.97524 -5.48957,-0.0772 -2.86687,-2.18278 -4.96363,-2.25811 -8.81741,-0.3174 -2.47913,1.2485 -2.40283,1.30892 -2.40283,-1.90006 0,-1.61536 0.10095,-2.80484 0.24576,-2.89436 0.1352,-0.0835 0.81589,-0.21034 1.51248,-0.28226 1.04599,-0.10795 1.70794,0.0199 3.80203,0.73541 2.47559,0.84586 2.55998,0.85782 3.5703,0.50136 0.56918,-0.20082 1.52622,-0.68015 2.12664,-1.06545 1.76377,-1.13179 3.24621,-1.58291 4.91614,-1.42914 z m 65.64038,38.86096 c 2.52197,-0.13175 5.19161,0.96414 6.48712,2.66265 0.53882,0.70638 0.58606,0.90596 0.36467,1.541 -0.34698,0.99537 -2.33789,1.87126 -5.01304,2.20577 -3.30885,0.41375 -3.39981,0.39722 -4.16434,-0.76443 -0.86487,-1.31405 -0.78674,-2.77362 0.23734,-4.43304 0.69503,-1.12626 0.71983,-1.14048 2.08825,-1.21195 z m -26.86133,20.4154 c -0.0252,0.0252 -0.0425,0.10941 -0.0482,0.24902 -0.0104,0.25262 0.0463,0.39419 0.12592,0.31458 0.0796,-0.0796 0.0884,-0.2862 0.0192,-0.45922 -0.0382,-0.0956 -0.0717,-0.12959 -0.0969,-0.10438 z m -1.67772,0.23968 c -0.0252,0.0252 -0.0425,0.10941 -0.0482,0.24902 -0.0104,0.25262 0.0463,0.39419 0.12592,0.31457 0.0796,-0.0796 0.0884,-0.2862 0.0192,-0.45922 -0.0382,-0.0956 -0.0717,-0.12959 -0.0969,-0.10437 z m 1.92395,3.40927 c -0.0219,0.0543 -0.0356,0.17039 -0.0356,0.33516 0,0.32958 0.0543,0.46437 0.12077,0.2996 0.0665,-0.16478 0.0665,-0.43442 0,-0.59919 -0.0333,-0.0823 -0.0633,-0.0899 -0.0851,-0.0356 z m -1.67772,0.23968 c -0.0219,0.0543 -0.0356,0.17038 -0.0356,0.33515 0,0.32958 0.0543,0.46437 0.12078,0.2996 0.0665,-0.16478 0.0665,-0.43441 0,-0.59919 -0.0333,-0.0823 -0.0633,-0.0899 -0.0851,-0.0356 z m 1.98807,5.92163 c -0.0305,-0.0807 -0.052,0.60762 -0.052,1.84344 0,1.64776 0.0384,2.32184 0.0852,1.49796 0.0468,-0.82388 0.0468,-2.17205 0,-2.99593 -0.0117,-0.20597 -0.0231,-0.31855 -0.0333,-0.34547 z m -1.67818,0.14745 c -0.0311,-0.0743 -0.0529,0.55904 -0.0529,1.69599 0,1.51594 0.0386,2.1361 0.0861,1.37812 0.0476,-0.75796 0.0476,-1.99828 0,-2.75626 -0.0119,-0.18948 -0.0229,-0.29307 -0.0333,-0.31785 z m -0.31645,8.01788 c -0.0252,0.0252 -0.0425,0.10941 -0.0482,0.24902 -0.0104,0.25261 0.0463,0.39419 0.12592,0.31457 0.0796,-0.0796 0.0884,-0.28619 0.0192,-0.45921 -0.0382,-0.0956 -0.0718,-0.12959 -0.0969,-0.10438 z"
       sodipodi:nodetypes="ssssssssssssscssccssssssssccsssssssscssssssssscsssssssscscssscsssssssccsscscccsscsssscscccsssscsssssssscssssssssssccssscsssssssscccscsscssssssssssscsssssscssssssssssscsssssssssssssssssssssscsssssssssscsssssssssssssssssssssssssssssssssssssssssssssssssssssssssssssssssssssscssscsssssssssssssssssssssssssssssssscsssssssssssssscssscscssss" />
    <path
       style="fill:#1d3420;fill-opacity:1;stroke-width:0.239674"
       d="m 270.39734,-229.70858 c -0.4148,-0.41478 -0.003,-1.00951 1.93736,-2.7953 3.89687,-3.58714 12.54523,-12.24183 15.84775,-15.85935 13.37161,-14.64699 23.11661,-28.1271 29.62828,-40.98434 5.38426,-10.63122 8.75023,-20.84351 12.44195,-37.74873 3.80071,-17.40418 4.58946,-25.49197 3.35372,-34.38861 -0.81842,-5.89209 -3.58155,-17.03518 -4.36819,-17.61586 -0.0929,-0.0686 -0.93631,-2.44358 -1.87423,-5.27773 -3.75711,-11.35328 -7.04089,-19.24859 -12.69462,-30.52197 -5.16089,-10.29061 -8.97607,-16.32501 -16.07576,-25.42672 -1.22734,-1.57345 -2.23154,-3.05393 -2.23154,-3.28999 0,-0.54514 1.00628,-1.21796 1.52429,-1.01917 0.78359,0.3007 7.79628,9.6734 11.10297,14.83954 5.77001,9.01468 12.48519,22.72203 17.20138,35.11231 1.9884,5.22389 5.67808,16.43585 5.75773,17.49624 0.0347,0.46137 0.55396,2.7263 1.15396,5.03316 2.17845,8.3753 3.0407,15.81624 2.57832,22.24975 -0.33595,4.67449 -0.91179,8.52598 -2.44267,16.33784 -5.32497,27.17273 -10.88019,41.96504 -22.14233,58.95993 -7.83468,11.8228 -19.41829,25.64192 -30.85544,36.81025 -7.88614,7.70076 -9.17323,8.75848 -9.84293,8.08875 z m -8.3905,-1.38535 c -0.0786,-0.20496 0.33492,-1.85694 0.91908,-3.67104 1.29312,-4.01591 1.89403,-6.54062 2.38085,-10.00315 0.66184,-4.70737 2.72862,-24.60014 2.88853,-27.80224 0.23009,-4.60654 -0.51798,-17.98687 -1.06259,-19.00647 -0.11962,-0.22393 -0.40455,-1.78229 -0.6332,-3.463 -0.22862,-1.68072 -0.51209,-3.05586 -0.62989,-3.05586 -0.11779,0 -0.1468,-0.10903 -0.0644,-0.24229 0.16161,-0.2615 -0.36987,-2.93021 -1.12117,-5.62973 -0.25682,-0.92275 -0.51984,-1.94736 -0.58448,-2.27691 -0.30167,-1.53816 -2.11242,-7.16282 -3.74218,-11.62421 -1.97408,-5.40395 -7.46221,-17.45947 -8.14083,-17.88254 -0.12935,-0.0806 -0.23104,-0.24244 -0.22594,-0.35952 0.0591,-1.3619 -12.12286,-18.84654 -12.96049,-18.60195 -0.12406,0.0362 -0.163,-0.0353 -0.0866,-0.15902 0.41715,-0.67495 -7.29502,-8.65347 -12.07279,-12.48975 -0.57459,-0.46137 -1.37911,-1.11525 -1.7878,-1.45307 -0.78026,-0.64497 -3.87175,-2.84556 -6.176,-4.39621 -0.81492,-0.54842 -1.47705,-0.84092 -1.65484,-0.73103 -0.17729,0.10958 -0.23536,0.0844 -0.14449,-0.0626 0.30371,-0.49139 -5.35688,-3.5206 -9.90445,-5.30027 -4.61571,-1.80633 -10.50042,-3.22427 -18.09539,-4.36014 -5.58216,-0.83485 -8.83119,-1.44288 -9.15757,-1.71374 -0.49868,-0.41384 -0.36443,-1.34963 0.25146,-1.75317 0.49886,-0.3269 0.75784,-0.3291 2.33684,-0.0199 0.97669,0.19121 2.96215,0.52482 4.41215,0.74134 3.77978,0.56438 7.894,1.27341 9.76169,1.68227 0.88693,0.19419 1.69586,0.33516 1.79749,0.3133 0.10173,-0.0218 0.34667,0.0168 0.54442,0.0858 0.19775,0.069 1.65373,0.4776 3.23554,0.90789 7.47656,2.03374 14.58977,5.59321 21.84639,10.93198 0.94252,0.69343 1.79569,1.18709 1.8959,1.09704 0.1002,-0.09 0.10461,-0.029 0.01,0.13582 -0.0948,0.16478 -0.0788,0.2996 0.0356,0.2996 0.29645,0 4.89271,3.81636 6.89419,5.72436 6.26622,5.97358 14.90386,17.0353 19.76631,25.31348 3.93275,6.6954 9.21002,18.64229 11.68653,26.45635 0.6106,1.92662 1.17066,3.55689 1.24461,3.6228 0.0739,0.0659 0.15166,0.32217 0.17272,0.56948 0.0945,1.10886 0.90835,3.70631 1.12022,3.57537 0.12856,-0.0794 0.16272,-0.0295 0.0759,0.11091 -0.0868,0.14044 0.16191,1.64009 0.55267,3.33254 1.13023,4.89514 2.10544,11.79082 1.70629,12.065 -0.0959,0.0659 -0.0688,1.19838 0.0605,2.51659 0.12918,1.3182 0.24526,6.33339 0.25791,11.14486 0.0201,7.67862 -0.0421,9.27554 -0.50979,13.06226 -0.29302,2.37278 -0.8083,6.90262 -1.14507,10.06633 -1.1692,10.98406 -1.61092,13.39301 -3.55976,19.41363 -0.92771,2.866 -1.05836,3.12162 -1.62974,3.18865 -0.3917,0.0459 -0.67399,-0.0648 -0.76418,-0.2998 z m 10.74729,-115.34065 c -1.38675,-0.35642 -2.63415,-2.55536 -2.38836,-4.21034 0.1851,-1.24647 0.97438,-3.13501 1.51175,-3.61725 0.56295,-0.50525 1.68453,-0.24392 1.85417,0.43198 0.0783,0.31174 -0.081,0.94367 -0.38441,1.52584 -0.7638,1.46537 -0.87352,2.69876 -0.2873,3.22928 0.45509,0.41186 0.53121,0.40812 2.00102,-0.0983 0.84037,-0.28954 3.52321,-1.43994 5.9619,-2.55644 10.13727,-4.6411 14.31355,-5.51155 21.5254,-4.48642 2.80079,0.39813 7.23803,1.80329 8.31407,2.63287 3.16837,2.44265 4.73568,5.14184 3.45247,5.94576 -0.69303,0.43416 -1.52765,0.009 -1.97596,-1.00748 -0.67794,-1.53659 -2.90442,-3.28098 -5.23827,-4.10404 -2.12477,-0.62967 -5.28067,-1.55393 -8.58382,-1.55406 -3.21097,-10e-5 -6.55948,0.90302 -9.34499,1.74139 -1.25229,0.46158 -2.69655,0.99215 -3.20943,1.17908 -0.51288,0.18692 -1.9689,0.83001 -3.2356,1.4291 -3.82955,1.8112 -4.1533,1.95567 -6.03798,2.69447 -1.95351,0.7658 -3.17075,1.02087 -3.93468,0.82455 z m 3.73537,-17.39183 c -0.11209,-0.2966 -0.17427,-0.59319 -0.13814,-0.6591 0.2176,-0.3971 1.32841,-6.50009 1.54865,-8.50845 0.54912,-5.00733 0.23139,-15.24608 -0.6359,-20.49216 -0.76744,-4.642 -3.04331,-9.41624 -5.9185,-12.41541 -2.46783,-2.57427 -6.66393,-4.72005 -11.10759,-5.68016 -1.68496,-0.36407 -2.1792,-0.38337 -3.44376,-0.13458 -0.93589,0.18412 -1.56012,0.20684 -1.7049,0.062 -0.40662,-0.4066 -0.0925,-1.54175 0.56096,-2.02741 2.12282,-1.57766 10.67221,0.81186 15.26955,4.26772 2.81819,2.11848 5.45406,5.82172 7.14984,10.04505 1.48013,3.68633 2.134,8.3835 2.37685,17.0744 0.18131,6.48825 -0.052,9.86949 -1.00575,14.5789 -0.54366,2.68429 -0.72432,3.20047 -1.31929,3.76931 -0.8367,0.79996 -1.36044,0.83843 -1.63202,0.11984 z"
       id="path1528"
       sodipodi:nodetypes="scssssscssssssssssssscssssssssssscscssssssssssssssssssssssscssssccssssccsssssssssssccscssssssssssssssssssss" />
  </g>
</svg>
