<?xml version="1.0" encoding="UTF-8" standalone="no"?>
<!-- Created with Inkscape (http://www.inkscape.org/) -->

<svg
   width="300mm"
   height="309.61008mm"
   viewBox="0 0 300 309.61008"
   version="1.1"
   id="svg5"
   inkscape:version="1.1.1 (3bf5ae0d25, 2021-09-20)"
   sodipodi:docname="folhas 2.svg"
   xmlns:inkscape="http://www.inkscape.org/namespaces/inkscape"
   xmlns:sodipodi="http://sodipodi.sourceforge.net/DTD/sodipodi-0.dtd"
   xmlns="http://www.w3.org/2000/svg"
   xmlns:svg="http://www.w3.org/2000/svg">
  <sodipodi:namedview
     id="namedview7"
     pagecolor="#505050"
     bordercolor="#eeeeee"
     borderopacity="1"
     inkscape:pageshadow="0"
     inkscape:pageopacity="0"
     inkscape:pagecheckerboard="0"
     inkscape:document-units="mm"
     showgrid="false"
     showguides="false"
     inkscape:zoom="0.5"
     inkscape:cx="46"
     inkscape:cy="567"
     inkscape:window-width="1920"
     inkscape:window-height="1016"
     inkscape:window-x="0"
     inkscape:window-y="27"
     inkscape:window-maximized="1"
     inkscape:current-layer="layer1" />
  <defs
     id="defs2" />
  <g
     inkscape:label="Layer 1"
     inkscape:groupmode="layer"
     id="layer1"
     transform="translate(484.5476,808.37152)">
    <g
       id="g32853"
       transform="matrix(1.1080026,0,0,1.1080026,68.672467,104.16972)">
      <path
         id="path1532"
         style="fill:#617a3b;fill-opacity:1;stroke-width:0.264583"
         d="m -436.10566,-816.06699 c -1.73033,-0.0581 -3.37524,0.322 -5.00746,1.12552 -4.30969,2.12169 -6.54835,6.0997 -5.28857,9.39839 0.51279,1.34274 2.18131,2.92838 3.35122,3.18535 0.4179,0.0918 0.82753,0.27702 0.91053,0.41135 0.083,0.13432 0.37161,0.24442 0.64133,0.24442 0.38938,0 0.46397,0.15002 0.36327,0.7276 -0.0698,0.40018 -0.19071,1.5779 -0.26871,2.61742 -0.1247,1.66042 -0.0556,2.08256 0.56843,3.47316 0.8351,1.86084 2.30195,3.39182 3.74086,3.90469 0.56529,0.20146 1.32551,0.36907 1.68929,0.37206 0.8813,0.008 2.56691,-0.78097 3.6835,-1.72342 1.32331,-1.11683 4.366,-4.85013 7.24091,-8.88367 2.88689,-4.05043 3.73422,-5.55586 3.51504,-6.24666 -0.1683,-0.53035 -2.70941,-2.67795 -5.44362,-4.60023 -3.69162,-2.59548 -6.81217,-3.90901 -9.69602,-4.00598 z m 49.97989,2.8629 c -1.11797,-0.0416 -2.06414,0.15526 -2.8784,0.58444 -3.5437,1.86788 -3.96896,5.97231 -0.94567,9.12813 0.5639,0.58856 0.96842,1.28979 0.99943,1.73116 0.25998,3.75561 2.40554,7.26721 4.60952,7.54476 1.84693,0.23257 4.49792,-0.5143 4.49792,-1.26709 0,-0.18389 0.18785,-0.49001 0.41756,-0.68059 0.7206,-0.59804 1.64066,-2.7124 2.59726,-5.96863 1.02449,-3.48774 1.60493,-5.00735 2.00813,-5.25653 0.42831,-0.26466 0.31131,-1.33837 -0.19431,-1.78231 -0.25468,-0.22363 -0.76067,-0.49581 -1.12448,-0.60463 -0.36377,-0.1088 -1.6139,-0.64968 -2.77812,-1.20197 -3.00469,-1.42547 -5.34562,-2.15744 -7.20884,-2.22674 z m 20.78683,7.84447 c -1.30548,0.0995 -2.39255,0.55066 -3.30213,1.34927 -2.45398,2.15466 -2.21869,5.26272 0.59171,7.81349 0.7846,0.7121 1.34702,1.37422 1.24902,1.47175 -0.0975,0.0975 -0.20471,0.38338 -0.23773,0.63508 -0.0333,0.2517 -0.2318,1.05714 -0.44079,1.78956 -0.21191,0.74358 -0.29197,1.56152 -0.18087,1.85208 0.31771,0.83082 1.94858,2.24621 3.06337,2.65928 0.72422,0.26828 1.64703,0.33806 3.14193,0.2372 2.79551,-0.1886 2.77341,-0.18513 2.63242,-0.41342 -0.0673,-0.10884 0.29252,-0.45413 0.79944,-0.76739 1.78937,-1.10593 3.75396,-3.63183 5.30405,-6.81921 0.8133,-1.67244 1.44237,-3.29105 1.39837,-3.5972 -0.0959,-0.66561 -2.1813,-2.09619 -5.48338,-3.76153 -3.5772,-1.80409 -6.35961,-2.61482 -8.53541,-2.44896 z m 46.48243,1.9575 c -3.1926,-0.022 -4.50747,1.12244 -4.48448,3.90313 0.0172,2.05793 0.93964,4.01863 2.80604,5.96501 l 1.32291,1.37924 -0.97721,1.08159 c -1.51029,1.67169 -3.12219,5.77535 -2.26859,5.77535 0.16172,0 0.29403,0.16256 0.29403,0.36121 0,0.57187 0.95668,1.63769 1.90688,2.12442 0.6237,0.31941 1.28426,0.41109 2.32646,0.32248 1.57231,-0.13367 4.97377,-1.13131 5.44258,-1.59629 0.1587,-0.1574 1.39105,-0.94062 2.73884,-1.74098 1.34781,-0.80037 2.90584,-1.84328 3.46233,-2.31717 1.19809,-1.02023 3.17291,-3.82463 3.17291,-4.5062 0,-0.6327 -0.50538,-1.11281 -1.17768,-1.11982 -0.3588,-0.003 -1.34795,-0.95044 -2.92336,-2.79879 -1.30969,-1.53657 -2.85747,-3.18143 -3.43958,-3.65509 -2.53198,-2.06028 -5.36686,-3.15859 -8.20208,-3.17809 z m -90.27975,0.15401 c -1.15708,0.0581 -2.26523,0.32819 -3.30989,0.81079 -1.93238,0.89276 -2.58535,1.88661 -2.58535,3.94293 -0.003,2.40387 1.27085,5.17803 2.67425,5.82909 l 0.69144,0.32038 -0.51832,1.17202 c -0.30472,0.68887 -0.47442,1.54112 -0.41341,2.06809 0.0576,0.49305 0.003,0.8966 -0.12351,0.8966 -0.27861,0 1.23558,2.14156 2.06499,2.92076 0.3302,0.31017 1.05797,0.72707 1.61745,0.92654 1.33522,0.47612 1.44743,0.47154 3.12283,-0.11729 0.7869,-0.27659 1.48323,-0.45011 1.54821,-0.38552 0.2617,0.26173 7.8377,-7.54613 8.01761,-8.26304 0.44188,-1.76078 -3.72451,-7.17667 -6.6554,-8.65116 -2.13733,-1.07527 -4.20243,-1.567 -6.1309,-1.47019 z m -48.07096,12.14861 c -0.93289,0.0122 -1.83091,0.12136 -2.18696,0.32091 -1.27231,0.71313 -3.24467,3.83128 -3.25769,5.15006 -0.003,0.32743 -0.10459,0.59532 -0.22529,0.59532 -0.28652,0 -0.245,1.14088 0.0491,1.35548 0.12459,0.0909 -0.41121,0.31602 -1.19062,0.4997 -2.9323,0.69096 -4.65379,1.97347 -5.0953,3.79666 -0.4378,1.80811 0.77743,5.02544 2.53111,6.70039 1.73972,1.66163 5.39835,3.43048 8.55554,4.13668 0.29102,0.0651 1.61788,0.13195 2.94868,0.14883 2.61429,0.0332 4.88249,-0.5066 6.81559,-1.62211 1.66761,-0.96229 1.69963,-1.13308 0.83873,-4.49276 -1.80012,-7.02535 -2.88735,-10.73965 -3.52433,-12.0406 -0.80873,-1.65166 -2.82951,-3.89491 -3.86231,-4.2876 -0.49559,-0.18844 -1.46336,-0.27316 -2.39623,-0.26096 z m 81.07979,0.55396 c -3.1015,0.17526 -4.87733,1.91106 -4.89632,4.78422 -0.01,1.46264 -0.0367,1.52109 -0.70438,1.52135 -0.92818,0 -2.85967,0.69821 -3.49848,1.264 -0.2831,0.25082 -0.83693,0.89598 -1.23042,1.43351 l -0.71519,0.97719 -1.00616,-0.68369 c -1.30699,-0.8881 -2.93653,-1.06367 -4.69945,-0.50591 -1.30789,0.41384 -2.41027,0.94187 -1.98488,0.95086 0.10679,0.003 -0.0498,0.47297 -0.34882,1.04646 -0.4249,0.81475 -0.50509,1.30161 -0.3664,2.22673 l 0.17778,1.1839 -1.54718,0.19328 c -1.25201,0.15642 -1.71082,0.35735 -2.4076,1.05418 -0.72801,0.72803 -0.86096,1.05378 -0.86096,2.10841 0,1.66743 0.75687,2.94273 2.45877,4.14187 v 0 c 0.75759,0.53374 1.40357,0.97978 1.43558,0.99166 0.0314,0.0119 -0.01,-0.15095 -0.0904,-0.36224 -0.0811,-0.21127 0.18118,-0.98735 0.58237,-1.72445 1.6519,-3.03522 5.34961,-4.07421 8.07651,-2.26962 0.57679,0.38168 1.14261,0.63571 1.2573,0.5648 0.1147,-0.0709 0.36859,-0.61256 0.56378,-1.20404 0.50429,-1.52812 0.82677,-1.71579 1.89187,-1.09865 2.467,1.42941 7.40812,2.08703 11.30422,1.50378 2.40112,-0.35943 6.91515,-1.73347 7.64294,-2.32645 0.74941,-0.61063 0.14171,-4.8632 -1.12808,-7.89461 -2.28531,-5.45521 -5.63449,-8.11795 -9.9069,-7.87654 z m -47.5294,0.63098 c -0.4558,-0.0948 -1.68781,0.0235 -2.77813,0.26664 -1.07749,0.24022 -2.30981,0.50067 -2.73833,0.57878 -0.88739,0.16179 -0.96636,0.22 -2.91867,2.13889 -0.7892,0.77571 -1.68992,1.96633 -2.00144,2.64583 -0.31139,0.67948 -0.68297,1.48157 -0.82579,1.78232 -0.19871,0.4187 -0.54333,0.56118 -1.47175,0.60928 -1.9104,0.0989 -3.40273,1.12392 -4.02402,2.76365 -1.39922,3.69292 2.66361,7.6626 9.77252,9.54826 2.8367,0.75239 5.36853,1.51723 6.09213,1.8407 0.33301,0.14754 0.38897,-0.003 0.32298,-0.817 -0.0552,-0.67654 0.11547,-1.33826 0.52917,-2.05415 0.62971,-1.08976 1.52185,-1.56784 1.52185,-0.81544 0,0.22894 -0.0936,0.4165 -0.20772,0.4165 -0.11411,0 -0.42685,0.37124 -0.69506,0.82529 -1.31429,2.22499 0.91546,7.34177 5.21105,11.9574 v 0 c 0.7702,0.82761 1.58419,1.50431 1.80919,1.50431 0.58751,0 5.38499,-1.98541 6.82128,-2.8231 1.60761,-0.9375 4.35478,-3.58894 5.18366,-5.0033 0.5484,-0.93586 0.66114,-1.46537 0.65114,-3.06856 -0.0132,-2.21533 -0.3734,-3.4209 -1.4392,-4.8183 -1.15768,-1.51773 -2.79519,-2.35228 -4.69739,-2.39416 -1.80279,-0.0397 -1.96879,0.052 -4.62967,2.56365 -1.09302,1.03172 -1.76258,1.48516 -1.98438,1.34308 -1.2859,-0.82351 -3.77066,-1.11993 -5.11236,-0.60978 -0.6209,0.23592 -0.69395,0.21068 -0.57774,-0.19844 0.8514,-2.99781 1.30916,-5.0945 1.54617,-7.08123 0.1565,-1.31088 0.36838,-2.80056 0.47128,-3.30986 0.1025,-0.50932 0.0854,-1.46185 -0.0388,-2.11667 -0.12409,-0.65487 -0.32173,-1.69666 -0.43873,-2.3151 l -0.21238,-1.12448 -0.0734,-0.53279 c 0,-0.33819 -2.09283,-1.49947 -3.06803,-1.70222 z m 73.25135,2.04999 c -0.34634,0.0529 -0.66239,0.21823 -1.20354,0.53538 -0.64011,0.37508 -1.49471,1.11612 -1.89913,1.6464 -0.6894,0.90397 -0.72792,1.09048 -0.61441,2.9895 0.1143,1.91466 0.51556,3.07528 1.58387,4.5811 0.2531,0.35684 0.18582,0.6046 -0.36017,1.32292 -0.9502,1.24984 -1.54305,2.47647 -1.54305,3.18585 0.003,1.92674 2.97315,3.83204 6.21665,3.98787 1.01861,0.0489 2.03067,0.10367 2.24895,0.12195 0.21831,0.0183 0.15883,-0.0599 -0.13229,-0.17362 -0.49858,-0.19492 -0.49099,-0.21868 0.13229,-0.41394 0.36381,-0.11396 1.50326,-1.05444 2.53217,-2.08978 1.46839,-1.47749 2.16564,-2.46949 3.24115,-4.61108 0.75358,-1.50077 1.37043,-2.96442 1.37043,-3.25253 0,-1.69542 -7.12726,-7.07551 -10.18696,-7.68998 -0.66315,-0.13319 -1.0396,-0.19293 -1.38596,-0.14004 z m -37.01945,7.36441 c 0.23175,0.0251 0.32629,0.40344 0.1111,0.97359 -0.46418,1.22983 -0.0235,2.69526 1.14464,3.80648 0.56891,0.5412 1.03455,1.04846 1.03455,1.12707 0,0.41794 -1.05132,0.047 -1.65621,-0.58446 -1.35922,-1.41904 -1.939,-3.88877 -1.16221,-4.95113 0.20082,-0.27461 0.38907,-0.38655 0.52813,-0.37155 z m 51.82836,3.71658 c -0.71826,0.013 -1.37446,0.15859 -1.95699,0.44286 -2.3994,1.17094 -3.50208,4.49699 -2.24999,6.78563 0.15891,0.29104 0.26942,0.60267 0.24445,0.69247 -0.0243,0.0898 0.24252,0.4322 0.59272,0.76121 l 0.63664,0.5984 -1.21595,1.21542 c -0.66868,0.66871 -1.37726,1.60216 -1.57456,2.07431 -0.47292,1.1326 -0.45479,2.83149 0.0403,3.78891 0.65905,1.27442 3.16052,2.47764 6.0575,2.91351 v 0 c 4.48059,0.67382 8.48013,-0.90598 12.52688,-4.94802 1.3461,-1.34451 2.4474,-2.61036 2.4474,-2.81274 0,-0.59108 -1.44378,-2.42048 -3.6463,-4.62039 -4.51083,-4.50527 -8.79015,-6.94735 -11.90263,-6.89157 z m -54.71189,4.47259 c -0.69585,-0.0627 -1.40433,0.0676 -2.16887,0.38706 -2.50129,1.04513 -3.83498,3.78722 -3.06649,6.30452 0.11242,0.36806 0.0587,0.43997 -0.20773,0.27958 -0.30509,-0.18105 -0.30583,-0.14493 -0.01,0.22014 0.19479,0.23984 0.27694,0.5602 0.18294,0.7121 -0.0938,0.15189 -0.0451,0.27646 0.10903,0.27646 0.15409,0 0.28059,0.10356 0.28059,0.23048 0,0.12692 -0.46273,0.30493 -1.02783,0.39531 -1.06251,0.16992 -3.16806,1.6332 -3.19206,2.21848 -0.008,0.1819 -0.10277,0.33031 -0.21188,0.33023 -0.36608,0 -0.11081,3.66276 0.31732,4.55215 0.46349,0.96306 2.33243,2.64232 3.01635,2.70992 0.23998,0.0238 0.94067,0.18957 1.55649,0.36846 0.6159,0.17888 1.80642,0.42542 2.64583,0.54829 h 0.004 c 2.13061,0.31195 8.8963,0.33968 9.6852,0.0398 0.9651,-0.36698 1.32527,-1.79782 1.30326,-5.17541 -0.033,-5.02383 -1.29826,-8.71789 -3.89845,-11.38121 -0.7793,-0.7982 -1.54241,-1.45108 -1.6955,-1.45108 -0.15312,0 -0.84124,-0.35719 -1.52964,-0.79375 -0.7139,-0.45273 -1.39705,-0.7088 -2.09288,-0.77153 z m 23.33085,6.24406 c -0.20643,0.0156 -0.31662,0.0529 -0.27749,0.11629 0.0612,0.0989 -0.29917,0.42198 -0.80047,0.71776 -1.01219,0.59724 -1.89884,2.10796 -2.14665,3.65715 -0.1583,0.98978 -0.19201,1.01698 -1.29241,1.04076 -1.4682,0.0318 -3.42508,0.99116 -4.17959,2.04896 -0.48321,0.67747 -0.59688,1.19055 -0.59688,2.68926 0,1.55249 0.11986,2.05586 0.74158,3.11351 0.78279,1.33164 2.7323,3.03559 4.53149,3.95996 0.59211,0.30425 2.208,0.93967 3.59047,1.41232 3.05502,1.04447 3.64255,1.0373 4.37547,-0.0543 1.12969,-1.68228 3.1932,-11.76063 2.86131,-13.97434 -0.3058,-2.03952 -1.88388,-3.86414 -3.78478,-4.37597 -0.91739,-0.24702 -2.40271,-0.39812 -3.02205,-0.3514 z m 31.59861,9.61441 c -1.50299,0.013 -3.20935,1.14487 -4.90876,3.25665 l -0.79375,0.98649 -0.92605,-1.01181 c -0.50929,-0.55642 -0.80695,-0.82135 -0.66145,-0.5886 0.14552,0.23276 -0.0527,0.0989 -0.44027,-0.29765 -0.3877,-0.39653 -0.77491,-0.65117 -0.8599,-0.56587 -0.0851,0.0853 -0.15504,0.036 -0.15504,-0.10956 0,-0.14552 -0.14883,-0.27988 -0.33073,-0.29869 -0.18188,-0.0188 -0.8894,-0.11319 -1.572,-0.20929 -1.60739,-0.22624 -2.38283,-0.0151 -3.47832,0.94671 -0.49112,0.43114 -0.94906,0.72737 -1.01906,0.65786 -0.35582,-0.35576 -0.27657,3.44644 0.0966,4.6364 1.00502,3.2044 3.79241,7.0331 7.94941,10.91975 1.64118,1.53448 3.34145,3.12838 3.77804,3.5419 0.6414,0.60756 0.86058,0.68842 1.1431,0.42116 0.1923,-0.1819 0.45072,-0.33073 0.57412,-0.33073 0.1234,0 0.89286,-0.61124 1.70998,-1.35805 0.81708,-0.74681 1.56384,-1.27971 1.65983,-1.1839 0.0958,0.0958 0.60931,-0.51338 1.14102,-1.35393 2.65009,-4.18928 3.86765,-9.91973 2.76934,-13.03279 -0.9207,-2.60946 -3.66943,-5.04325 -5.67613,-5.02605 z m -72.26742,5.64152 c -1.8523,0.13068 -3.63717,1.74964 -4.24058,3.98373 -0.70599,2.61389 1.00279,9.74963 3.36312,14.04358 0.49487,0.90035 0.82319,1.71256 0.7312,1.80506 -0.0925,0.0925 0.037,0.48091 0.28734,0.86299 0.28448,0.43421 0.62013,0.64681 0.89553,0.5669 0.24231,-0.0703 1.78652,-0.49924 3.43133,-0.95343 3.068,-0.84722 5.10045,-1.72272 6.58304,-2.83498 0.46332,-0.3475 0.95216,-0.63148 1.08678,-0.63148 0.13449,0 0.91776,-0.8632 1.74046,-1.91823 0.8228,-1.05503 1.63377,-2.08425 1.80247,-2.28669 0.39931,-0.479 1.27278,-4.12583 1.27278,-5.33043 0.003,-1.54117 -1.01105,-3.2073 -2.36935,-3.89225 -0.64931,-0.32743 -1.51254,-0.59532 -1.91823,-0.59532 -0.40581,0 -0.73744,-0.1338 -0.73744,-0.29712 0,-0.20701 -0.10012,-0.21434 -0.33073,-0.0238 -0.18188,0.15039 -0.86654,0.48546 -1.52136,0.74467 -0.65489,0.25924 -1.80347,0.86077 -2.55227,1.33686 l -1.36118,0.86609 -0.17208,-0.91673 c -0.0946,-0.50408 -0.27596,-0.91622 -0.40307,-0.91622 -0.127,0 -0.4836,-0.40908 -0.79219,-0.90848 -0.7126,-1.15292 -2.63879,-2.43691 -4.00079,-2.66702 -0.26413,-0.0446 -0.53017,-0.0564 -0.79478,-0.0377 z m 23.08902,5.5521 c -1.84144,-0.0185 -3.46249,0.74808 -4.30776,2.13423 -0.60568,0.9933 -0.66095,2.97326 -0.11935,4.26953 0.2105,0.50467 0.30012,0.92681 0.19844,0.93792 -0.84072,0.092 -1.323,0.36105 -2.5952,1.44796 -1.83131,1.56453 -2.25179,2.20684 -2.4195,3.69488 -0.3169,2.81183 1.19083,4.9761 4.09122,5.87251 1.19891,0.37057 2.44295,0.47386 5.71905,0.47386 h 4.18732 l -0.15243,0.76068 c -0.0841,0.41839 -0.15195,1.66881 -0.15195,2.77916 v 2.01901 l -1.56474,0.60666 c -1.84391,0.71501 -3.73952,2.29431 -4.38372,3.65199 -0.42191,0.88853 -0.43104,1.45894 -0.0501,3.14709 0.14309,0.63442 1.46961,2.09769 2.81792,3.10885 0.80349,0.60259 1.8133,1.39973 2.2443,1.77147 l 0.74002,0.36483 c 0.93554,0.33443 3.35745,1.06598 5.09114,1.38131 v 0 c 1.01859,0.18529 2.65099,0.3475 3.62767,0.36071 1.81761,0.0243 6.95577,-0.90848 7.55044,-1.37097 0.74761,-0.58139 0.18026,-2.80156 -2.31664,-9.06147 -1.8511,-4.64082 -3.20643,-7.42471 -4.32892,-8.89246 -0.51523,-0.67374 -0.88249,-1.29879 -0.81651,-1.38907 0.0658,-0.0903 0.0483,-0.11221 -0.0388,-0.0491 -0.0874,0.0631 -0.84661,-0.23456 -1.68672,-0.66146 -2.28589,-1.1616 -4.62412,-0.96073 -5.9345,0.51004 -0.4986,0.55959 -1.21597,0.76615 -1.21597,0.35038 0,-0.40431 1.45415,-1.60805 2.43914,-2.01953 1.81531,-0.75827 4.58362,-0.26245 6.07611,1.08831 0.4255,0.38491 0.44801,0.32755 0.34573,-0.87488 -0.1845,-2.16823 -2.31926,-7.53787 -3.96256,-9.96838 -2.01279,-2.97723 -4.97412,-5.51379 -7.18923,-6.15776 -0.64228,-0.18671 -1.28064,-0.28014 -1.89445,-0.2863 z m 64.01263,4.73874 c -2.71145,-0.23368 -5.46383,1.04029 -6.87607,3.43339 l -0.8909,1.50998 -0.90588,-0.69144 c -0.5873,-0.44797 -1.35576,-0.7338 -2.18385,-0.81338 -1.26442,-0.12147 -1.29733,-0.10486 -3.18481,1.62729 -1.04892,0.96258 -2.02272,1.75027 -2.16422,1.75027 -0.1415,0 -0.42611,0.40415 -0.63251,0.89813 -0.3062,0.73327 -0.31832,1.16925 -0.0651,2.37609 0.17049,0.81301 0.39206,1.34536 0.49247,1.18287 0.11509,-0.18621 0.30617,-0.0625 0.51675,0.33539 0.7787,1.47103 3.05314,3.73171 7.47604,7.43003 2.5907,2.16633 5.4314,4.46969 6.3128,5.11855 1.5716,1.15692 2.16609,1.36623 2.7745,0.97721 0.16719,-0.10692 0.99574,-1.504 1.84124,-3.10473 0.84539,-1.60072 1.74582,-3.13703 2.00141,-3.41373 0.25591,-0.2767 0.39936,-0.60915 0.31938,-0.73898 -0.0803,-0.12986 -0.007,-0.40378 0.16328,-0.60875 0.1701,-0.20495 0.343,-0.64646 0.38499,-0.98081 0.0419,-0.33438 0.26024,-1.3221 0.48525,-2.19523 1.53101,-5.94148 0.15901,-11.63084 -3.21789,-13.34182 -0.84355,-0.42741 -1.74305,-0.67244 -2.64687,-0.75033 z m 44.75385,2.84736 c -3.0076,0 -4.57401,1.12528 -4.56303,3.27681 0.006,1.09773 0.76163,3.1069 1.4583,3.87676 0.33261,0.36743 0.2377,0.53295 -0.80819,1.40716 -1.50122,1.25484 -1.94726,2.12725 -2.22055,4.34599 -0.18171,1.47609 -0.13888,1.93456 0.25062,2.7037 0.6192,1.22264 1.56308,2.07605 2.81016,2.54042 2.32492,0.86575 6.72883,-0.32086 10.18543,-2.74402 1.21491,-0.85164 2.86409,-2.00625 3.66437,-2.56624 1.74192,-1.21875 2.8932,-2.46981 2.9032,-3.15384 0.009,-0.66701 -2.53895,-3.96123 -4.58216,-5.92314 -2.632,-2.52738 -5.62044,-3.7636 -9.09815,-3.7636 z m -21.10052,5.87561 c -2.12148,0.17592 -3.31288,1.07793 -4.46588,3.38275 -0.51599,1.03142 -0.87161,2.04898 -0.78962,2.26136 0.18502,0.48202 0.14819,0.4811 -1.26452,-0.0429 -1.77128,-0.65696 -5.12472,-0.61494 -6.44922,0.0811 -1.20909,0.63534 -1.84243,1.2783 -2.10323,2.13423 -0.0998,0.32742 -0.28601,0.59531 -0.41391,0.59531 -0.31491,0 0.64899,2.74312 1.43348,4.07985 0.98042,1.67042 2.69833,3.4915 4.52221,4.79301 2.07161,1.47828 6.54849,3.62902 8.99686,4.32273 2.55532,0.72398 4.04435,0.71388 4.96044,-0.0341 0.6314,-0.51552 0.81613,-1.03087 1.39785,-3.90107 0.7684,-3.79174 1.20705,-8.49365 0.88624,-9.50018 -0.1203,-0.37756 -0.45503,-1.51972 -0.74414,-2.53836 -1.0946,-3.85821 -3.21646,-5.86185 -5.96656,-5.63377 z m -52.94455,0.16848 c -0.66953,0.0398 -1.31162,0.19876 -1.87847,0.48988 -2.36958,1.21713 -4.16972,6.48184 -4.83793,14.14952 -0.28361,3.25501 0.0145,9.08113 0.54933,10.73578 0.22868,0.70742 0.41338,0.8599 1.0418,0.8599 0.4772,0 0.86444,-0.18703 1.03092,-0.49816 0.3802,-0.71056 0.54991,-0.74821 5.62239,-1.2392 2.51931,-0.24384 5.41399,-0.67199 6.43269,-0.95136 1.01861,-0.2794 2.0824,-0.54205 2.36368,-0.58394 0.77512,-0.11536 2.50936,-2.20887 3.40807,-4.11345 0.68289,-1.44716 0.8183,-2.09052 0.91829,-4.36562 0.1497,-3.41964 -0.15174,-4.53554 -1.58285,-5.8596 l -1.11416,-1.03095 -2.5714,0.0279 -2.57194,0.0279 -0.16639,-1.35652 c -0.28559,-2.32508 -0.41722,-2.75151 -1.16893,-3.78838 -1.21119,-1.67079 -3.4666,-2.62324 -5.4751,-2.50373 z m -43.75187,8.88161 c -0.16431,0 -0.33296,0.0164 -0.51779,0.0486 -1.37362,0.23995 -3.06975,1.29037 -3.91914,2.42777 -0.40511,0.54244 -0.87726,1.13604 -1.04955,1.31878 -0.17241,0.18278 -0.3923,0.5783 -0.48731,0.879 -0.12121,0.38193 -0.30568,0.49176 -0.61238,0.36484 -4.7693,-1.9739 -7.30073,-1.70683 -8.68783,0.91622 -0.85191,1.61142 -0.8368,3.70647 0.0398,5.4591 1.41417,2.82726 4.25513,5.3622 11.58483,10.33528 v 0 c 1.78097,1.20828 3.49544,2.20163 3.81064,2.20763 0.47199,0.009 0.92723,-0.66286 2.57813,-3.80544 2.07578,-3.95148 2.67559,-5.67574 2.96828,-8.53178 0.0943,-0.92113 0.2481,-1.67484 0.3421,-1.67484 0.22241,0 0.16701,-1.26543 -0.0651,-1.49757 -0.0983,-0.0981 -0.17828,-0.5738 -0.17828,-1.0573 0,-1.06053 -0.73715,-3.07465 -1.75236,-4.78629 -0.41039,-0.69196 -0.71707,-1.35591 -0.68109,-1.47587 0.0359,-0.11999 -0.0595,-0.14124 -0.21188,-0.047 -0.1524,0.0942 -0.82865,-0.13692 -1.50273,-0.51366 -0.71461,-0.39931 -1.16591,-0.56444 -1.65883,-0.56743 z m 136.56582,4.146 c -0.54371,-0.023 -1.04741,0.0648 -1.46089,0.28321 -2.06,1.08786 -3.79827,3.84979 -4.07417,6.47298 l -0.14262,1.35392 -1.71721,0.16021 c -3.3699,0.31467 -4.83021,1.68375 -4.83021,4.52736 0,2.01279 0.89207,3.96084 2.22726,4.86379 1.2264,0.82931 3.70448,1.57358 6.18567,1.85777 3.11551,0.35689 5.98562,0.34999 6.35052,-0.0151 0.1747,-0.17463 0.31781,-0.58034 0.31781,-0.90176 0,-1.04063 1.82409,-7.86008 2.15749,-8.06616 0.2252,-0.13915 0.32852,-1.19576 0.33952,-3.47679 0.0156,-3.14425 -0.013,-3.32115 -0.71159,-4.3801 -1.01677,-1.54143 -3.01044,-2.61003 -4.64158,-2.67943 z m -76.72607,15.44764 c -1.21002,0.10401 -2.36143,0.82804 -3.14449,2.03555 -0.40942,0.63132 -0.81257,1.20774 -0.89557,1.28053 -0.0831,0.0728 -0.26294,0.53044 -0.39946,1.017 l -0.24805,0.88469 -0.66146,-0.5085 c -1.05778,-0.81259 -2.94259,-1.44349 -4.28138,-1.43349 -3.51581,0.0265 -6.74989,3.25853 -6.19911,6.19445 0.0942,0.50245 0.54695,1.49599 1.00616,2.20814 0.84788,1.31484 7.76062,8.30646 8.21293,8.30646 0.13578,0 1.30895,0.90765 2.60654,2.01745 1.33932,1.14538 2.73093,2.10624 3.21892,2.2221 1.73353,0.4114 2.24565,0.30501 2.88976,-0.59947 0.5724,-0.80391 2.16312,-5.03211 3.01222,-8.00571 0.2077,-0.7276 0.50438,-2.66028 0.65887,-4.29482 0.60812,-6.43384 -0.94255,-10.24993 -4.55785,-11.21688 -0.40481,-0.10826 -0.81467,-0.14216 -1.21803,-0.1075 z m -31.93447,0.45993 c -1.55628,0.12102 -2.84448,1.44941 -4.1057,4.1956 -0.8305,1.80846 -1.26005,2.30825 -1.48415,1.72445 -0.0875,-0.22831 -0.25807,-0.35438 -0.37828,-0.28009 -0.1202,0.0743 -0.29085,0.0167 -0.38084,-0.12816 -0.0896,-0.14486 -0.88021,-0.68398 -1.75699,-1.19785 -1.5449,-0.90543 -1.64266,-0.92673 -3.15486,-0.68318 -5.42028,0.87289 -7.31854,3.93343 -5.18623,8.36075 1.03539,2.14985 2.67393,4.39997 8.42274,11.56465 4.04508,5.04134 5.20534,6.23917 5.72831,5.91592 0.13541,-0.0837 0.3933,0.0251 0.57311,0.24186 0.43778,0.52745 1.14692,0.49808 1.64693,-0.0687 1.3635,-1.54556 6.28325,-11.77427 7.23056,-15.03267 0.61341,-2.11019 0.42177,-6.29584 -0.38343,-8.36795 -1.19661,-3.0792 -3.99767,-5.94268 -6.08698,-6.2229 -0.23397,-0.0314 -0.46186,-0.039 -0.68419,-0.0217 z m 45.41428,12.7894 c -0.4267,-0.047 -1.42206,0.0569 -2.55696,0.28369 -3.24639,0.6486 -4.4267,4.30371 -3.02409,9.36532 0.94729,3.4186 1.8709,4.8378 5.46529,8.39743 1.80009,1.78263 3.39638,3.24114 3.54759,3.24114 0.15121,0 1.37273,0.688 2.71404,1.52911 1.34141,0.84108 3.3846,1.93937 4.5408,2.44067 1.15621,0.50131 2.31916,1.18256 2.58435,1.51361 0.9561,1.19343 1.82666,0.62552 3.33674,-2.1761 2.11881,-3.93107 4.05021,-9.94756 4.50104,-14.02291 0.68828,-6.22184 -1.29651,-9.29175 -5.68701,-8.79687 -1.5444,0.17407 -3.92901,1.36276 -5.33662,2.66031 -0.66109,0.60936 -1.1398,0.89267 -1.1498,0.68006 -0.009,-0.20045 -0.12872,-0.0852 -0.26561,0.2563 -0.24242,0.60507 -0.29298,0.57811 -1.98697,-1.05834 -1.89,-1.82567 -3.85522,-3.15277 -5.44772,-3.67831 -0.55779,-0.1841 -1.01391,-0.42566 -1.01391,-0.53692 0,-0.0503 -0.0789,-0.0825 -0.22116,-0.0982 z m 55.69065,9.40512 c -0.5136,0 -1.05383,0.12824 -1.81331,0.38703 -2.58112,0.87948 -4.38132,3.27411 -5.36094,7.13034 -0.29588,1.16445 -0.65701,2.11235 -0.80253,2.10735 -0.1455,-0.005 -1.30519,-0.53033 -2.5771,-1.16684 -1.9087,-0.95522 -2.57865,-1.1594 -3.83645,-1.16843 -1.67291,-0.0122 -3.46673,0.654 -5.08135,1.88775 -0.51729,0.39532 -1.01809,0.69361 -1.11311,0.66249 -0.27709,-0.0909 -1.06651,1.7647 -1.21181,2.8479 -0.2439,1.81869 1.56064,4.93167 5.01314,8.64701 0.84179,0.90582 1.53064,1.74982 1.53064,1.87587 0,0.12607 0.56557,0.55245 1.25677,0.9472 0.6913,0.39476 1.8964,1.1176 2.6784,1.60663 1.98821,1.24341 4.58277,2.01208 7.48067,2.21589 v 0 c 1.3611,0.096 3.60593,0.1347 4.98834,0.0868 2.0901,-0.0724 2.5882,-0.17317 2.95641,-0.59944 1.05249,-1.21854 2.19296,-9.13231 1.94096,-13.46843 -0.474,-8.15726 -1.91381,-12.61316 -4.39611,-13.60641 -0.65235,-0.26128 -1.139,-0.39238 -1.65262,-0.39325 z m -86.90217,2.24999 c -2.05098,0.0372 -3.7468,1.62068 -4.3062,4.29069 -0.5724,2.7323 0.14681,11.43461 1.48052,17.90949 0.39365,1.91101 0.8131,2.80443 1.58182,3.36931 v 0 c 0.61597,0.45223 1.20713,0.0511 3.96205,-2.68769 1.59758,-1.58811 3.01527,-2.81906 3.15018,-2.73577 0.13499,0.0833 0.16108,0.0146 0.0579,-0.15242 -0.10883,-0.176 0.65957,-1.3335 1.82726,-2.75281 3.21929,-3.91313 5.01605,-8.23857 4.52014,-10.88151 -0.10149,-0.54116 -0.52578,-1.36541 -0.94258,-1.83193 -0.68019,-0.76136 -0.91543,-0.85127 -2.30063,-0.87746 -0.8487,-0.0161 -1.8629,0.13181 -2.25361,0.32866 -0.64291,0.32385 -0.72586,0.30909 -0.87384,-0.1571 -0.2223,-0.70049 -2.53138,-2.7417 -3.76309,-3.3264 -0.73364,-0.34827 -1.45677,-0.50747 -2.14043,-0.49506 z m 19.71608,10.42725 c -2.57587,-0.003 -4.01793,1.20545 -4.98882,4.17804 -0.49861,1.52683 -0.59492,2.52928 -0.69093,7.19802 -0.1356,6.59405 0.24048,12.71801 0.83716,13.62863 0.35812,0.54647 0.66329,0.64728 2.20348,0.72707 0.9833,0.0509 2.08568,0.11523 2.44946,0.14264 1.2628,0.0951 4.11607,-0.50657 6.87917,-1.45055 2.85022,-0.97367 8.5185,-3.6699 8.7013,-4.13877 0.0562,-0.1442 0.80637,-0.98745 1.66706,-1.87378 4.19761,-4.32271 5.17289,-10.79384 1.98749,-13.18474 -2.17961,-1.6359 -3.95136,-2.35474 -6.15725,-2.49804 -2.11259,-0.13724 -2.34026,-0.0996 -6.72777,1.10641 l -1.19062,0.3271 -0.98547,-1.55183 c -1.20989,-1.90595 -2.28285,-2.60718 -3.98426,-2.6102 z m 40.72052,25.58915 c -0.29168,-0.003 -0.59159,0.0297 -0.89813,0.0966 -2.622,0.57235 -4.53687,3.70054 -5.14387,8.40311 -0.31491,2.43952 0.0217,7.30375 0.74258,10.73732 0.43881,2.08971 0.51776,2.21647 1.80816,2.90526 0.91961,0.49088 1.01486,0.49181 3.52486,0.0372 1.41891,-0.25699 3.25226,-0.63267 4.07366,-0.8351 0.82139,-0.20243 1.55646,-0.36793 1.63245,-0.36793 0.0765,0 -0.54327,0.68461 -1.37718,1.52135 -2.4732,2.48158 -2.67629,4.53388 -0.82889,8.3752 0.98819,2.05481 1.86433,3.09486 7.74112,9.18911 3.15672,3.27351 4.99875,4.99039 5.35213,4.99039 0.29641,0 1.25338,-0.4299 2.12648,-0.95446 4.75081,-2.85419 8.24277,-6.8965 11.13577,-12.89018 2.6095,-5.40652 2.53201,-10.42239 -0.20929,-13.53664 -1.5432,-1.75313 -3.34942,-2.61017 -5.50252,-2.61017 -1.69378,0 -2.29841,0.21961 -5.0746,1.8438 -0.51941,0.30383 -2.59832,3.32315 -2.59832,3.77344 0,0.50123 -0.61309,0.43553 -2.7373,-0.29406 -1.53188,-0.52615 -2.56672,-0.72041 -3.56772,-0.66971 -1.32119,0.0669 -1.37427,0.0463 -0.84079,-0.32557 3.3216,-2.31524 5.09032,-4.52009 6.08542,-7.58661 0.54461,-1.67801 0.56157,-1.93612 0.24288,-3.63752 -0.1887,-1.00724 -0.39002,-1.68963 -0.44804,-1.51617 -0.0622,0.18648 -0.32973,0.0299 -0.65474,-0.38343 -0.30239,-0.38439 -0.94295,-0.86286 -1.42317,-1.06352 -1.28299,-0.53605 -4.079,-0.45749 -5.84821,0.16433 -2.1271,0.74764 -2.31315,0.70665 -2.70217,-0.59531 -0.91604,-3.06618 -2.56881,-4.75512 -4.61057,-4.77076 z m -24.07759,7.58352 c -1.57369,0.0964 -3.10862,0.97573 -4.30567,2.51767 -1.06421,1.37067 -1.43063,1.48219 -2.51923,0.76893 -0.3592,-0.23535 -1.1471,-0.57581 -1.7503,-0.75652 -0.6032,-0.18071 -1.04161,-0.41717 -0.97462,-0.52557 0.18331,-0.29652 -1.43674,0.12128 -2.78484,0.71832 -1.4019,0.62084 -2.72683,2.03512 -3.17291,3.38687 -0.42611,1.29101 -0.17569,3.87927 0.46611,4.82037 0.27869,0.40854 0.96057,1.45748 1.51567,2.33061 1.1158,1.75495 7.13761,9.59712 7.7711,10.12031 0.60291,0.49802 0.86593,0.42402 2.68613,-0.7524 3.03311,-1.96035 7.09615,-6.75304 8.17936,-9.648 2.08039,-5.56054 0.38179,-11.7148 -3.53571,-12.81163 -0.5221,-0.14615 -1.05053,-0.20111 -1.57509,-0.16896 z m -28.33883,16.57263 c -0.50657,0.0251 -0.987,0.14853 -1.42526,0.37517 -1.77059,0.91559 -3.68041,3.87038 -4.75681,7.35976 -0.80759,2.61771 -1.27363,5.43526 -2.00142,12.10416 -0.9721,8.90656 -1.02287,9.90063 -0.68937,13.47568 0.32002,3.42926 0.72422,4.67143 1.62833,5.00589 1.63129,0.60349 11.68797,-1.52705 13.25655,-2.80863 0.18402,-0.15031 1.04918,-0.61797 1.92236,-1.03921 2.2553,-1.08796 4.8229,-2.88795 6.26628,-4.3925 2.4615,-2.5657 4.44728,-7.68305 4.44728,-11.48509 0.006,-5.58824 -2.98368,-9.67949 -7.07398,-9.67949 -1.2386,0 -1.75453,-0.1691 -1.42936,-0.51832 0.35557,-0.38193 0.28019,-0.38894 -0.19741,-0.018 -0.6881,0.53427 -2.15368,1.44999 -2.10169,1.202 0.0222,-0.10636 -0.0281,-0.37187 -0.1111,-0.59015 -0.0835,-0.21828 -0.22301,-0.98679 -0.30903,-1.70739 -0.2163,-1.80522 -1.08839,-3.48421 -2.5895,-4.98678 -1.5612,-1.56279 -3.31621,-2.37226 -4.83587,-2.29701 z m 10.94557,41.01867 c -0.77769,0.0327 -1.58731,0.23553 -2.41588,0.6315 -0.54568,0.2608 -0.99219,0.61921 -0.99219,0.79685 0,0.36131 -1.57255,1.85161 -1.98437,1.8805 -0.1455,0.0103 -0.73475,-0.21161 -1.30895,-0.493 -1.357,-0.6649 -4.33234,-0.51969 -5.38004,0.26252 -2.20109,1.64341 -2.39427,3.78471 -0.65577,7.26519 1.60711,3.21736 3.68906,5.8796 10.78124,13.78675 1.64341,1.83219 2.06619,1.74924 4.71858,-0.92604 2.4288,-2.44985 3.32513,-3.92491 4.14084,-6.81405 2.40379,-8.51435 -1.45955,-16.61911 -6.90346,-16.39022 z" />
      <path
         id="path1530"
         style="fill:#314c1c;fill-opacity:1;stroke-width:0.264583"
         d="m -389.08323,-802.20528 c -0.0968,0.0106 -0.24021,0.0916 -0.42995,0.24908 -0.82319,0.68321 -1.52098,2.49169 -1.64898,4.27416 -0.10452,1.45671 -0.0271,1.96254 0.43666,2.85202 0.30999,0.59476 0.56378,1.13602 0.56378,1.20251 0,0.0664 -0.49702,0.43418 -1.10432,0.81751 -2.76849,1.74767 -4.8333,4.33257 -5.90042,7.38663 -0.33459,0.95742 -0.66429,1.79756 -0.73327,1.86656 -0.069,0.069 -1.35749,-0.3552 -2.8634,-0.94208 -2.25131,-0.87736 -2.79921,-1.0057 -3.08303,-0.72191 -0.28379,0.28379 0.18418,0.54813 2.63449,1.48571 1.63898,0.62714 3.1121,1.30591 3.27369,1.50842 0.1615,0.20254 0.51876,0.37335 0.79375,0.38034 0.275,0.007 0.85738,0.17528 1.29397,0.37518 v 0 c 0.95631,0.43791 1.21647,0.46548 1.67018,0.17777 0.2404,-0.15243 -0.11218,-0.41632 -1.14308,-0.85577 l -1.49035,-0.6351 0.1137,-1.08263 c 0.18269,-1.74043 1.66473,-4.41089 3.42561,-6.17172 1.6306,-1.63063 5.22742,-3.73499 7.04403,-4.12118 0.80449,-0.17105 0.85008,-0.22796 0.47749,-0.60049 -0.37251,-0.37251 -0.55369,-0.35738 -1.90481,0.1597 -0.8213,0.31424 -1.53927,0.57152 -1.59629,0.57152 -0.0569,0 -0.35832,-0.49956 -0.66971,-1.11 -0.72872,-1.42836 -0.56468,-3.39723 0.45061,-5.4038 0.5511,-1.08987 0.67961,-1.69415 0.38912,-1.66243 z m -52.74095,0.52451 c -2.5803,0.22463 -5.60581,5.52045 -4.94234,9.04595 0.11589,0.61555 0.2948,1.33604 0.39738,1.60094 0.1634,0.42174 0.0749,0.4645 -0.70898,0.34366 -0.49242,-0.0759 -2.56191,-0.20899 -4.59923,-0.29559 l -3.70416,-0.15761 1.04801,0.54155 c 0.78349,0.40473 1.55088,0.54157 3.03909,0.54157 1.91849,0 10.40484,0.68305 11.55485,0.93017 0.44339,0.0953 0.59608,0.38471 0.7302,1.38131 0.24609,1.82846 1.23968,3.7574 2.53677,4.92684 0.8641,0.77904 1.18446,0.9372 1.35136,0.66714 0.14899,-0.24111 -0.0671,-0.58925 -0.67749,-1.09244 -0.49289,-0.40624 -1.19772,-1.36133 -1.56631,-2.12235 -0.6986,-1.44288 -1.17946,-3.63233 -0.79737,-3.63233 0.1216,0 1.6915,0.18933 3.48919,0.42116 3.11631,0.40185 4.55941,0.36219 4.55941,-0.12504 0,-0.1224 -0.62506,-0.29033 -1.38907,-0.37312 -0.76398,-0.0828 -3.71073,-0.402 -6.54843,-0.7095 -7.1777,-0.77783 -6.82411,-0.69776 -7.42022,-1.67537 -1.50489,-2.46798 0.33721,-7.57881 3.37241,-9.35757 0.9276,-0.54362 1.13712,-0.76658 0.78393,-0.83458 -0.16684,-0.0321 -0.337,-0.0398 -0.509,-0.0249 z m 74.3913,6.42699 c -1.23518,-0.065 -3.14968,1.44722 -3.14968,2.7001 0,0.35264 -0.1125,0.6413 -0.25011,0.6413 -0.13758,0 -1.65563,-0.64204 -3.37343,-1.42679 -4.13639,-1.88968 -5.10763,-2.17379 -5.92884,-1.73321 -0.61399,0.3293 -0.59145,0.35015 0.68884,0.64596 0.72761,0.16809 2.15641,0.67143 3.175,1.11879 1.01873,0.44733 2.92849,1.28984 4.24421,1.87221 1.31569,0.58238 2.68489,1.11382 3.04271,1.18081 1.1756,0.2203 1.31204,0.1982 1.31204,-0.21135 0,-0.41674 -0.14145,-0.49455 -1.38906,-0.7679 -0.79939,-0.17518 -0.93186,-0.73419 -0.43355,-1.82779 0.29819,-0.65471 0.7923,-0.991 2.21949,-1.51 0.70371,-0.25591 0.74038,-0.31859 0.32247,-0.55243 -0.14118,-0.079 -0.30361,-0.12041 -0.48009,-0.1297 z m 46.84366,2.13165 c -0.18391,-0.003 -0.38425,0.0811 -0.70797,0.25064 -1.953,1.0228 -3.31938,3.26929 -3.21167,5.28081 l 0.0729,1.36684 -2.63448,0.21188 c -4.87799,0.39243 -10.08925,-0.0818 -16.92195,-1.53995 -4.36679,-0.93192 -9.48243,-1.16356 -12.02873,-0.54468 -1.0282,0.2499 -2.13553,0.433 -2.46084,0.4067 -1.4274,-0.11518 -1.51029,-0.0566 -1.09397,0.77774 0.2707,0.54255 0.52644,0.73001 0.87384,0.63923 0.27019,-0.0707 0.94623,0.10491 1.50223,0.39016 l 1.01078,0.51832 0.029,2.34868 c 0.0325,2.66943 0.65741,4.36816 2.03192,5.52473 0.9131,0.76833 1.09207,0.7991 1.53686,0.26303 0.2672,-0.32147 0.25799,-0.39688 -0.0496,-0.39688 -0.42381,0 -1.58271,-1.15419 -2.02573,-2.01745 -0.51599,-1.00565 -0.8658,-3.09954 -0.69091,-4.13461 0.1379,-0.81624 0.2625,-0.98251 0.64389,-0.86146 0.27461,0.0872 0.53192,-0.004 0.61392,-0.21704 0.0949,-0.24736 -0.36584,-0.60904 -1.41283,-1.1095 -0.85449,-0.40839 -1.50061,-0.82791 -1.4366,-0.93224 0.3235,-0.52353 6.70882,-1.12117 8.21602,-0.76895 9.9291,2.32044 14.86834,2.85652 22.66683,2.45877 3.04091,-0.15507 3.37344,-0.22024 3.37344,-0.66043 0,-0.26858 -0.16574,-0.48834 -0.36844,-0.48834 -0.45561,0 -0.6899,-0.57385 -0.6899,-1.68981 0,-1.68199 2.38366,-4.39561 3.86075,-4.39561 0.4382,0 0.42815,-0.0433 -0.0915,-0.40722 -0.25624,-0.17946 -0.42328,-0.27019 -0.60719,-0.27336 z m -92.49097,0.15142 c -0.57823,0 -2.13683,2.30224 -2.31564,3.42045 l -0.16846,1.05474 -2.65205,-0.16124 c -2.34098,-0.14261 -2.63305,-0.11282 -2.49235,0.25373 0.1202,0.31335 0.72224,0.45596 2.45465,0.58291 1.26238,0.0925 2.89078,0.26694 3.61836,0.38759 1.82552,0.30273 2.24896,0.31623 2.24896,0.0708 0,-0.43942 -0.66151,-0.84645 -1.37562,-0.84645 -0.6889,0 -0.74105,-0.0753 -0.74105,-1.06453 0,-0.87325 0.18923,-1.26976 1.05474,-2.20866 1.0102,-1.09596 1.10754,-1.48931 0.36846,-1.48931 z m -45.74141,1.81435 -1.05783,0.13901 c -0.58208,0.0763 -2.36805,0.21072 -3.96875,0.29922 -3.42429,0.18928 -11.37634,1.44672 -14.94896,2.36368 -3.41929,0.8776 -12.74328,4.06985 -13.18987,4.51599 -0.0508,0.0509 -0.0138,0.21947 0.0822,0.37468 0.22622,0.36605 0.0188,0.41275 2.7001,-0.60463 3.84421,-1.45862 8.77475,-3.02842 11.73004,-3.73414 3.2245,-0.76999 9.5033,-1.77366 9.8304,-1.57147 0.12319,0.0761 0.22427,0.31586 0.22427,0.53277 0,1.10032 2.0462,3.73208 3.49231,4.49119 0.88649,0.46543 1.0056,0.46704 1.0056,0.0135 0,-0.19895 -0.48289,-0.68141 -1.07278,-1.07178 -1.1145,-0.73753 -2.63189,-2.82884 -2.63189,-3.62767 0,-0.59093 0.37661,-0.68731 3.55793,-0.91054 1.9076,-0.13385 2.85367,-0.3256 3.43959,-0.69713 z m 145.83915,7.4254 c -0.38139,0.13515 -0.0663,0.4913 1.5875,1.79472 2.08582,1.64383 3.488,3.13852 5.6591,6.03115 3.3061,4.40465 4.35117,6.79776 6.18929,14.17278 2.36918,9.50576 3.34446,12.01888 5.87147,15.12983 0.67969,0.83674 1.32728,1.52135 1.43918,1.52135 0.6155,0 0.3883,-0.67299 -0.663,-1.96371 -2.566,-3.15032 -3.2095,-4.77372 -5.579,-14.07613 -1.95069,-7.65791 -2.91896,-10.05014 -5.72987,-14.15417 -2.89279,-4.22365 -7.68517,-8.84182 -8.77467,-8.45582 z m -106.51752,0.81441 c -0.60401,0 -0.26659,0.76812 0.56481,1.28622 0.47292,0.29475 1.56893,1.25542 2.43552,2.13477 l 1.57562,1.59887 -0.59222,0.73121 c -1.14408,1.41277 -1.70199,2.96116 -1.56837,4.35168 0.0824,0.85804 0.29247,1.41584 0.62476,1.6588 0.2753,0.20135 0.53578,0.33055 0.57878,0.28734 0.0431,-0.0432 -0.0622,-0.63738 -0.23411,-1.32035 -0.38928,-1.54591 -0.0628,-2.8012 1.07024,-4.11395 l 0.79944,-0.92604 1.25987,1.38906 c 0.94289,1.0397 1.35646,1.32805 1.64176,1.14411 0.30049,-0.19368 -0.22293,-0.89392 -2.46652,-3.29954 -2.70402,-2.89922 -5.04267,-4.92218 -5.68958,-4.92218 z m 31.92106,2.44481 c -0.11195,0.0492 -0.24027,0.16007 -0.37415,0.34313 -0.77679,1.06236 -0.19701,3.53209 1.16221,4.95113 0.60489,0.6315 1.65621,1.0024 1.65621,0.58446 0,-0.0786 -0.46564,-0.58587 -1.03455,-1.12707 -1.16861,-1.11122 -1.60882,-2.57665 -1.14464,-3.80648 0.25824,-0.68419 0.0707,-1.09265 -0.26508,-0.94517 z m -3.37397,7.36235 c -1.02788,0.0388 -1.94884,0.3693 -2.96262,1.04076 -1.25658,0.83233 -2.76204,3.15428 -2.49544,3.84887 0.2287,0.59602 0.37187,0.47836 1.05936,-0.87231 1.56681,-3.07808 4.53205,-4.0958 7.13134,-2.44739 1.36472,0.8655 1.76218,0.97007 1.76218,0.46302 0,-0.51348 -2.26597,-1.82131 -3.42408,-1.97662 -0.3738,-0.0501 -0.7281,-0.0693 -1.07074,-0.0563 z m 15.68225,1.09399 c -0.64939,0.0825 0.0794,0.63881 4.22505,3.22461 0.83672,0.52192 1.52136,1.05376 1.52136,1.18235 0,0.12856 -0.40521,0.51157 -0.9007,0.85111 -0.49551,0.33954 -1.07992,0.92041 -1.29812,1.29087 -0.5129,0.87017 -0.81439,2.91166 -0.58497,3.95637 v 0 c 0.1133,0.51583 0.34306,0.81907 0.62167,0.81907 0.3815,0 0.4305,-0.27239 0.35451,-1.99937 l -0.0879,-1.99935 0.96584,-0.91107 c 1.19491,-1.12694 2.02708,-1.36393 2.82567,-0.8046 0.62431,0.43728 1.54151,0.57092 1.54151,0.22376 -0.003,-0.26913 -3.30821,-2.63652 -6.1991,-4.43899 -1.4954,-0.93248 -2.59234,-1.44476 -2.98535,-1.39476 z m -47.05501,0.24443 c -0.28024,-0.13185 -0.89857,0.34366 -1.36064,1.15961 -0.57539,1.0159 -0.79796,2.49645 -0.43045,2.86391 0.39809,0.39822 0.61751,0.1234 0.61751,-0.77463 0,-0.92717 0.69958,-2.48822 1.11519,-2.48822 0.11449,0 0.20772,-0.18756 0.20772,-0.4165 0,-0.18881 -0.0559,-0.30023 -0.14933,-0.34417 z m 77.47278,1.43817 c -0.37941,0.0209 -0.71083,0.11395 -1.14668,0.28834 -0.78711,0.31499 -1.61417,0.39079 -3.22926,0.29559 -3.6649,-0.216 -7.7021,1.28349 -9.42631,3.50107 -1.43359,1.84386 -1.93622,2.88891 -1.74871,3.63596 0.16819,0.67011 0.22833,0.61468 1.08003,-1.00047 0.49588,-0.9403 1.43166,-2.1985 2.07996,-2.79569 2.04312,-1.88188 6.25994,-3.05096 11.00294,-3.05096 2.95362,0 4.21145,0.30146 6.25597,1.49965 1.4478,0.8485 1.94193,0.83341 1.13223,-0.0346 -0.89591,-0.96041 -2.76995,-1.86002 -4.56613,-2.19213 -0.62706,-0.11591 -1.0546,-0.16761 -1.43404,-0.14673 z m -58.42331,4.57747 c -0.12112,-0.0402 -0.17571,0.0768 -0.2532,0.32092 -0.1827,0.57568 1.07204,2.23655 2.12495,2.81275 0.32088,0.17561 0.78171,0.6226 1.02423,0.99269 0.24238,0.37008 0.55747,0.67284 0.69969,0.67284 0.53609,0 0.22844,-0.98801 -0.53539,-1.71979 -0.43648,-0.41825 -0.79375,-0.84767 -0.79375,-0.95396 0,-0.5104 2.43523,-1.09934 3.97031,-0.96014 0.8722,0.079 1.58594,0.0597 1.58594,-0.0429 0,-0.99243 -3.38241,-1.15253 -5.24981,-0.24855 l -1.18337,0.57309 -0.73795,-0.8258 c -0.34274,-0.38359 -0.53049,-0.58094 -0.65165,-0.62116 z m 43.42734,5.42965 c -0.098,0 -0.15039,0.0378 -0.15039,0.12094 0,0.30147 0.83505,1.04331 2.27893,2.02414 1.2536,0.85151 3.27676,2.49227 4.49586,3.6463 1.85851,1.75914 2.24268,2.01941 2.37609,1.6087 0.52969,-1.63092 0.79544,-2.0143 1.72444,-2.48822 0.55539,-0.28337 1.50398,-0.51523 2.10789,-0.51523 1.44608,0 3.98528,1.35377 5.04259,2.68873 0.91577,1.15636 0.914,1.1553 1.12238,0.61237 0.24162,-0.62955 -1.59305,-2.45237 -3.38944,-3.36775 -1.08151,-0.55104 -1.99427,-0.81922 -2.80398,-0.82322 -1.61099,-0.008 -3.54049,0.93805 -3.9553,1.93942 l -0.31729,0.76534 -2.29032,-1.97766 c -2.64451,-2.28327 -5.55521,-4.22846 -6.24146,-4.23386 z m -36.96518,6.5314 c -0.13991,0.0193 -0.22688,0.17327 -0.22688,0.45783 0,0.30205 -0.33184,0.59576 -0.90794,0.8041 -1.09879,0.39732 -2.29518,1.71019 -3.21789,3.53105 -0.55769,1.10143 -0.65289,1.56654 -0.5116,2.50888 0.2046,1.36454 0.67127,1.27749 0.67127,-0.12607 0.004,-1.67899 2.38459,-5.07722 3.55637,-5.07722 0.3882,0 0.67437,1.1453 0.67437,2.7006 0,0.71993 0.10335,1.01325 0.33073,0.93795 0.45083,-0.14939 0.60513,-4.86834 0.17624,-5.3852 -0.21206,-0.25553 -0.40476,-0.3711 -0.54467,-0.35192 z m 5.63997,14.83114 c -0.1973,-0.0441 -0.32462,0.0404 -0.44752,0.23926 -0.0924,0.14957 0.10901,0.50279 0.44752,0.78497 0.70659,0.58883 0.7562,0.60092 1.23298,0.29868 0.27112,-0.1719 0.18621,-0.35494 -0.36637,-0.78962 -0.40206,-0.31628 -0.66934,-0.48919 -0.86661,-0.53329 z m 57.45487,1.95593 c -0.26315,0.0505 -0.7195,0.38354 -1.39009,1.01079 -0.7267,0.67974 -1.62367,1.37369 -1.99316,1.54204 -0.5633,0.25651 -0.67146,0.48117 -0.66146,1.38803 v 0 l 0.01,1.08209 0.37362,-0.85989 c 0.2055,-0.47294 0.49183,-0.8599 0.63614,-0.8599 0.1442,0 0.98898,-0.67299 1.8774,-1.4955 1.0931,-1.01198 1.52839,-1.58247 1.34668,-1.76424 -0.0455,-0.0455 -0.11174,-0.0602 -0.19947,-0.0434 z m -61.09808,2.67271 c -0.0691,-0.0358 -0.14854,0.029 -0.25114,0.13177 -0.29919,0.29977 -0.31647,0.84359 -0.0951,3.00654 0.21619,2.10716 0.20172,2.66377 -0.0703,2.75436 -0.92318,0.30777 -3.11549,2.80424 -3.79769,4.32427 -0.74359,1.65756 -1.17801,4.70443 -0.8077,5.66944 0.29131,0.75925 0.67747,-0.0943 0.67747,-1.51619 0.008,-2.53664 1.49026,-5.64023 3.37396,-7.06779 0.9792,-0.74205 0.88731,-0.87019 1.52289,2.12545 0.34671,1.63409 0.53121,2.05052 0.90951,2.05052 0.45521,0 0.45495,-0.082 -0.0109,-2.03708 -0.26689,-1.12027 -0.60777,-3.23363 -0.75758,-4.69635 -0.37116,-3.62334 -0.48604,-4.63762 -0.6935,-4.74494 z m 57.20892,2.87941 -0.28371,1.85208 -0.28369,1.85209 -1.21594,0.30025 c -2.3576,0.58311 -3.67422,1.6039 -3.67422,2.8484 v 0.80822 l 0.84026,-1.01907 c 0.89242,-1.08268 2.13773,-1.74718 3.27422,-1.74718 0.6608,0 0.6876,0.0557 0.6036,1.24902 -0.0718,1.02074 -0.003,1.26667 0.37515,1.34255 0.38701,0.0777 0.46302,-0.10581 0.46302,-1.11723 0,-0.66551 0.11359,-1.20975 0.2522,-1.20975 0.2445,0 0.1792,-1.42923 -0.1814,-3.96875 z m 57.93444,0.45733 c -0.22702,0.0101 -0.54814,0.11769 -1.10329,0.3297 -2.5459,0.97229 -4.05196,3.41881 -3.75068,6.09214 l 0.13438,1.19062 h -1.91876 c -2.4793,0 -3.5724,0.22366 -3.5724,0.73123 0,0.32811 0.25149,0.37021 1.38906,0.23358 0.76391,-0.0918 2.54619,-0.16899 3.9605,-0.16899 2.13,-0.003 2.54595,-0.0675 2.42467,-0.38344 -0.0805,-0.20979 -0.40373,-0.41812 -0.71882,-0.46302 -0.41421,-0.059 -0.6403,-0.35404 -0.81598,-1.06505 -0.5493,-2.2233 1.22949,-4.90905 3.65609,-5.52008 1.12501,-0.28329 1.21497,-0.3591 0.85527,-0.71882 -0.17987,-0.17984 -0.313,-0.26779 -0.54004,-0.25787 z m -27.79157,1.32758 c -0.6119,0.032 -1.23497,0.13663 -1.85468,0.31678 -1.93019,0.5611 -4.08326,2.58292 -4.59507,4.31446 -0.23609,0.79872 -0.47437,1.12448 -0.82267,1.12448 -0.26961,0 -0.55351,0.16533 -0.63151,0.36793 -0.0997,0.25966 0.26266,0.48773 1.22836,0.77258 1.7477,0.51551 1.76681,0.51636 1.76681,0.0822 0,-0.20053 -0.26554,-0.54102 -0.59013,-0.75655 l -0.59015,-0.39169 0.79634,-1.55858 c 0.6336,-1.2405 1.07881,-1.72839 2.18281,-2.3895 1.6137,-0.96653 3.22279,-1.27627 4.79298,-0.92345 1.1243,0.2526 3.19773,1.499 3.19773,1.92236 0,0.12573 0.11909,0.22891 0.26458,0.22891 0.48332,0 0.27348,-0.95797 -0.33073,-1.5105 -1.24356,-1.13708 -2.97899,-1.69537 -4.81467,-1.59938 z m -68.96066,0.26974 c -0.53842,0.039 -1.05267,0.15063 -1.50741,0.34055 -0.98499,0.41148 -2.43861,1.61522 -2.43861,2.01953 0,0.41577 0.71737,0.20921 1.21597,-0.35038 1.3144,-1.47527 3.64805,-1.67204 5.95104,-0.50176 1.52611,0.77547 2.24967,0.73626 1.35496,-0.0734 -1.12425,-1.01745 -2.96067,-1.55157 -4.57595,-1.43454 z m -8.28579,5.82705 c -0.39185,-0.0298 -0.79344,-0.0254 -1.12499,0.0201 -1.4279,0.19571 -3.60587,1.10691 -4.19097,1.75339 -0.7158,0.791 0.0148,0.88567 1.25161,0.16227 2.49079,-1.45685 4.77496,-1.41777 6.94119,0.11832 1.182,0.83826 1.72751,0.96782 1.72751,0.41032 0,-0.4535 -2.14518,-1.83441 -3.5388,-2.27788 -0.29167,-0.0928 -0.67371,-0.15676 -1.06555,-0.18656 z m 69.07019,1.32085 c -0.64598,0.21532 -0.34954,0.70623 1.15446,1.91254 2.34391,1.87997 4.32882,4.33496 7.0931,8.77258 1.2019,1.93019 1.32027,2.24954 1.10588,2.99725 -0.36229,1.26307 -2.01567,3.27224 -4.23177,5.14284 -5.01322,4.23151 -7.50162,7.21755 -9.75085,11.70057 -0.66259,1.3208 -0.74454,1.65661 -0.43304,1.77612 0.2236,0.0858 0.50538,-0.079 0.6744,-0.39481 0.33938,-0.63416 0.74281,-0.57788 3.50572,0.49093 2.21488,0.8568 3.79998,2.32653 4.02506,3.73258 0.32602,2.03616 0.40441,2.24976 0.71212,1.94199 0.40188,-0.40187 0.29478,-2.28327 -0.18243,-3.20598 -0.64611,-1.24955 -2.48877,-2.61078 -4.67569,-3.45406 -1.13429,-0.43743 -2.18556,-0.79531 -2.33576,-0.79531 -0.4208,0 -0.34619,-0.20563 0.70384,-1.94974 1.72548,-2.86623 2.90208,-4.28133 5.55469,-6.67919 4.08379,-3.6916 6.32219,-5.99607 6.87967,-7.08277 l 0.51419,-1.00303 3.07216,4.88291 c 4.08201,6.48785 6.24257,10.82442 10.96988,22.01828 0.79889,1.89177 2.33601,5.27664 3.4158,7.52255 1.5022,3.12447 2.03618,4.01096 2.27378,3.77341 0.23749,-0.23754 0.20442,-0.53282 -0.14108,-1.2573 -0.43331,-0.90871 -0.42995,-0.99663 0.0946,-2.18228 1.07681,-2.43438 2.81327,-3.42702 5.48545,-3.13574 3.70142,0.40344 5.57779,1.55996 6.93809,4.27519 0.88231,1.76096 0.93226,1.81039 1.01026,1.01132 0.1797,-1.83481 -2.09124,-4.52501 -4.60952,-5.46013 -1.803,-0.66955 -4.55382,-0.86656 -6.0911,-0.43616 -1.39661,0.391 -3.15333,1.94323 -3.42511,3.02617 -0.0922,0.36751 -0.24445,0.66664 -0.33745,0.66664 -0.22471,-0.003 -1.33491,-2.42252 -4.9289,-10.74457 -4.2899,-9.93359 -6.36876,-13.94179 -11.09856,-21.40077 -6.48639,-10.22916 -7.60116,-11.78112 -10.27017,-14.29369 -1.31979,-1.24235 -2.52227,-2.21816 -2.67168,-2.16834 z m 45.11352,1.37975 c -0.8454,0.21217 -0.50673,0.49163 1.28106,1.05834 0.80042,0.25368 2.30865,0.81105 3.35174,1.23867 l 1.89653,0.77774 -0.54002,1.2206 c -0.63539,1.43651 -0.56136,3.91642 0.15865,5.30871 0.2535,0.49033 0.64479,0.84802 0.92759,0.84802 0.4689,0 0.46738,-0.0441 -0.0408,-1.07125 -0.6787,-1.37178 -0.87256,-3.10962 -0.47956,-4.30051 0.4638,-1.40525 0.84292,-1.61033 1.97662,-1.06971 0.7028,0.33512 1.03469,0.37814 1.25109,0.16174 0.3712,-0.37121 -1.82309,-1.50897 -6.09369,-3.1595 -2.04639,-0.79091 -3.25347,-1.1222 -3.68919,-1.01285 z m -116.86881,7.05538 c -0.0806,0.0456 -0.11888,0.15955 -0.11888,0.33952 0,0.2105 0.65061,0.81465 1.44592,1.34254 1.69529,1.12533 6.45345,6.02277 7.70496,7.93028 0.4781,0.72874 1.18753,2.12865 1.57612,3.11092 0.43702,1.10463 0.85868,1.78594 1.10588,1.78594 0.2712,0 0.35449,-0.17251 0.26149,-0.52917 -0.1106,-0.4231 -0.008,-0.52917 0.51107,-0.52917 1.24971,0 2.17908,0.74515 3.02927,2.42933 0.54271,1.07524 0.88847,1.50963 1.02526,1.28828 0.3588,-0.58057 -0.34317,-2.21218 -1.44796,-3.36518 -0.87501,-0.91324 -1.30075,-1.14501 -2.38384,-1.2976 -1.3171,-0.18552 -1.32001,-0.18796 -2.1735,-1.95749 -0.97121,-2.0138 -3.42691,-4.83172 -5.61052,-6.43837 -0.80989,-0.5959 -2.13797,-1.77438 -2.95177,-2.61845 -1.10945,-1.15075 -1.73175,-1.62825 -1.9735,-1.49138 z m 49.15098,4.32224 -0.56893,0.54826 c -0.51972,0.5002 -0.58907,0.94867 -0.79738,5.15938 -0.18949,3.8286 -0.16555,4.67701 0.14314,4.99867 0.32581,0.33914 0.37206,0.33083 0.37206,-0.0661 0,-0.76565 0.52753,-0.50091 0.54779,0.2744 0.0164,0.64381 0.0446,0.66662 0.24596,0.19794 0.36391,-0.84667 0.29803,-1.62685 -0.16949,-2.01489 -0.37881,-0.31435 -0.4113,-0.7974 -0.2589,-3.80285 0.096,-1.89344 0.24421,-3.85943 0.33023,-4.36872 z m 86.59266,0.65833 c -0.0424,0.0359 -0.0681,0.12176 -0.0868,0.24858 -0.052,0.35382 0.28811,1.16229 0.83561,1.98697 2.0771,3.1283 3.04963,5.6937 4.50154,11.87627 1.40469,5.98215 3.71135,8.95797 8.37675,10.80553 1.22029,0.48323 2.28931,0.53932 2.19831,0.11575 -0.028,-0.13078 -0.89608,-0.5665 -1.92908,-0.9684 -3.4661,-1.34858 -5.65822,-3.51663 -6.89312,-6.81717 -0.3013,-0.80547 -0.95826,-3.25882 -1.45986,-5.45185 -0.9931,-4.34184 -2.35505,-7.5888 -4.41885,-10.53788 -0.71678,-1.02409 -0.99722,-1.36533 -1.12448,-1.2578 z m -89.4705,25.25686 c -0.0778,0.0359 -0.1346,0.17875 -0.20929,0.44752 -0.0955,0.34364 -0.4767,1.48849 -0.84749,2.54352 -0.5707,1.62396 -0.76676,1.91823 -1.27796,1.91823 -0.78941,0 -2.5177,1.89878 -2.5177,2.76624 0,0.35655 0.13407,0.94194 0.29766,1.30122 0.26371,0.57867 0.37185,0.6196 0.95033,0.35605 0.743,-0.33853 2.85007,-4.30223 3.75947,-7.07244 0.47759,-1.45508 0.50323,-1.74366 0.18243,-2.06447 -0.16042,-0.16039 -0.25961,-0.23175 -0.33745,-0.19587 z m -2.5182,5.78726 c 0.1117,0.0769 8e-5,0.53941 -0.39532,1.34564 -0.39941,0.81423 -0.82065,1.48053 -0.93585,1.48053 -0.40762,0 -0.20148,-0.99171 0.386,-1.8588 0.49831,-0.73544 0.83346,-1.04426 0.94517,-0.96737 z m 25.91728,8.66457 c -0.11938,0.0442 -0.16309,0.22913 -0.0672,0.53123 0.16578,0.52253 0.11271,0.5387 -1.10641,0.33333 -1.9675,-0.33139 -3.19149,-0.19802 -4.53718,0.49453 -1.25749,0.64709 -3.49076,3.08165 -3.49076,3.80545 0,0.57983 0.53258,0.20296 1.95027,-1.37975 1.7299,-1.93112 2.691,-2.32532 5.15938,-2.11667 2.10772,0.17817 2.40122,0.3709 2.41123,1.56374 0.004,0.6504 0.6129,1.25685 0.93689,0.93277 0.18571,-0.18572 -0.44329,-3.48708 -0.7338,-3.85147 -0.2078,-0.26066 -0.40307,-0.35737 -0.52245,-0.31316 z m -28.12179,11.02932 c -0.1556,0.0396 -0.26337,1.48947 -0.27337,3.57187 -0.0109,3.33833 -0.0598,3.64998 -1.02163,6.54791 -0.93811,2.82639 -1.01981,3.32193 -1.14983,6.97167 -0.12599,3.53782 -0.0969,3.91985 0.29146,3.83646 0.36632,-0.0786 0.448,-0.6318 0.53899,-3.66438 0.0609,-2.02522 0.27463,-4.14472 0.49403,-4.89479 0.21291,-0.7276 0.70151,-2.37839 1.08572,-3.668 0.55181,-1.85205 0.69215,-2.85268 0.66714,-4.7625 -0.0353,-2.72372 -0.24601,-4.03675 -0.63251,-3.93824 z m 66.38613,1.2397 c -0.083,-0.0127 -0.0897,0.0485 -0.0331,0.18191 2.3712,5.58524 2.78723,7.06384 3.01273,10.7084 l 0.16537,2.67218 -1.02992,0.1664 c -2.10518,0.34023 -4.8556,1.94381 -6.90189,4.02352 -1.768,1.79689 -2.35382,2.76934 -1.66812,2.76934 0.14589,0 1.11548,-0.89485 2.1544,-1.9885 2.0321,-2.13932 4.77258,-3.76338 6.57479,-3.89642 0.92138,-0.068 0.92482,-0.064 1.10122,1.25471 0.0972,0.7276 0.19018,2.09682 0.20619,3.04271 0.0161,0.94588 0.14756,2.19604 0.29146,2.77812 0.14388,0.58209 0.3742,1.98512 0.5121,3.11817 0.1378,1.13308 0.45797,2.71682 0.71107,3.51967 l 0.45993,1.45987 -0.69144,0.58134 c -1.00079,0.84109 -1.53067,2.08637 -1.53067,3.59773 0,0.98081 0.11983,1.39274 0.46302,1.59266 v 0 c 0.25469,0.14835 0.49001,0.2735 0.52401,0.27752 0.0331,0.004 -0.0111,-0.51266 -0.0982,-1.1493 -0.19301,-1.40806 0.22802,-2.79053 1.09813,-3.60804 l 0.64905,-0.60979 0.35708,0.85008 c 0.29959,0.7126 0.4087,0.78796 0.6754,0.46665 0.25321,-0.30509 0.1777,-0.69885 -0.37052,-1.93271 -1.28738,-2.89766 -2.09256,-7.54988 -2.35127,-13.5878 -0.0592,-1.38245 -0.1678,-2.69214 -0.2408,-2.91042 -0.0733,-0.21828 -0.20069,-1.5875 -0.28268,-3.04271 -0.167,-2.94915 -0.53562,-4.53649 -1.75752,-7.56748 -0.53578,-1.32927 -1.07103,-2.2179 -1.50895,-2.50476 -0.24915,-0.16322 -0.40849,-0.25021 -0.49143,-0.26305 z m -37.29903,9.70381 c -0.29506,0.0534 -0.96083,0.92004 -1.56631,2.12648 -2.0424,4.06977 -4.49437,8.29329 -5.97275,10.28724 -1.28202,1.729 -1.47114,2.10839 -1.04905,2.10839 0.28302,0 0.83262,-0.41672 1.22113,-0.92605 0.723,-0.94797 1.35104,-1.13265 2.23914,-0.65733 0.5266,0.28184 1.18954,2.20168 0.91414,2.6474 -0.092,0.14216 -0.09,0.37795 0,0.52348 h 0.004 c 0.29181,0.47204 0.64744,0.28051 0.82992,-0.44649 0.27342,-1.08955 -0.42698,-2.76572 -1.41488,-3.38585 -0.46731,-0.29337 -0.8499,-0.59869 -0.8599,-0.67849 -0.006,-0.0798 1.01735,-1.9848 2.27325,-4.23334 2.2275,-3.98814 3.53724,-6.6285 3.53724,-7.13031 0,-0.18047 -0.0572,-0.25294 -0.15555,-0.23513 z m -14.11385,22.3733 c -0.10637,0.0932 -0.2516,0.3969 -0.50644,0.97308 -1.20931,2.73386 -3.47882,10.73036 -3.96513,13.97072 l -0.22479,1.49603 0.94827,-0.42632 c 2.96868,-1.33422 3.93972,-4.31544 2.39313,-7.34891 l -0.51779,-1.01494 0.66712,-2.18694 c 0.3669,-1.20288 0.89874,-2.7269 1.18134,-3.38635 0.3498,-0.815 0.44421,-1.38689 0.29662,-1.78594 -0.0986,-0.26641 -0.166,-0.38364 -0.27233,-0.29043 z m -2.11617,9.34672 c 0.45892,0 0.83365,2.18882 0.54108,3.16415 -0.15452,0.51507 -0.63723,1.35361 -1.07281,1.86293 l -0.79169,0.92605 -0.0109,-0.73742 c -0.0148,-1.01267 1.06038,-5.21571 1.33427,-5.21571 z m -4.72218,33.23466 c -0.0802,-0.0164 -0.18065,0.0109 -0.29559,0.0822 -0.30059,0.18671 -0.2377,0.55303 0.35449,2.0624 l 0.71985,1.83554 -0.55189,0.90538 c -0.53081,0.87067 -0.7769,3.10809 -0.385,3.50004 0.36111,0.36103 0.62476,-0.16073 0.62476,-1.23661 0,-1.07087 0.69162,-2.44927 0.94674,-1.88671 0.36179,0.79809 0.63309,1.03912 0.88468,0.78755 0.29991,-0.29995 0.0372,-1.12143 -1.22369,-3.83026 -0.44019,-0.94589 -0.84627,-1.86502 -0.90226,-2.04224 -0.0322,-0.10139 -0.0919,-0.16095 -0.17209,-0.17727 z" />
      <path
         id="path23313"
         style="fill:#3d5f1f;fill-opacity:1;stroke-width:0.999999"
         d="m -1464.418,-2949.9277 c -0.1389,0.01 -0.2886,0.044 -0.4472,0.1132 -0.4232,0.186 -0.9081,0.605 -1.4141,1.2969 -2.9359,4.0152 -0.7446,13.3496 4.3926,18.7129 2.2862,2.3868 6.2597,3.7886 6.2597,2.209 0,-0.2971 -1.7599,-2.2143 -3.9101,-4.2598 -4.4168,-4.1999 -6.0806,-9.7385 -4.3262,-14.3867 0.854,-2.2627 0.4178,-3.7281 -0.5547,-3.6855 z m -13.1992,27.9394 c -3.8849,0.1467 -7.3656,1.3958 -11.1973,3.9336 -4.7492,3.1458 -10.4392,11.9217 -9.4316,14.5469 0.8644,2.2527 1.4055,1.808 4.0039,-3.2969 5.9218,-11.6337 17.129,-15.4802 26.9531,-9.25 5.158,3.2712 6.6602,3.6664 6.6602,1.75 0,-1.9407 -8.5643,-6.8837 -12.9414,-7.4707 -1.4128,-0.1893 -2.7519,-0.262 -4.0469,-0.2129 z m -119.0273,4.9766 c -1.1808,0.052 -3.1614,1.7664 -4.6895,4.4648 -2.1747,3.8396 -3.016,9.4354 -1.6269,10.8242 1.5046,1.5051 2.3339,0.4664 2.3339,-2.9277 0,-3.5043 2.6441,-9.4043 4.2149,-9.4043 0.4327,0 0.7851,-0.7089 0.7851,-1.5742 0,-0.7136 -0.2113,-1.1347 -0.5644,-1.3008 -0.1324,-0.062 -0.2845,-0.09 -0.4531,-0.082 z m 335.7793,131.4668 c -0.125,-0.027 -0.2727,-0.026 -0.4375,0.01 -0.9948,0.1918 -2.7187,1.4508 -5.252,3.8203 -2.7466,2.5691 -6.1367,5.1919 -7.5332,5.8282 -2.129,0.9695 -2.5378,1.8186 -2.5,5.2461 l 0.037,4.0898 1.4121,-3.25 c 0.7767,-1.7875 1.8589,-3.25 2.4043,-3.25 0.545,0 3.7379,-2.5436 7.0957,-5.6523 4.1314,-3.8248 5.7766,-5.981 5.0899,-6.668 -0.086,-0.086 -0.1909,-0.1425 -0.3164,-0.1699 z m -159.5254,28.7051 c -0.7824,-0.02 -1.5592,0 -2.3223,0.051 -2.035,0.1474 -3.9786,0.5693 -5.6973,1.2871 -3.7228,1.5552 -9.2168,6.1048 -9.2168,7.6329 0,1.5714 2.7113,0.7907 4.5958,-1.3243 4.9678,-5.5758 13.7879,-6.3195 22.4921,-1.8964 5.768,2.9309 8.5027,2.7827 5.1211,-0.2774 -3.718,-3.3648 -9.4961,-5.33 -14.9726,-5.4726 z"
         transform="scale(0.26458333)" />
    </g>
  </g>
</svg>
