<?xml version="1.0" encoding="UTF-8" standalone="no"?>
<!-- Created with Inkscape (http://www.inkscape.org/) -->

<svg
   width="143.37437mm"
   height="336.02338mm"
   viewBox="0 0 143.37437 336.02338"
   version="1.1"
   id="svg5"
   inkscape:version="1.1.1 (3bf5ae0d25, 2021-09-20)"
   sodipodi:docname="folhas 1.svg"
   xmlns:inkscape="http://www.inkscape.org/namespaces/inkscape"
   xmlns:sodipodi="http://sodipodi.sourceforge.net/DTD/sodipodi-0.dtd"
   xmlns="http://www.w3.org/2000/svg"
   xmlns:svg="http://www.w3.org/2000/svg">
  <sodipodi:namedview
     id="namedview7"
     pagecolor="#505050"
     bordercolor="#eeeeee"
     borderopacity="1"
     inkscape:pageshadow="0"
     inkscape:pageopacity="0"
     inkscape:pagecheckerboard="0"
     inkscape:document-units="mm"
     showgrid="false"
     showguides="false"
     inkscape:zoom="0.5"
     inkscape:cx="-40"
     inkscape:cy="530"
     inkscape:window-width="1920"
     inkscape:window-height="1043"
     inkscape:window-x="1920"
     inkscape:window-y="0"
     inkscape:window-maximized="1"
     inkscape:current-layer="layer1" />
  <defs
     id="defs2" />
  <g
     inkscape:label="Layer 1"
     inkscape:groupmode="layer"
     id="layer1"
     transform="translate(708.16774,730.53159)">
    <g
       id="g32848"
       transform="matrix(0.93788169,0,0,0.93788169,-39.537098,-34.942788)">
      <path
         id="path17259"
         style="fill:#314c1c;fill-opacity:1;stroke-width:0.999999"
         d="m -2135.4297,-2753.4336 c -1.7023,-1.052 -14.4431,4.3814 -20.4238,8.709 -6.0374,4.3691 -12.7735,10.2863 -12.7735,11.2207 0,1.7319 4.2183,-0.4679 11.379,-5.9316 7.068,-5.3931 11.4691,-7.6832 21.371,-11.1231 1.4083,-0.4892 1.6624,-2.1239 0.4473,-2.875 z m -123.2558,1.3789 c -5.8209,0 -7.7602,0.5249 -14.6446,3.9707 -9.1623,4.5858 -12.1643,7.2784 -10.4375,9.3594 0.929,1.1193 1.8767,0.6833 5.2149,-2.3984 6.5525,-6.0496 11.4938,-9.0641 15.8066,-9.6426 6.0892,-0.8167 26.1145,6.744 31.8399,12.0215 2.3394,2.1566 4.0381,4.2675 3.7773,4.6914 -0.2623,0.424 -2.1604,1.0864 -4.2188,1.4726 -5.0868,0.9543 -7.3103,2.278 -6.6621,3.9668 0.4558,1.1885 1.1243,1.2086 4.2129,0.127 2.019,-0.707 5.7664,-1.5949 8.3301,-1.9746 2.6321,-0.3897 4.9051,-1.3227 5.2188,-2.1426 0.3065,-0.7986 0.1217,-1.4512 -0.4122,-1.4512 -0.5343,0 -2.6214,-1.8263 -4.6367,-4.0566 -7.1108,-7.8709 -21.6533,-13.9434 -33.3886,-13.9434 z m 33.3984,39 c -1.1637,0 -11.3399,8.0307 -11.3399,8.9492 0,0.4873 -0.311,1.7113 -0.6914,2.7188 -0.5091,1.3506 0.2684,1.0439 2.9629,-1.168 2.0096,-1.65 5.0213,-4.0468 6.6914,-5.3262 2.7067,-2.0714 4.1296,-5.1738 2.377,-5.1738 z m -105.9785,28.416 c -0.7318,-0.2124 -1.8895,0.6645 -4.3809,3.0899 -7.3217,7.1287 -17.2169,23.9878 -24.0605,40.9941 l -3.6211,9 -7.9004,0.5527 c -4.5967,0.3228 -9.2789,1.2871 -11.2012,2.3047 -6.5835,3.4857 -12.812,11.2358 -16.2109,20.1758 -0.5061,1.3562 -0.7584,2.4668 -0.543,2.4668 1.9707,0 3.864,-1.9054 5.4453,-5.4805 4.4958,-10.1637 13.5537,-16.5195 23.543,-16.5195 5.5393,0 5.7725,0.1017 5.1621,2.25 -3.0924,10.8848 -3.9121,15.8301 -2.8047,16.9375 0.6478,0.6475 1.3306,0.9826 1.5195,0.7442 0.1886,-0.2382 1.5589,-5.1553 3.045,-10.9278 5.4444,-21.1472 18.3099,-47.5549 28.2754,-58.0371 3.8743,-4.0749 5.0206,-5.9158 4.3554,-6.9922 -0.1829,-0.2959 -0.3791,-0.4877 -0.623,-0.5586 z m 33.582,34.9727 c -1.7806,0.1149 -5.2354,1.5487 -10.4434,4.3086 -6.552,3.4722 -11.4697,9.9323 -9.25,12.1523 1.567,1.567 1.539,1.5871 3.1446,-2.2558 1.517,-3.631 10.6401,-9.9903 11.3359,-7.9024 0.6199,1.8589 3.8336,0.3149 5.6113,-2.6953 1.4882,-2.5194 1.3822,-3.7226 -0.3984,-3.6074 z m -40.5976,64.293 c -0.6303,0.2067 -1.3001,1.2513 -2.6426,3.5214 -1.3969,2.3623 -5.9727,8.3469 -10.168,13.2969 -14.2976,16.8688 -35.4381,47.974 -35.5137,52.25 -0.055,3.2058 2.7944,0.6287 5.8575,-5.2949 1.859,-3.595 3.8839,-6.3698 4.5,-6.168 1.9373,0.635 5.6145,6.8934 5.6523,9.6094 0.03,2.5038 0.088,2.5299 1.5,0.6621 2.211,-2.9229 1.8082,-4.9604 -1.9551,-9.8906 l -3.4238,-4.4863 9.4082,-13.1641 c 5.1742,-7.2401 11.5527,-15.6751 14.1738,-18.7461 l 4.7656,-5.584 0.6446,16.9063 c 0.7479,19.5941 2.7343,30.0039 6.3789,33.4277 l 2.4219,2.2754 -0.8809,-3.0742 c -0.4838,-1.6905 -0.6242,-3.3321 -0.3066,-3.6485 0.3163,-0.3163 2.9028,-0.5742 5.748,-0.5742 10.4988,0 19.7564,6.8144 32.2734,23.7617 3.7856,5.1254 4.7917,5.9702 5.5332,4.6446 1.0409,-1.8596 -0.235,-3.8308 -10.1289,-15.6485 -3.5644,-4.2578 -8.5557,-9.0719 -11.0918,-10.6992 -5.7395,-3.6831 -15.3777,-6.316 -20.2168,-5.5215 -4.2678,0.7007 -4.2495,0.7435 -5.832,-13.0703 -2.1762,-18.9973 -0.9281,-31.2567 3.8828,-38.1348 2.7897,-3.9875 2.8388,-4.2366 1.1172,-5.7949 -0.4226,-0.3825 -0.7571,-0.6598 -1.0566,-0.7969 -0.2248,-0.1027 -0.4306,-0.1275 -0.6406,-0.059 z m -68.4102,85.7988 c -1.1269,0.019 -2.8045,0.3095 -4.8203,0.6836 -2.5391,0.4712 -6.0125,1.3164 -7.7207,1.8769 -2.1174,0.6943 -3.9698,0.6901 -5.8164,-0.012 -6.2438,-2.374 -16.5782,0.015 -16.5782,3.832 0,1.9408 0.059,1.9411 4.8653,-0.09 3.1986,-1.3508 5.7889,-1.8245 7.5566,-1.3809 2.6434,0.6635 2.5876,0.7498 -3.3183,5.1895 -6.044,4.543 -11.1036,9.7823 -11.1036,11.4961 0,2.0505 2.8112,0.699 6.5469,-3.1465 6.285,-6.4701 14.7215,-11.5787 22.377,-13.5508 4.5573,-1.174 9.2495,-2.8736 9.5293,-3.9492 0.1871,-0.7165 -0.3907,-0.9684 -1.5176,-0.9492 z m 81.3594,5.3867 c 0.219,0.8946 0.1915,1.631 -0.1582,2.3691 0.3497,-0.7381 0.3772,-1.4745 0.1582,-2.3691 z m -0.1582,2.3691 c -0.3497,0.7382 -1.0216,1.4781 -2.0899,2.377 1.0683,-0.8989 1.7402,-1.6388 2.0899,-2.377 z m 1.4785,2.2071 c -0.1744,0.01 -0.3582,0.065 -0.541,0.1562 0.3656,-0.1819 0.7308,-0.2207 1.0312,-0.035 -0.1502,-0.093 -0.3158,-0.1303 -0.4902,-0.1211 z m -2.2422,2.3242 c -0.1172,0.4336 -0.1086,0.85 0.088,1.168 -0.1965,-0.318 -0.2051,-0.7344 -0.088,-1.168 z m -0.8262,6.7461 c -0.4252,1.2527 -0.8114,3.118 -1.0918,5.1152 0.2804,-1.9972 0.6666,-3.8625 1.0918,-5.1152 z m -1.0918,5.1152 c -0.2804,1.9973 -0.4551,4.1265 -0.4551,5.9043 0,-1.7778 0.1747,-3.907 0.4551,-5.9043 z m -76.5976,5.3906 c -0.4931,-0.3897 -1.3852,0.6205 -3.5703,3.67 -11.9642,16.6961 -18.9925,34.3685 -21.7969,54.8027 -0.6777,4.9374 -0.6645,4.9739 1.3027,3.1934 1.2597,-1.1399 2.2294,-3.7091 2.6406,-7.002 0.9978,-7.9847 1.6234,-8.5399 6.795,-6.0273 2.3841,1.158 5.808,3.3456 7.6093,4.8613 1.8014,1.5157 4.8191,3.5423 6.7051,4.5039 l 3.4297,1.748 -2.084,-2.9257 c -2.3493,-3.2996 -10.6181,-9.7299 -15.8887,-12.3555 -1.9249,-0.9589 -3.6119,-1.835 -3.748,-1.9473 -0.1364,-0.1122 0.8134,-3.3176 2.1094,-7.123 2.8433,-8.3498 8.1255,-18.8477 13.4648,-26.7559 2.5195,-3.7311 3.7546,-6.5487 3.4258,-7.8105 -0.1089,-0.4171 -0.2302,-0.702 -0.3945,-0.8321 z m -57.2735,38.9805 c -1.4653,0 -1.6465,0.3951 -3.5468,7.75 -0.6615,2.5604 -1.6803,4.25 -2.5606,4.25 -0.9891,0 -1.4609,1.074 -1.4609,3.3262 0,1.8302 -1.1247,6.0966 -2.5,9.4805 -2.8078,6.9109 -3.1039,9.1933 -1.1934,9.1933 0.7181,0 2.1808,-2.4508 3.25,-5.4453 1.0692,-2.9945 2.3931,-5.5822 2.9434,-5.75 1.7873,-0.5461 3.4715,6.5195 3.3808,14.1953 -0.064,4.125 -0.057,7.8375 0,8.25 h 0.016 c 0.2751,1.9935 2.0756,0.3629 3.1308,-2.834 1.4619,-4.4301 0.5313,-12.8516 -2.2402,-20.2597 l -2.0137,-5.377 2.1172,-7.1406 c 2.4975,-8.4263 2.5834,-9.6387 0.6777,-9.6387 z m 152.9102,5.3164 c -0.727,-0.026 0.4282,3.528 4.5801,15.6465 l 5.9121,17.2598 -2.6016,2.0449 c -1.4302,1.125 -3.5062,2.9875 -4.6133,4.1387 -2.3285,2.4204 -6.7643,11.3868 -6.7265,13.5937 0.03,1.7661 2.4611,-1.0548 7.2539,-8.418 1.7605,-2.7041 4.1954,-5.5583 5.4101,-6.3437 2.0671,-1.3367 2.2913,-1.2304 3.5,1.6484 0.9396,2.2358 1.6668,2.8381 2.67,2.2051 1.1496,-0.7252 1.0363,-1.8887 -0.6836,-6.9824 l -2.0645,-6.1094 h 6.207 c 5.376,0 7.0539,0.5004 12.5274,3.7383 5.8409,3.4554 11.9438,9.1465 14.8262,13.8262 1.0798,1.7531 1.197,1.6355 1.25,-1.2598 0.047,-2.5485 -0.9514,-4.1872 -4.9297,-8.1035 -7.2344,-7.1209 -15.229,-11.0791 -24.1895,-11.9727 l -7.3223,-0.7285 -3.5234,-10.2519 c -2.1819,-6.3473 -4.5319,-11.2583 -6.1699,-12.8965 -0.6193,-0.6193 -1.0702,-1.0267 -1.3125,-1.0352 z m -119.3984,43.4375 c 0.8227,2.137 1.3896,4.5653 1.6835,7.1328 -0.2939,-2.5675 -0.8608,-4.9958 -1.6835,-7.1328 z m 1.6835,7.1328 c 0.294,2.5675 0.3148,5.2737 0.045,7.9668 0.2698,-2.6931 0.249,-5.3993 -0.045,-7.9668 z m 151.8418,-3.5508 c -0.082,0.029 -0.183,0.038 -0.2343,0.094 0.051,-0.055 0.1534,-0.064 0.2343,-0.094 z m -0.3183,0.4258 c -0.01,0.081 -0.041,0.1382 -0.021,0.2383 -0.019,-0.099 0.015,-0.1581 0.021,-0.2383 z m 5.6875,12.9219 c 0,1.1029 -0.2379,2.4639 -0.6367,3.9277 0.3988,-1.4638 0.6338,-2.8248 0.6367,-3.9277 z m -4.4629,12.7149 c -0.7873,1.2592 -1.605,2.3122 -2.3848,3.0058 0.7798,-0.6936 1.5975,-1.7466 2.3848,-3.0058 z m -155.1797,4.1015 -1.209,2.25 c -1.4045,2.6136 -0.4516,5.0808 3.6699,9.5 2.5244,2.7065 8.1914,3.9172 8.1914,1.75 0,-0.55 -0.8773,-1 -1.9492,-1 -2.2601,0 -6.8436,-5.5881 -7.9453,-9.6855 z m 148.9981,8.0547 c -0.293,-0.1493 -0.6103,0.071 -1.0489,0.6074 -0.8031,0.9826 -0.5389,3.9938 0.9922,11.3379 1.7133,8.2262 2.0674,13.3259 1.9805,28.75 -0.086,15.5566 0.1375,18.75 1.3125,18.75 0.9838,0 1.4476,-1.2973 1.5156,-4.25 0.055,-2.3375 0.3949,-5.2968 0.7539,-6.5762 l 0.6543,-2.3281 2.1309,2.3281 c 1.1715,1.2794 3.0639,4.1262 4.2031,6.3262 l 2.0703,4 0.045,-3.3008 c 0.054,-4.0684 -1.8219,-7.7927 -5.8652,-11.6367 -2.8963,-2.7528 -3.0899,-3.3895 -3.0899,-10.1504 0,-7.0445 -3.0253,-27.6018 -4.746,-32.2539 -0.3466,-0.9367 -0.6153,-1.4542 -0.9082,-1.6035 z m -121.17,6.7422 c -0.5708,-0.07 -1.0079,0.1418 -1.4765,0.6152 -0.9332,0.9425 -0.8091,1.4322 0.5644,2.2071 0.9706,0.5476 2.3208,1.5966 3,2.332 0.6796,0.7353 1.5737,1.1347 1.9863,0.8847 1.5418,-0.9333 0.6665,-3.346 -1.8007,-4.9628 -0.998,-0.6538 -1.7025,-1.0061 -2.2735,-1.0762 z m -38.5918,1.9531 c -0.1848,-0.1848 -1.4511,0.9893 -2.8144,2.6094 -3.0206,3.5896 -5.0278,11.2911 -7.7364,29.6582 -1.1337,7.6901 -2.7003,17.5824 -3.4785,21.9824 -0.7785,4.4 -1.6706,11.375 -1.9804,15.5 l -0.5664,7.5 1.9746,-2.5 c 1.0919,-1.3831 2.0019,-4.0637 2.0019,-6 0.015,-1.925 0.4913,-6.2 1.0586,-9.5 1.8512,-10.7624 4.0093,-24.8393 5.0449,-32.9101 0.5583,-4.3501 2.3235,-11.9791 3.9239,-16.9551 1.6001,-4.9761 2.7574,-9.2 2.5722,-9.3848 z m -48.1504,5.9707 c -0.789,-0.026 -1.3726,2.9374 -4.6836,17.7637 l -3.457,15.4863 -4.2031,1.2168 c -7.3024,2.1143 -12.3838,6.1602 -16.5371,13.168 -1.6256,2.7428 3.6456,-0.015 6.7187,-3.5137 3.3733,-3.8421 7.5823,-6.3418 10.6778,-6.3418 2.3282,0 2.4713,0.9331 0.9765,6.3164 -0.8126,2.933 -0.7558,4.1838 0.2461,5.3906 1.1306,1.3619 1.4682,0.9976 2.5567,-2.7617 0.6897,-2.3831 2.4009,-9.7595 3.8027,-16.3906 1.4018,-6.631 3.3817,-15.7532 4.3984,-20.2734 1.5637,-6.9507 1.6363,-8.3958 0.4707,-9.3633 -0.4174,-0.3466 -0.7036,-0.6879 -0.9668,-0.6973 z m 249.9454,3.6934 c -0.7385,-0.1663 -1.379,1.072 -1.379,3.8359 8e-4,4.3108 4.133,13.5916 9.7832,21.9746 9.0045,13.3592 9.4974,14.6033 8.2188,20.7637 -0.6342,3.0528 -0.8571,6.8923 -0.498,8.5312 0.3601,1.6391 1.2949,2.9805 2.0761,2.9805 1.0689,0 1.4199,-1.4825 1.4199,-6 0,-3.3 0.4175,-6 0.9278,-6 0.5102,0 1.8719,1.2008 3.0273,2.6699 1.5569,1.9791 2.3932,2.3805 3.2266,1.5469 0.8334,-0.8335 0.4389,-2.0277 -1.5274,-4.6055 -1.4595,-1.9135 -2.6543,-3.9365 -2.6543,-4.4961 0,-0.5592 -0.6146,-1.3765 -1.3652,-1.8164 -0.7502,-0.4397 -2.1314,-2.3 -3.0683,-4.1328 -0.9374,-1.8327 -3.8628,-6.5578 -6.502,-10.5 -6.5461,-9.7786 -8.9904,-14.8509 -9.7187,-20.164 -0.3909,-2.852 -1.2284,-4.4216 -1.9668,-4.5879 z m -122.7422,38.3906 c -1.2095,0.422 -1.2338,2.017 -0.1172,7.8027 0.6622,3.4332 0.4024,3.8967 -5.3399,9.5 -6.0331,5.887 -8.0388,9.8381 -6.6679,13.1387 0.5983,1.4405 1.0211,1.1135 2.373,-1.8437 3.3899,-7.4135 10.2446,-14.3276 8.8262,-8.9024 -0.3783,1.4454 -0.03,2 1.2519,2 1.2753,0 1.9497,-1.0574 2.3946,-3.75 1.4207,-8.5953 -0.1335,-18.8485 -2.7207,-17.9453 z m -51.2246,22.9453 c -0.059,0.033 -0.136,0.054 -0.1778,0.1094 0.043,-0.058 0.1165,-0.076 0.1778,-0.1094 z m 184.1601,2.1113 c 0.055,0.066 0.1131,0.1191 0.1582,0.2168 -0.047,-0.1021 -0.1011,-0.1488 -0.1582,-0.2168 z m -178.1426,1.1387 c 1.4147,1.0058 2.9462,1.8804 4.3262,2.5039 -1.38,-0.6235 -2.9115,-1.4981 -4.3262,-2.5039 z m 4.3262,2.5039 c 1.38,0.6236 2.6085,0.9961 3.4199,0.9961 -0.8114,0 -2.0399,-0.3725 -3.4199,-0.9961 z m 171.3691,-0.7539 c -0.7436,2.4927 -2.7989,7.5051 -4.8613,12.1172 2.0624,-4.6121 4.1177,-9.6245 4.8613,-12.1172 z m -4.8613,12.1172 c -2.0624,4.6121 -4.1318,8.8239 -4.9004,9.7129 0.7686,-0.889 2.838,-5.1008 4.9004,-9.7129 z m -166.4394,-7.7539 c 0.1787,0.1111 -0.8008,1.932 -2.1778,4.0449 1.377,-2.1129 2.3565,-3.9338 2.1778,-4.0449 z m 2.2773,3.1582 c -1.0314,1.0843 -1.9497,2.2266 -2.7539,3.4199 0.8042,-1.1933 1.7225,-2.3356 2.7539,-3.4199 z m -2.7539,3.4199 c -0.8042,1.1933 -1.4943,2.4383 -2.0703,3.7285 0.576,-1.2902 1.2661,-2.5352 2.0703,-3.7285 z m -2.0703,3.7285 c -0.576,1.2902 -1.038,2.6251 -1.3848,4 0.3468,-1.3749 0.8088,-2.7098 1.3848,-4 z m -58.2852,28.8028 c -0.6779,-0.2982 -0.9069,0.6953 -1.3457,3.959 -0.3564,2.6493 -1.4411,9.9065 -2.4121,16.1269 l -1.7656,11.3106 -6.543,2.2011 c -9.2957,3.1284 -16.7483,7.9554 -26.8808,17.4082 l -8.8223,8.2285 -3.2207,-1.6074 c -3.9984,-1.9945 -14.046,-1.4136 -18.8906,1.0918 -1.8138,0.938 -3.1441,1.8579 -2.9551,2.0449 0.1886,0.1871 4.1685,-0.1028 8.8437,-0.6464 9.4187,-1.0954 14.4242,-0.1126 13.3731,2.6269 -1.3671,3.5626 2.7519,0.886 12.957,-8.4238 10.2871,-9.3843 20.362,-15.9481 27.7207,-18.0586 3.6257,-1.0398 4.0413,-0.4031 2.9883,4.5683 -0.46,2.1704 -1.1354,6.1072 -1.5059,8.7481 -0.6522,4.6696 -0.6137,4.7662 1.3985,3.5098 1.1376,-0.7107 2.0683,-1.8759 2.0683,-2.5879 0,-0.9951 0.4736,-1.0405 2.0489,-0.1973 1.1274,0.6034 3.2645,0.9567 4.75,0.7852 2.6086,-0.3013 2.5524,-0.3957 -1.6524,-2.8028 -4.2179,-2.4148 -4.3349,-2.6159 -3.7929,-6.5 2.0984,-15.0471 3.5859,-25.0441 4.7265,-31.7754 1.1597,-6.8437 1.1319,-7.9501 -0.2343,-9.3164 -0.3504,-0.35 -0.6274,-0.5939 -0.8536,-0.6933 z m 19.377,15.8652 c -2.1748,-0.8346 -1.6562,2.6371 1.6308,10.9121 1.6502,4.1536 3,7.9127 3,8.3555 0,0.4427 -1.0683,1.3778 -2.373,2.0762 -3.5754,1.9135 -6.627,8.1082 -6.627,13.4531 0,6.1192 1.5636,5.8715 2.9219,-0.4629 0.5992,-2.7922 1.5481,-5.9314 2.1074,-6.9766 1.3728,-2.5651 5.0175,-4.489 5.875,-3.1015 0.3819,0.618 1.2134,0.7014 2.0196,0.2031 1.1078,-0.6848 0.5516,-3.0552 -2.9082,-12.3906 -2.3529,-6.3493 -4.8936,-11.7796 -5.6465,-12.0684 z m 80.209,9.5684 c -1.4846,-0.2858 -1.7076,0.023 -1.084,1.4922 5.78,13.6126 6.6846,20.8697 4.4199,35.4648 -0.5956,3.8484 -0.8069,7.7231 -0.4668,8.6094 1.8406,4.7965 4.6504,-8.5957 4.7676,-22.7227 0.06,-7.225 -0.3674,-9.5498 -2.8477,-15.4922 -1.9271,-4.6181 -3.5527,-7.1134 -4.789,-7.3515 z m -109.6524,56.2968 c -0.4546,-0.2808 -0.832,8.1072 -0.832,18.6407 0,10.5335 -0.2483,19.3933 -0.543,19.6875 -0.8186,0.8188 1.5545,3.2715 2.5625,2.6484 0.488,-0.3012 0.8867,-2.0977 0.8867,-3.9902 0,-4.7313 1.5023,-4.3109 3.5254,0.9863 1.1416,2.9889 2.1424,4.2531 3.0821,3.8926 2.0349,-0.7809 1.7295,-2.1088 -2.1309,-9.2735 -3.1786,-5.8966 -3.4766,-7.1739 -3.4766,-14.8066 0,-8.2662 -1.4751,-16.7969 -3.0742,-17.7852 z m 66.42,19.4141 c -0.2605,-0.158 -0.4822,-0.1306 -0.6758,0.062 -3.4855,3.4856 16.0732,39.7232 22.3222,41.3574 1.7348,0.4536 1.84,0.2559 0.8653,-1.6367 -0.6097,-1.1835 -2.1994,-3.6129 -3.5332,-5.4004 -2.9647,-3.9724 -1.3253,-4.2954 3.875,-0.7617 2.132,1.4489 4.1947,3.9569 4.9336,6 0.698,1.9308 1.353,3.5117 1.455,3.5117 0.1021,0 0.3874,-1.4009 0.6407,-3.1113 0.3367,-2.2953 -0.1905,-3.8795 -2.0157,-6.0488 -2.5356,-3.0135 -10.9496,-7.8399 -13.666,-7.8399 -1.6392,0 -5.3523,-6.8039 -10.5488,-19.3262 -1.745,-4.2045 -2.8715,-6.3324 -3.6523,-6.8066 z m -131.2266,11.2852 c -0.1924,-0.07 -0.485,-0.038 -0.877,0.039 -1.0363,0.1996 -2.6786,2.8513 -4.2207,6.8164 -1.3886,3.5699 -2.9726,7.1672 -3.5195,7.9922 -2.1018,3.1694 -6.3294,28.1465 -6.6016,39 -0.2366,9.4316 -0.9594,11.2583 -4.8632,12.2695 -6.6959,1.7348 -12.8941,8.3346 -11.4239,12.1661 0.8818,2.2986 1.7084,1.898 3.3867,-1.6465 1.7051,-3.5999 5.2219,-6.3961 9.25,-7.3535 l 2.75,-0.6524 v 7.0586 c 0,5.6676 0.3451,7.2598 1.75,8.0781 0.9627,0.5607 1.75,1.03 1.75,1.0489 0,0.019 0.045,-8.1814 0.1016,-18.2188 0.1058,-19.0811 2.0142,-34.9104 5.2695,-43.709 1.5546,-4.201 1.9691,-4.5653 5.5332,-4.8593 5.3435,-0.4413 8.6697,1.1899 14.0801,6.9042 4.9444,5.2223 8.5799,6.7702 6.4199,2.7344 -0.641,-1.198 -3.2979,-4.3097 -5.9043,-6.916 -4.6033,-4.6033 -9.5207,-6.889 -14.8574,-6.9004 -1.8474,0 -2.2027,-0.3821 -1.6465,-1.7539 0.3902,-0.9625 1.5497,-4.1437 2.5762,-7.0683 1.2937,-3.6861 1.6238,-4.8201 1.0469,-5.0293 z m 105.7148,13.1523 c -0.4133,0.2717 0.069,1.6785 1.6153,5.1758 4.4005,9.9503 9.6864,17.7749 17.4101,25.7695 4.1179,4.2625 7.7837,7.75 8.1465,7.75 2.3441,0 1.1909,-2.1086 -4.3945,-8.0293 -7.6264,-8.0843 -11.1544,-13.0964 -15.9922,-22.7207 -2.0043,-3.9875 -3.8278,-7.25 -4.0508,-7.25 -0.223,0 -1.1362,-0.2801 -2.0293,-0.623 -0.3303,-0.1266 -0.5673,-0.1634 -0.7051,-0.072 z m -54.834,11.9121 c 2.4761,1.4159 5.28,3.4359 6.2325,4.4883 -0.9525,-1.0524 -3.7564,-3.0724 -6.2325,-4.4883 z m 6.2325,4.4883 c 0.4653,0.5142 1.0274,1.8054 1.5957,3.4863 -0.5683,-1.6809 -1.1304,-2.9721 -1.5957,-3.4863 z m 4.3515,15.1758 c 0.229,1.7016 0.2816,3.0225 0.068,3.5781 0.2132,-0.5556 0.1606,-1.8765 -0.068,-3.5781 z m 0.4512,6.8242 c -3.0862,0.9978 -7.0352,22.523 -7.0352,39.6543 v 14.1406 l -3.5195,2.8067 c -2.3826,1.9011 -3.8935,4.2099 -4.6797,7.1484 -1.0223,3.8235 -1.5568,4.4058 -4.4843,4.8808 -3.574,0.5801 -10.4417,5.0327 -12.2657,7.9532 -1.9302,3.0906 -0.038,4.0642 2.8106,1.4453 7.1267,-6.5554 11.0176,-7.49 10.7871,-2.5918 -0.3647,7.7743 4.0397,0.7979 5.8769,-9.3086 0.3667,-2.0159 1.6819,-4.6204 2.9239,-5.7871 l 2.2578,-2.1211 0.5937,14.7871 c 0.3368,8.3957 1.7131,21.4864 3.1856,30.2871 1.426,8.525 2.9868,23.15 3.4668,32.5 0.4796,9.35 1.4425,21.1648 2.1406,26.2559 l 1.2695,9.2558 -2.5468,2.7442 c -1.4001,1.5089 -2.8038,3.814 -3.1211,5.123 -0.5647,2.3325 -0.5159,2.323 2.4121,-0.4824 2.4979,-2.3931 3.1424,-2.6183 3.9257,-1.3789 1.2787,2.0231 1.2,4.3486 -0.1933,5.7422 -0.8803,0.8801 -0.6549,1.5912 0.9355,2.9492 2.5274,2.1583 6.0849,19.129 9.2207,43.9941 1.1237,8.9118 3.1667,19.9369 4.5411,24.5 5.5074,18.2897 6.7132,24.0698 6.1543,29.4883 -0.3088,2.9894 -0.1417,5.3086 0.3808,5.3086 0.5102,0 0.9277,3.4288 0.9277,7.6211 0,6.6622 0.1894,7.467 1.5,6.3789 1.0867,-0.9016 1.5,-3.2886 1.5,-8.6543 0,-8.7178 0.558,-9.2112 8.4493,-7.4453 6.5881,1.4744 9.4449,4.3979 11.041,11.3047 l 1.2226,5.2949 0.3946,-5.3965 c 0.6723,-9.2139 -3.8787,-13.7232 -14.9707,-14.8379 -6.081,-0.611 -7.0833,-1.3738 -7.1211,-5.3339 -0.011,-1.4122 -0.8958,-5.6873 -1.9707,-9.5 -1.0753,-3.8128 -3.0867,-10.9447 -4.4707,-15.8497 -1.3841,-4.905 -3.4602,-16.38 -4.6133,-25.5 -1.1535,-9.12 -3.1812,-21.7315 -4.5059,-28.0234 -1.3247,-6.292 -2.2226,-11.6264 -1.9922,-11.8555 0.2291,-0.229 3.5443,1.0261 7.3692,2.7891 8.1672,3.7645 13.3705,8.8567 15.0273,14.707 1.8074,6.3809 10.1248,11.4197 14.8028,8.9688 l 2.5527,-1.3379 -2.8574,-1.2539 c -1.5716,-0.69 -6.0076,-4.8794 -9.8575,-9.3106 -7.6976,-8.8594 -14.0112,-13.5403 -22.7246,-16.8496 -3.1476,-1.1955 -5.9488,-2.9032 -6.2285,-3.7949 -1.5655,-5.0161 -4.7341,-32.0214 -5.5293,-47.1211 -0.5068,-9.625 -2.064,-24.475 -3.4609,-33 -3.0006,-18.3139 -3.1729,-22 -1.0254,-22 3.5274,0 8.2211,3.0003 11.8809,7.5957 2.1482,2.6972 6.7449,7.8293 10.2168,11.4043 l 6.3125,6.5 -1.5762,4.5 c -1.3251,3.784 -1.3903,5.5207 -0.4141,10.9199 0.6388,3.5315 1.6392,7.3163 2.2246,8.4102 1.6842,3.1451 2.8862,-0.1414 1.7871,-4.8828 -1.7695,-7.6298 -1.037,-15.4473 1.4473,-15.4473 1.6101,0 7.2785,5.9541 8.291,8.709 0.5764,1.568 1.2193,1.957 2.2149,1.3418 2.6967,-1.6669 -0.8974,-6.8503 -10.5586,-15.2266 -5.161,-4.4744 -11.8992,-11.4189 -14.9727,-15.4316 -6.246,-8.1551 -8.2235,-9.7344 -14.2148,-11.3477 -3.0675,-0.826 -4.3071,-1.7433 -4.752,-3.5156 -0.3288,-1.3185 -0.396,-13.3387 -0.1504,-26.7129 0.3999,-21.6349 0.7278,-25.4745 2.9785,-34.8164 1.8259,-7.5767 2.2147,-10.6985 1.3946,-11.2129 -0.1966,-0.1232 -0.3998,-0.1485 -0.6055,-0.082 z m 91.9395,19.6758 c -0.3342,-0.069 -0.7161,0.1818 -1.1211,0.8203 -1.2715,2.0039 -1.0015,9.2494 0.3964,10.6582 1.0017,1.0092 1.368,0.2033 1.8438,-4.0508 0.4623,-4.1357 -0.1169,-7.2212 -1.1191,-7.4277 z m 29.9707,16.2988 c -0.6213,-0.084 -0.363,0.502 0.1718,1.6758 0.593,1.3012 2.7054,3.1428 4.6953,4.0918 6.0511,2.8855 10.9143,7.3551 13.25,12.1797 1.9646,4.0552 2.1516,5.6229 1.6387,13.5429 -0.4331,6.6859 -0.2786,8.8555 0.6094,8.5645 1.875,-0.6151 3.8178,-9.7395 3.1367,-14.7344 -1.3946,-10.2322 -6.985,-17.2152 -18.3984,-22.9765 -2.9821,-1.5054 -4.4823,-2.2596 -5.1035,-2.3438 z m -142.086,78.6582 c -0.1735,-0.3462 -0.6611,0.077 -1.623,0.9473 -1.5814,1.4313 -2.1948,4.125 -3.1817,13.9785 l -1.2226,12.207 -4.416,4.7207 c -4.7139,5.0393 -5.3046,6.8262 -2.9161,8.8086 1.2202,1.0132 1.5,0.9627 1.5,-0.2676 0,-0.8313 0.9295,-2.5746 2.0665,-3.873 l 2.0683,-2.3594 -0.5742,3 c -0.3156,1.65 -0.8553,4.4625 -1.1992,6.25 -0.6815,3.5494 0.9097,4.5099 2.4844,1.5 1.6012,-3.0615 3.9957,-15.4014 5.0937,-26.25 0.5847,-5.775 1.3312,-12.5227 1.6602,-14.9941 0.2929,-2.2061 0.4332,-3.3218 0.2597,-3.668 z m 78.1035,36.1895 c -0.2018,0.1046 -0.3545,0.3496 -0.4961,0.7148 -0.4792,1.2364 0.8123,3.463 4.4414,7.6523 6.0254,6.9549 11.7069,16.0843 13.2852,21.3516 1.0923,3.6458 3.8066,5.2604 3.8066,2.2637 0,-5.2915 -7.2871,-17.5848 -16.8984,-28.5098 -2.4877,-2.8275 -3.5328,-3.7865 -4.1387,-3.4726 z m -122.4023,32.2148 c -0.5358,-0.4079 -1.4097,0.4763 -3.627,3.25 -7.1644,8.9629 -13.5605,15.284 -17.4277,17.2266 -5.3144,2.6697 -7.5059,4.6957 -7.5059,6.9355 0,2.2435 1.5589,2.4369 2.3809,0.2949 0.3273,-0.8531 2.6058,-2.4405 5.0625,-3.5273 5.9029,-2.611 9.3646,-5.6305 16.3926,-14.2988 4.2247,-5.2111 5.658,-7.7169 5.1855,-9.0645 -0.1406,-0.4009 -0.2823,-0.6804 -0.4609,-0.8164 z m 50.6328,14.4434 c -0.1353,-0.099 -0.3427,-0.066 -0.6269,0.086 -0.3791,0.203 -0.8947,0.6201 -1.5606,1.2227 -1.265,1.1447 -2.0059,3.0823 -2.0059,5.2441 0,4.8325 2.2228,3.7157 3.6133,-1.8145 0.7452,-2.9634 0.9861,-4.4415 0.5801,-4.7382 z m -13.3633,9.8769 c -0.9639,0.1567 -2.1857,0.5443 -3.3769,1.043 1.1912,-0.4987 2.413,-0.8863 3.3769,-1.043 z m -3.3769,1.043 c -1.1912,0.4987 -2.3519,1.1084 -3.1953,1.709 0.8434,-0.6006 2.0041,-1.2103 3.1953,-1.709 z m -15.1172,6.8945 c -1.0609,0 -9.0099,5.9855 -11.4844,8.6485 -2.75,2.9594 -6.8476,9.2946 -6.8476,10.6015 -0.011,2.3263 3.2073,0.098 5.8847,-4.0742 1.7027,-2.6535 5.0688,-6.2427 7.4805,-7.9746 2.4113,-1.7319 4.6231,-4.0611 4.914,-5.1758 0.2911,-1.1146 0.3136,-2.0254 0.053,-2.0254 z m -62.4805,25.1543 c -2.5141,0.7271 -10.669,18.9267 -12.9258,28.8457 -4.1854,18.3991 -4.6388,20.5428 -5.3418,25.25 -0.4535,3.0416 -0.3389,4.75 0.3184,4.75 1.482,0 2.758,-2.8469 3.5879,-8 1.798,-11.1639 7.6058,-32.1697 10.7832,-39 4.5733,-9.8306 5.3365,-12.3537 3.5801,-11.8457 z m 202.5996,2.8457 c -0.2517,0 -0.4355,0.7875 -0.4355,1.75 0.011,1.075 2.4221,3.1703 6.25,5.4336 3.4269,2.0264 8.0305,5.2754 10.2304,7.2207 2.1998,1.9452 5.7658,4.9142 7.9239,6.5957 2.9692,2.3137 4.1238,2.745 4.7519,1.7774 0.5564,-0.8569 -0.3745,-2.3105 -2.8242,-4.4063 l -3.6562,-3.1269 2.6855,-1.7579 c 2.1003,-1.3761 3.9797,-1.6422 8.6504,-1.2187 3.2825,0.2974 5.9687,0.2237 5.9687,-0.1641 0,-3.6002 -11.4654,-4.3365 -16.8066,-1.08 l -3.3086,2.0156 -4.1914,-3.4141 c -3.8143,-3.1068 -14.1343,-9.625 -15.2383,-9.625 z m -143.7988,42.5391 c -0.2812,-0.1977 -0.7814,-0.011 -1.6563,0.4609 -1.3314,0.7124 -2,2.0939 -2,4.1309 0,1.6833 -0.8977,4.3198 -1.9941,5.8593 -2.3898,3.3566 -2.9908,7.1163 -1.2363,7.7383 0.7366,0.2612 1.7233,-0.8477 2.3476,-2.6386 1.3861,-3.9761 2.5445,-3.9217 3.42,0.1601 0.3835,1.7875 0.9091,3.6077 1.1699,4.0469 0.2593,0.4392 1.0661,0.3064 1.791,-0.2949 1.0016,-0.8326 1.0769,-1.9567 0.3164,-4.711 -0.5495,-1.9903 -0.7456,-4.8775 -0.4395,-6.416 0.3077,-1.5386 0.124,-3.0677 -0.4082,-3.3965 -0.5317,-0.3288 -0.9668,-1.7123 -0.9668,-3.0742 0,-1.0831 -0.062,-1.6675 -0.3437,-1.8652 z m -37.709,33.1211 c -0.3432,1.0401 -0.5444,2.3899 -0.6211,3.8711 0.077,-1.4812 0.2779,-2.831 0.6211,-3.8711 z m -0.4961,8.5332 c 0.1548,1.5677 0.4182,3.0889 0.7696,4.3886 -0.3514,-1.2997 -0.6148,-2.8209 -0.7696,-4.3886 z m 0.7696,4.3886 c 0.3513,1.2998 0.7916,2.3774 1.3046,3.0547 -0.513,-0.6773 -0.9533,-1.7549 -1.3046,-3.0547 z m 114.7832,0.5118 c -0.1826,-0.096 -0.3477,-0.079 -0.4903,0.068 -0.9588,0.9913 3.0289,21.5231 5.6016,28.8379 4.0482,11.5102 4.0583,12.1582 0.1894,13.1817 -5.4836,1.4508 -14.2265,14.273 -14.2832,20.9453 -0.011,1.445 0.6536,3.1883 1.4785,3.873 1.2841,1.0643 1.4837,0.7544 1.5215,-2.1289 0.048,-7.387 8.3014,-19.252 13.9707,-20.084 3.6904,-0.5417 3.899,-0.3922 7.9922,5.7129 1.8438,2.75 5.1091,6.9368 7.2559,9.3047 2.1468,2.3679 4.4319,5.5463 5.0801,7.0645 0.6481,1.518 3.2044,5.7549 5.6796,9.414 3.3401,4.9381 5.095,6.6609 6.8086,6.6836 2.6631,0.038 2.7167,0.1534 -3.9511,-8.6562 -5.616,-7.4202 -5.9905,-8.8109 -2.1075,-7.8418 4.0729,1.0165 5.941,3.1244 9.9473,11.2304 1.9896,4.0255 3.8228,7.1139 4.0723,6.8633 0.957,-0.9573 -2.046,-10.5897 -4.4649,-14.3203 -3.2035,-4.9405 -5.6697,-6.5123 -11.291,-7.1973 -4.2652,-0.5197 -4.7659,-0.937 -10.2305,-8.5449 -3.1599,-4.4 -6.4409,-9.4449 -7.291,-11.209 -0.85,-1.7642 -1.9538,-3.4591 -2.4531,-3.7675 -1.8523,-1.1449 -6.8868,-16.3279 -8.4375,-25.4493 -1.1929,-7.0172 -3.3208,-13.3065 -4.5976,-13.9804 z m -158.627,1.3886 c -0.3615,0.2563 -0.3633,1.5853 -0.3633,4.6114 0.011,2.9727 -0.5273,15.8687 -1.1894,28.6562 l -1.2032,23.25 h -2.4961 c -6.3026,0 -19.125,10.1467 -19.125,15.1348 0,1.8381 0.9826,1.2454 6.25,-3.7774 10.2751,-9.7971 15.75,-10.8422 15.75,-3.0058 0,3.3992 0.4103,4.523 1.7872,4.8828 1.6112,0.4211 1.7473,-0.1743 1.3769,-5.9902 -0.3938,-6.1827 1.3451,-46.8047 2.4102,-56.3008 0.4176,-3.7235 0.138,-4.8954 -1.5313,-6.4063 -0.507,-0.46 -0.8867,-0.8034 -1.1719,-0.9765 -0.2139,-0.1299 -0.3736,-0.1636 -0.4941,-0.078 z m 179.3047,92.2696 c -0.9366,1.2312 -1.6904,2.4339 -2.2735,3.6328 0.5831,-1.1989 1.3369,-2.4016 2.2735,-3.6328 z m -2.2735,3.6328 c -0.583,1.1988 -0.9953,2.3933 -1.25,3.6113 0.2547,-1.218 0.667,-2.4125 1.25,-3.6113 z m -1.25,3.6113 c -0.2546,1.218 -0.3513,2.4593 -0.3027,3.7481 -0.049,-1.2888 0.048,-2.5301 0.3027,-3.7481 z m -167.6992,4.4844 c -0.1961,0.087 -0.3972,0.4429 -0.664,0.9199 -0.5586,0.9987 -0.7469,3.4856 -0.4219,5.5273 0.7143,4.4678 4.6653,16.722 7.5566,23.4336 1.7103,3.9708 2.3534,4.6489 3.502,3.6954 1.1936,-0.9905 1.0433,-1.9613 -0.9863,-6.3946 -1.3157,-2.874 -2.5168,-6.3182 -2.668,-7.6562 -0.2529,-2.2191 0.1935,-2.5117 5.0937,-3.3164 6.8213,-1.1202 11.7366,0.2034 21.5762,5.8105 6.1074,3.4805 7.544,3.9638 8.0293,2.6992 0.7,-1.8239 0.3682,-2.0718 -9.9766,-7.4297 -6.8904,-3.5689 -8.9013,-4.1522 -14.5,-4.207 -3.5749,-0.034 -7.8204,0.1625 -9.4335,0.4375 -2.6657,0.4545 -3.012,0.1818 -3.8106,-3 -2.162,-8.6104 -2.7082,-10.779 -3.2969,-10.5195 z m 31.3106,81.5195 c -1.0152,0 -1.8572,1.8142 -2.6309,5.666 -2.5228,12.5626 -0.9183,20.2913 5.9414,28.6133 1.686,2.0456 3.4579,3.7207 3.9356,3.7207 2.2897,0 1.8343,-2.409 -1.0821,-5.7305 -1.7718,-2.0181 -4.1107,-5.682 -5.1992,-8.1425 -2.0013,-4.5256 -2.0221,-7.686 -0.1289,-19.877 0.528,-3.3976 0.3599,-4.25 -0.834,-4.25 z"
         transform="scale(0.26458333)" />
      <path
         id="path10201"
         style="fill:#617a3b;fill-opacity:1;stroke-width:0.264583"
         d="m -579.38066,-730.53058 c -0.8962,0.0148 -1.77731,0.19423 -2.51508,0.55136 -1.43041,0.69244 -3.21654,2.66293 -4.21473,4.64987 -0.4232,0.8423 -0.91829,1.6922 -1.10019,1.88876 -0.1819,0.19655 -0.33073,0.57755 -0.33073,0.84645 0,0.50588 -0.70318,3.53634 -0.9829,4.23593 -0.0869,0.21828 -0.13277,0.55454 -0.10075,0.74723 -0.2404,3.12751 -1.08953,7.33256 -0.30491,10.74045 0.727,0.60528 5.78475,-1.14584 6.81302,-1.06712 5.6919,-1.18348 7.73232,-1.77766 9.96323,-2.90113 2.02269,-1.01862 4.98327,-3.6444 5.61877,-4.98367 0.92282,-1.94474 0.29877,-4.76599 -1.41025,-6.37222 -0.78838,-0.7411 -1.01214,-0.80219 -3.38635,-0.92604 l -2.54196,-0.1323 0.062,-1.89859 c 0.0707,-2.14699 -0.27414,-3.06552 -1.55752,-4.14547 -0.98227,-0.82653 -2.51797,-1.2583 -4.01167,-1.23351 z m -18.6345,2.69544 c -1.63801,-0.0259 -3.29327,0.9398 -4.59713,2.75537 -0.75372,1.04958 -0.91282,1.15314 -1.2945,0.84183 -2.39332,-1.95199 -6.70209,-2.84197 -9.3085,-1.92239 -1.32299,0.46678 -3.29019,2.00298 -3.94599,3.08147 -1.22402,2.01264 -1.38126,7.4717 -0.30025,10.40919 0.32131,0.87312 0.62542,1.77329 0.6754,2.00041 0.12912,0.58314 1.65822,2.86017 2.62983,3.91602 0.45019,0.48913 1.41388,1.34318 2.14146,1.89809 0.7276,0.55491 1.96352,1.60912 2.74661,2.34249 1.67949,1.57308 4.59089,3.38804 6.48592,4.04315 v 0 c 0.74234,0.25662 1.41234,0.47043 1.48931,0.47543 0.56131,0.0347 1.49558,-1.16539 2.35439,-3.02411 0.5565,-1.20462 1.96493,-3.84453 3.12952,-5.86631 1.1647,-2.02177 2.55029,-4.74573 3.07941,-6.05338 0.52908,-1.30765 1.15506,-2.1703 1.32188,-2.46134 0.25649,-0.44688 0.24501,-0.4804 -0.0739,-0.21704 -0.32141,0.26506 -0.43082,-0.41931 -0.44079,-2.03348 -0.01,-2.69928 -0.22344,-4.59555 -0.31525,-4.79348 -0.043,-0.0929 -0.37301,-0.7533 -0.75396,-1.3715 -0.37775,-0.61304 -0.84476,-1.62311 -1.30585,-2.11203 -1.02455,-1.09866 -1.0218,-1.09308 -2.09963,-1.54668 -0.52848,-0.23426 -1.07249,-0.35308 -1.61848,-0.36171 z m -10.35751,28.66284 c -0.83354,-0.0106 -1.35808,0.38378 -2.82101,1.6981 -0.5946,0.53422 -1.21039,0.96456 -1.3684,0.95755 -0.15801,-0.007 -0.99063,-0.45992 -1.85055,-1.00563 -1.2187,-0.77345 -1.82668,-0.99049 -2.7559,-0.9865 -2.24949,0.0109 -4.39695,1.47889 -5.36504,3.66747 -0.72871,1.63674 -0.7266,4.25048 0,5.8932 0.59529,1.34575 4.07496,5.17729 5.03225,5.54125 0.93781,0.35658 7.57859,4.65368 8.12509,5.25756 h 0.005 c 0.2672,0.2953 0.62531,0.53692 0.79581,0.53692 0.4862,0 4.15732,-3.92158 5.40742,-5.77638 1.9974,-2.96352 2.51198,-4.36843 2.51198,-6.92362 0.005,-2.58503 -0.54633,-3.95311 -2.47065,-6.13503 -1.40028,-1.58773 -2.51407,-2.26666 -4.26278,-2.59828 -0.39264,-0.0745 -0.70503,-0.12306 -0.98287,-0.12661 z m -33.63103,7.60056 c -2.14238,0.007 -3.41749,1.06973 -4.3429,3.52589 -0.52228,1.38591 -0.59025,2.05068 -0.57824,5.67097 0.0122,3.76785 0.0719,4.27119 0.73898,6.19445 1.07159,3.08935 2.00747,4.92554 2.64737,5.19348 v 0 c 0.31191,0.1306 0.98414,0.17209 1.49344,0.092 1.1793,-0.18555 11.41947,-4.17203 12.85867,-5.00589 1.45089,-0.84061 3.92581,-3.55161 4.77851,-5.23431 0.89831,-1.77284 1.12217,-4.24201 0.52607,-5.80273 -0.48811,-1.27818 -2.47066,-3.43678 -3.23496,-3.52227 -0.2798,-0.0313 -1.1634,-0.1406 -1.96371,-0.24288 -1.19279,-0.15243 -1.83258,-0.0618 -3.54809,0.50228 -1.15109,0.37859 -2.25605,0.82325 -2.45515,0.98859 -0.27921,0.23164 -0.49733,0.17375 -0.95086,-0.2522 -0.9076,-0.8527 -3.33597,-1.84719 -4.99657,-2.04637 -0.34298,-0.0411 -0.66651,-0.0615 -0.97256,-0.0605 z m 18.93269,23.78977 c -0.59085,0.0448 -1.20441,0.26752 -2.09651,0.68678 -1.2147,0.57089 -1.64608,0.93943 -2.00298,1.71257 -0.25011,0.54194 -0.52318,0.98819 -0.60719,0.99218 -0.0837,0.004 -1.00642,-0.2836 -2.05052,-0.63873 -1.0442,-0.35512 -1.89809,-0.54697 -1.89809,-0.42632 0,0.12065 -0.39032,0.29247 -0.86712,0.38187 -1.0767,0.20201 -2.66481,1.48611 -3.52639,2.85099 -1.65376,2.58758 -0.75714,4.06498 -0.29509,7.8104 0.3793,1.50519 0.2904,1.3195 0.3793,1.50532 0.24511,0.51239 1.9e-4,-8e-5 1.04699,1.77559 1.24594,1.99321 4.09077,4.8433 7.28688,7.27916 2.71061,2.06579 3.51275,2.34749 3.88814,1.36322 0.12499,-0.32743 0.82441,-1.09813 1.55389,-1.71255 1.35062,-1.13739 4.10388,-4.3948 5.25137,-6.21254 0.3488,-0.55253 0.73031,-1.0046 0.84749,-1.0046 0.22572,0 1.10329,2.55521 1.10329,3.21273 0,0.52681 3.30144,5.4316 4.55993,6.77426 0.30642,0.32684 0.61418,0.53782 0.68318,0.46871 0.0691,-0.0691 0.89353,0.59293 1.83243,1.47121 1.0025,0.93784 1.89624,1.56337 2.16524,1.51569 0.6527,-0.11562 3.29092,-3.14105 4.96613,-5.69526 3.32197,-5.06513 6.0222,-13.25157 5.50611,-16.69304 -0.3074,-2.04983 -1.50879,-3.87413 -3.09748,-4.7041 -1.02661,-0.53634 -3.22001,-0.46998 -4.38941,0.13279 -1.64629,0.84857 -4.04027,3.84514 -4.40748,5.51699 -0.17159,0.78105 -0.17664,0.78311 -1.15134,0.43511 -1.7808,-0.63583 -5.13387,-0.29457 -6.20429,0.63148 -0.31949,0.27643 -0.46302,0.30122 -0.46302,0.0796 0,-0.17663 -0.12727,-0.24286 -0.28266,-0.14676 -0.49868,-0.24546 0,0 -0.49868,-0.24546 0.56099,-0.47177 0.7112,-0.7862 0.601,-1.25573 -0.22911,-0.97645 -1.35866,-3.31801 -2.34146,-4.8545 -0.49141,-0.76809 -0.8396,-1.47085 -0.77359,-1.56112 0.0661,-0.0903 0.0423,-0.10562 -0.0538,-0.0341 -0.0958,0.0715 -0.34602,-0.0122 -0.55602,-0.18653 -0.2099,-0.17431 -0.51856,-0.34187 -0.68575,-0.37209 -0.16722,-0.0302 -0.82524,-0.24352 -1.46193,-0.47439 -0.8019,-0.29073 -1.36975,-0.4236 -1.96061,-0.37878 z m -31.01102,1.6366 c -1.4749,0.0119 -2.45264,0.63241 -4.25453,2.34403 -1.0868,1.03238 -2.51195,2.68337 -3.16725,3.66903 -2.0638,3.10449 -3.83897,8.14046 -4.36716,12.39046 -0.2731,2.19771 -0.265,2.2637 0.3297,2.71817 0.7733,0.59095 2.68298,0.99356 6.69518,1.41182 5.4651,0.56973 7.46553,0.50091 9.98183,-0.3447 4.7313,-1.58988 7.83814,-4.76441 7.09723,-7.25175 -0.4177,-1.40214 -1.40793,-2.45777 -3.20341,-3.41477 -1.27792,-0.68109 -1.54358,-0.9371 -1.45159,-1.39475 0.0623,-0.30824 0.19074,-1.03643 0.28472,-1.61851 0.26064,-1.78406 0.31798,-1.78371 -0.0305,-2.90732 -0.6827,-3.0507 -2.78985,-4.83039 -6.22493,-5.42859 -0.65111,-0.1134 -1.19766,-0.17708 -1.68931,-0.17312 z m 23.72206,27.43296 c -1.0523,0.0566 -2.13069,0.54189 -3.37187,1.48516 l -0.81495,0.61909 -0.63613,-0.7245 c -0.35,-0.39855 -0.61619,-0.79132 -0.59119,-0.87281 0.0251,-0.0815 -0.98899,-0.16793 -2.25309,-0.19172 -3.1343,-0.0592 -4.37523,0.53282 -5.41361,2.58329 -0.40381,0.79742 -0.80706,1.90174 -0.89506,2.45411 -0.14179,0.8871 -0.22587,0.98068 -0.72088,0.79944 -1.25378,-0.45908 -2.95048,-0.21497 -4.70977,0.678 -1.44611,0.73398 -1.82076,0.82931 -2.23348,0.56689 -0.57338,-0.36451 -1.85478,-2.33063 -2.04174,-2.69906 -0.10707,-0.13304 -0.0819,-0.14928 -0.30644,-0.20619 l -1.95387,-0.35656 c -2.79709,-0.39248 -5.31024,0.97084 -6.41614,3.39926 -1.2514,2.74757 0.17666,8.90421 3.12126,13.45602 0.64839,1.00243 1.11403,1.9925 1.03405,2.20038 -0.0797,0.20791 -0.0296,0.30716 0.11109,0.22016 0.3777,-0.23344 2.86198,2.48225 3.19567,3.49332 0.23611,0.71557 0.42267,0.87075 1.04748,0.87075 0.4181,0 0.85511,-0.15267 0.97153,-0.33899 0.2019,-0.32332 5.13514,-3.96951 6.20374,-4.58525 0.76782,-0.44238 1.81488,-1.48085 1.81488,-1.803 0,-0.15653 0.59179,-1.05813 1.3131,-2.00401 0.72139,-0.94589 1.31135,-1.92122 1.32135,-2.16731 0.0233,-1.08445 0.53764,-0.56118 1.55755,1.58491 0.60389,1.27079 1.0981,2.39794 1.0981,2.50476 0,0.10681 -0.29323,0.19431 -0.65161,0.19431 -1.41542,0 -3.49639,1.0506 -4.72789,2.38746 -0.66691,0.72401 -1.14285,1.3167 -1.05884,1.3167 0.0843,0 0,0.18468 -0.18759,0.41032 -0.23241,0.2799 -0.32332,1.17419 -0.28734,2.81482 0.0574,2.60101 0.63365,4.76142 1.80145,6.7541 0.82811,1.41298 3.49469,4.07964 5.15627,5.15628 l 1.25109,0.81079 -0.67747,0.8873 -0.67646,0.88779 -0.80253,-0.57153 c -2.43118,-1.73112 -5.6491,-2.26428 -7.58299,-1.25627 -0.89201,0.46493 -1.25788,0.95028 -2.41019,3.1936 -1.5738,3.06382 -1.84359,4.5806 -1.3131,7.3918 0.31961,1.69418 0.45942,1.94675 1.8066,3.27268 0.80301,0.79023 1.85518,1.64976 2.33836,1.90995 0.48321,0.26022 0.87849,0.63151 0.87849,0.82529 0,0.19381 0.0916,0.29604 0.20363,0.22685 0.36319,-0.22447 2.77773,0.7928 5.48492,2.31098 1.45531,0.81603 2.88274,1.45484 3.17243,1.41954 0.38341,-0.0467 0.92276,-0.86273 1.98437,-3.00241 l 1.45778,-2.9383 1.40666,1.11413 c 1.83157,1.45063 3.36042,2.20173 6.2058,3.04787 2.9347,0.8727 4.55083,0.77086 4.57181,-0.28782 0.007,-0.37309 0.25509,-1.02769 0.55089,-1.4547 1.1779,-1.70024 2.19546,-3.78172 2.75487,-5.63634 0.9742,-3.23035 0.45244,-7.27565 -1.27487,-9.88571 -0.77099,-1.16506 -1.64179,-1.69894 -3.17137,-1.94355 -1.12001,-0.17909 -1.37973,-0.0435 -3.11402,1.62833 -0.8337,0.80364 -0.86,0.80965 -2.00609,0.45217 -1.1108,-0.34652 -3.02194,-0.31493 -4.00545,0.0661 -1.1611,0.44981 -0.23286,-0.50237 2.30322,-2.36318 1.84132,-1.35107 3.30094,-2.6896 4.36563,-4.00286 0.87971,-1.08505 1.59938,-2.07031 1.59938,-2.19003 0,-0.11973 0.28096,-0.8055 0.62426,-1.52395 1.4121,-2.95471 1.62448,-7.07041 0.48008,-9.29502 -1.36681,-2.65698 -5.15292,-4.01656 -7.75922,-2.78641 -1.3439,0.63429 -2.85025,2.0401 -3.17035,2.95846 l -0.26924,0.77103 -1.19062,-0.90898 c -0.655,-0.49998 -1.30807,-0.909 -1.45108,-0.909 -0.5365,0 0.092,-0.53009 0.64698,-0.5457 0.85723,-0.0241 4.29152,-3.02083 6.26372,-5.46529 2.0337,-2.52047 3.24231,-4.46699 4.18942,-6.74791 1.52807,-3.67977 0.46953,-7.97084 -2.24587,-9.10539 -0.64217,-0.26832 -1.26412,-0.38849 -1.8955,-0.35449 z m 37.12073,2.69438 c -0.80775,0.054 -1.62656,0.30247 -2.22724,0.7302 -0.86061,0.6128 -2.39316,3.37105 -2.39316,4.30826 -8e-5,0.25466 -0.11906,0.46302 -0.26458,0.46302 -0.14549,0 -0.26458,0.27747 -0.26458,0.61701 0,0.81481 -0.22879,1.00814 -0.81958,0.69197 -0.26699,-0.14288 -1.17419,-0.2924 -2.01591,-0.3323 -0.84169,-0.0399 -1.82779,-0.23868 -2.1916,-0.44182 -0.36377,-0.20315 -1.28809,-0.45628 -2.05361,-0.56224 -1.1988,-0.16595 -1.56573,-0.10033 -2.64584,0.47077 -0.68969,0.3647 -1.46304,0.84997 -1.71876,1.0785 -0.41939,0.37488 -1.09751,0.81229 -1.96421,1.26708 -0.1719,0.0902 -0.65998,-0.0925 -1.08416,-0.40616 -1.68341,-1.24462 -4.14046,-0.86854 -5.42036,0.82992 -1.58228,2.09968 -2.2593,6.90933 -1.39372,9.89965 0.55841,1.92879 2.02912,4.91106 3.07012,6.22546 0.42638,0.53835 0.77513,1.0867 0.77513,1.21854 0,0.13187 0.14271,0.38243 0.31731,0.55705 0.73898,0.73893 1.4867,0.32288 3.69589,-2.05721 1.2124,-1.30622 3.63331,-3.63903 5.37951,-5.18366 1.7463,-1.54464 3.26596,-3.05015 3.37706,-3.34606 0.1878,-0.50001 0.29062,-0.45569 1.45521,0.62889 3.024,2.8162 6.79159,4.97761 8.68629,4.9816 1.8274,0.005 2.28076,-0.87487 4.09226,-7.9349 0.9629,-3.75436 1.08876,-4.56894 0.97565,-6.32209 -0.21521,-3.33431 -1.34038,-5.77162 -3.20548,-6.94428 -0.55732,-0.35039 -1.35387,-0.49115 -2.16164,-0.4372 z m -50.20675,3.49904 c 0.54236,0.10694 1.44597,1.41552 1.83657,2.75899 0.51901,1.78528 0.34817,4.28009 -0.41134,5.99705 -0.288,0.651 -0.56984,1.1839 -0.62683,1.1839 -0.3456,0 -0.31845,-0.42783 0.10594,-1.65624 0.91919,-2.66057 0.53454,-6.02321 -0.85886,-7.50649 -0.3452,-0.36777 -0.43572,-0.63344 -0.25321,-0.74623 0.0602,-0.0372 0.13026,-0.0463 0.20773,-0.031 z m 41.64242,3.12745 c 0.11242,0.0145 0.2653,0.0696 0.4558,0.17156 0.64738,0.34649 1.63605,2.32534 1.63605,3.27474 0,1.09919 -1.01169,3.52478 -1.84018,4.41161 -0.728,0.77941 -1.33482,1.04437 -1.33482,0.58291 0,-0.12298 0.25469,-0.4504 0.56639,-0.72761 0.82529,-0.73406 1.81229,-2.99222 1.81229,-4.15943 0.003,-1.10374 -0.30281,-1.84661 -1.13429,-2.75953 -0.4713,-0.51747 -0.49848,-0.8383 -0.16124,-0.79425 z m -40.50607,11.04583 c -0.0138,0.0138 0.0659,0.12091 0.23048,0.33072 v 0 c 0.19979,0.25467 0.40751,0.46303 0.46249,0.46303 0.21781,0 0.0781,-0.21762 -0.36277,-0.56328 -0.20984,-0.16454 -0.31705,-0.24413 -0.33072,-0.23047 z m 48.40687,8.55038 c -0.31855,-0.0408 -0.61409,0.0198 -1.07434,0.15761 -1.34641,0.40341 -2.63808,1.55247 -3.43598,3.05668 -0.3501,0.65987 -0.72567,1.19991 -0.83508,1.19991 -0.10991,0 -0.20309,0.32742 -0.20309,0.7276 -0.007,1.21698 -0.26184,1.37774 -1.90945,1.20769 -1.06889,-0.11033 -1.5344,-0.2777 -1.61539,-0.5819 -0.0838,-0.31456 -0.1217,-0.28723 -0.1447,0.10491 -0.0238,0.41476 -0.33115,0.60458 -1.38856,0.85577 -0.74699,0.17743 -1.75926,0.62815 -2.24946,1.002 -5.25081,4.00498 2.60988,11.7978 11.25667,11.15952 l 2.00814,-0.1483 0.75655,1.18287 c 0.87931,1.37523 3.81365,3.97754 6.11074,5.4188 0.87981,0.55192 1.88616,1.24791 2.23654,1.54668 0.35052,0.29874 0.7443,0.54311 0.8749,0.54311 0.7253,0 3.60638,-4.04794 4.41008,-6.19601 0.7924,-2.11749 1.19001,-5.57581 0.85161,-7.40625 -0.43489,-2.35275 -1.1058,-3.50832 -2.89181,-4.98472 -1.5294,-1.26426 -3.59413,-0.90845 -4.46485,0.76946 -0.3997,0.7701 -0.69987,1.0223 -1.26968,1.06609 -0.4105,0.0315 -0.81627,0.15488 -0.90228,0.27389 -0.17468,0.24273 -1.51424,0.86712 -1.86034,0.86712 -0.1234,0 0,-0.72517 0.27699,-1.61126 0.2758,-0.88609 0.50041,-2.22554 0.49041,-2.97656 -0.0225,-2.7777 -1.69979,-5.76048 -3.81527,-6.78461 -0.55242,-0.26741 -0.89379,-0.40936 -1.21235,-0.4501 z m -77.18909,2.83083 c -1.80308,-0.006 -2.89292,0.46505 -4.00232,1.72857 -1.8528,2.11024 -2.62168,5.39419 -2.1172,9.04288 0.61352,4.43685 2.90357,11.98867 3.84887,12.69275 0.49749,0.37052 1.30818,0.24842 4.06537,-0.61235 5.39052,-1.68278 10.64385,-7.2526 11.03345,-11.69853 0.16679,-1.90256 -0.55901,-3.93081 -2.00401,-5.6012 l -1.02992,-1.19063 h -2.42154 c -1.86442,0 -2.4792,0.0913 -2.67272,0.39688 -0.1838,0.28935 -0.2558,0.11017 -0.2558,-0.66146 -0.0103,-2.41964 -1.82086,-4.0889 -4.44418,-4.09691 z m 33.07242,8.7881 c 0.24876,0.0874 0.67484,0.36423 1.37924,0.86506 0.74859,0.53224 1.6206,0.92604 2.04999,0.92604 0.4109,0 0.74724,0.0994 0.74724,0.22117 0,0.12184 -0.46416,0.70958 -1.03145,1.30587 -2.18321,2.29503 -2.44668,5.56485 -0.72398,8.98549 0.5289,1.05029 0.96168,1.97207 0.96168,2.04846 0,0.0764 -0.1597,0.13901 -0.35502,0.13901 -0.51318,0 -2.27949,-3.9266 -2.46287,-5.4751 -0.18651,-1.57522 0.42754,-3.96883 1.40144,-5.46325 0.36431,-0.55904 0.6232,-1.04082 0.57621,-1.07021 -1.6679,-1.03799 -2.8472,-1.95482 -2.85721,-2.21279 -0.005,-0.25517 0.066,-0.35716 0.31473,-0.26975 z m 48.46163,0.49247 c 0.0982,0.0414 0.16484,0.21564 0.16484,0.53589 0,0.49025 -1.51043,4.21219 -2.44843,6.03321 -0.18129,0.35217 -0.45619,0.68168 -0.61081,0.73279 -0.48869,0.16145 -0.66083,-0.25542 -0.28472,-0.6904 0.40669,-0.4704 2.18979,-4.45683 2.58328,-5.77588 0.1804,-0.60478 0.43215,-0.90458 0.59584,-0.83561 z m -87.47733,22.20484 c -0.98036,0.003 -1.96736,0.21209 -2.82464,0.64648 -3.65479,1.85211 -5.13164,6.68163 -3.72486,12.18222 0.54401,2.12698 2.94651,7.49559 3.51661,7.85791 0.42788,0.27212 0.91784,0.26339 1.09244,-0.019 0.0783,-0.12671 1.42475,-0.30054 2.99206,-0.38653 3.8829,-0.21299 4.05728,-0.25281 6.51278,-1.47124 2.61479,-1.29747 4.79496,-2.97969 5.86216,-4.52374 0.68971,-0.99772 0.79375,-1.38184 0.79375,-2.92955 0,-1.60478 -0.0833,-1.88505 -0.83921,-2.82567 l -0.83923,-1.04386 1.10381,-1.16168 1.10379,-1.16118 -1.09707,1.01442 -1.09709,1.01441 -1.54874,-0.4527 c -0.8519,-0.24911 -2.32264,-0.46678 -3.26856,-0.48369 -1.86039,-0.0333 -2.10251,-0.18584 -2.11251,-1.30844 -0.005,-0.95626 -0.66953,-2.52868 -1.40613,-3.33002 -0.96967,-1.05479 -2.58545,-1.62293 -4.21936,-1.61801 z m 35.85826,0.0161 c -1.44256,0.05 -2.99518,0.69109 -3.93826,1.78388 -0.46228,0.53575 -1.09178,1.26002 -1.39888,1.60972 -0.307,0.3497 -0.55812,0.79616 -0.55812,0.99219 0,0.49678 -0.54186,0.44574 -2.02776,-0.19122 -1.59732,-0.68469 -3.99508,-0.51697 -4.76457,0.33333 -0.6927,0.76544 -0.87175,6.15285 -0.24804,7.46723 0.23399,0.4932 0.42579,1.07706 0.42579,1.29759 0,0.22053 0.0892,0.44088 0.19844,0.48937 0.10911,0.0485 0.60013,0.89565 1.0914,1.88259 1.07572,2.16123 2.76387,3.75119 6.13246,5.77639 1.30361,0.78369 2.8752,1.74289 3.49282,2.13164 1.99549,1.2559 2.15519,1.13678 4.02921,-3.02152 0.70498,-1.56434 1.36745,-2.84427 1.47225,-2.84427 0.18711,0 0.50503,-0.80618 0.62632,-1.5875 0.034,-0.21828 0.34716,-1.23031 0.69556,-2.24895 0.84259,-2.46351 0.90593,-6.62795 0.13642,-8.97568 -0.58788,-1.79369 -1.75469,-3.44908 -3.04271,-4.31704 -0.6309,-0.42519 -1.45679,-0.60778 -2.32233,-0.57775 z m -6.77838,21.77645 c -0.30845,-0.0525 -0.63217,-0.0531 -0.9674,0 -1.42399,0.2277 -3.25654,1.10866 -3.65456,1.75702 -0.27799,0.45284 -0.42029,0.50107 -0.7276,0.24596 -0.21021,-0.17439 -0.3819,-0.54068 -0.3819,-0.81389 0,-0.27323 -0.0893,-0.48281 -0.19844,-0.46561 -0.10919,0.0172 -0.28765,0.003 -0.39687,-0.0331 -1.19039,-0.38635 -2.578,-0.56338 -3.1042,-0.39635 -0.6786,0.21535 -1.5911,1.61351 -1.5911,2.44171 0,0.39727 0.27834,0.7325 0.85884,1.03145 2.52841,1.30225 3.32256,2.61268 3.57137,5.8906 0.1219,1.606 0.0823,1.93117 -0.22325,1.82727 -0.20479,-0.0695 -0.33864,-0.35936 -0.29766,-0.64389 0.14182,-0.99523 -0.74652,-4.43852 -1.29603,-5.02346 -0.29901,-0.31829 -1.07061,-0.85749 -1.71411,-1.19838 -0.67569,-0.35798 -1.11635,-0.75932 -1.04336,-0.95033 0.0941,-0.24572 -0.36517,-0.33073 -1.78747,-0.33073 -2.2116,0 -3.45807,0.51848 -4.28709,1.78335 -0.4962,0.75726 -0.63453,0.80838 -2.22674,0.82529 -2.21908,0.0235 -4.07143,0.91561 -5.72833,2.75849 -1.43108,1.59173 -1.70223,2.18604 -1.70223,3.73414 0,1.54837 1.47979,4.52364 2.87841,5.78723 0.60057,0.54256 1.13392,0.9865 1.18493,0.9865 0.0512,0 1.80737,0.59344 3.90208,1.31879 h -0.003 c 2.09482,0.72536 3.88829,1.3199 3.98529,1.32292 0.46019,0.0106 1.01388,-0.35229 1.01388,-0.66455 0,-0.19106 0.70353,-1.05082 1.56321,-1.91048 0.85971,-0.85971 2.15543,-2.47044 2.87941,-3.57963 0.72411,-1.10916 1.4093,-1.93376 1.52239,-1.83195 0.11612,0.10184 0.11472,0.023 0,-0.17518 -0.11488,-0.19817 -0.0923,-0.43627 0.0501,-0.52916 0.14229,-0.0929 0.36872,-0.5047 0.50331,-0.9157 l 0.24445,-0.74724 1.66709,1.11311 c 0.91689,0.61227 1.77429,1.39498 1.90529,1.73942 0.15952,0.41955 0.44831,0.62632 0.8754,0.62632 0.93242,0 3.74618,-3.11261 4.76819,-5.2746 0.73811,-1.56144 0.8232,-1.9907 0.8232,-4.2504 0.003,-2.10574 -0.0949,-2.69539 -0.59582,-3.63286 -0.5556,-1.03976 -1.34432,-1.66516 -2.26962,-1.82261 z m 23.77477,0.38913 c -0.51599,0.0423 -1.04717,0.23071 -1.59113,0.56689 -0.9762,0.60333 -2.1328,2.17107 -2.39519,3.24528 -0.0981,0.40155 -0.28453,0.79539 -0.41394,0.8754 -0.12941,0.0799 -0.23514,0.49548 -0.23514,0.92344 0,0.42799 -0.11348,0.77825 -0.25217,0.77825 -0.4305,0 -1.58877,-0.59791 -1.48466,-0.76637 0.0543,-0.0878 -0.18753,-0.15967 -0.53744,-0.15967 -0.34989,0 -0.63614,0.0893 -0.63614,0.19844 0,0.10911 -0.38688,0.20275 -0.8599,0.20775 -1.10519,0.0119 -1.95215,0.48963 -2.59413,1.46346 -1.23233,1.86949 -0.0598,4.9118 3.02408,7.84656 1.03632,0.98626 2.03327,1.79316 2.21538,1.79316 0.18209,0 0.33123,0.0951 0.33123,0.21135 0,0.11629 0.42871,0.36611 0.95242,0.55555 0.67268,0.24191 0.86879,0.42772 0.67231,0.62423 -0.19651,0.19648 -0.42024,0.16867 -0.75345,-0.093 -0.42429,-0.33322 -0.439,-0.32695 -0.13901,0.0574 0.2836,0.36327 0.23111,0.49752 -0.33849,0.87074 -0.37039,0.24271 -0.78877,0.37008 -0.93017,0.28266 -0.14139,-0.0874 -0.25736,-0.0438 -0.25736,0.0971 0,0.14097 -0.62505,-0.0494 -1.38906,-0.42322 -0.76398,-0.37381 -1.99353,-0.73343 -2.73211,-0.79891 -2.8552,-0.25334 -5.13924,1.9332 -5.13924,4.91958 0,3.35809 2.02001,6.12807 7.80521,10.70374 1.45531,1.15097 2.8643,2.37906 3.13108,2.72905 0.2668,0.34999 0.70241,0.63664 0.96842,0.63664 0.82831,0 3.63943,-3.35762 4.84053,-5.78154 0.92191,-1.86047 1.124,-2.55106 1.202,-4.11398 0.12449,-2.48637 -0.7148,-6.03525 -1.66089,-7.02281 -0.98669,-1.02987 -0.86858,-1.28365 0.50024,-1.07593 0.73089,0.11091 1.46733,0.0561 1.94612,-0.1452 0.7013,-0.29485 0.84685,-0.59995 1.62316,-3.40289 1.5103,-5.45274 1.36142,-8.10937 -0.68677,-12.25867 -1.2246,-2.48071 -2.63785,-3.67147 -4.18579,-3.54449 z m -62.31713,12.04629 c -0.59327,0.0789 -1.12673,0.3375 -1.52963,0.76637 -2.0809,2.21495 -2.2919,5.77077 -0.7891,13.28806 0.52361,2.61937 1.15459,6.07219 1.40198,7.67291 0.24751,1.60073 0.56533,3.12989 0.70694,3.39826 0.30591,0.57994 0.26059,0.59142 4.19766,-1.08006 4.69353,-1.99255 6.63647,-3.58071 8.05948,-6.58873 1.40819,-2.97651 1.50484,-5.55471 0.30384,-8.09358 -0.64759,-1.36879 -0.82089,-1.53114 -2.1704,-2.03604 -0.80661,-0.30181 -1.86608,-0.5488 -2.35437,-0.5488 -0.89532,0 -1.39615,-0.54251 -1.03716,-1.12345 0.0957,-0.15486 0.0572,-0.20931 -0.0858,-0.12092 -0.14309,0.0884 -0.46781,-0.30935 -0.72139,-0.88418 -0.64042,-1.45153 -2.82419,-3.76645 -4.09329,-4.33874 -0.64251,-0.28975 -1.2955,-0.39008 -1.88878,-0.3111 z m 59.78962,5.98464 c 0.77171,0 2.39003,0.83896 2.39003,1.2392 0,0.43765 -0.22521,0.42765 -1.05833,-0.0486 -0.36378,-0.20796 -0.92935,-0.38256 -1.25677,-0.38756 -0.34859,-0.006 -0.59532,-0.17378 -0.59532,-0.40619 0,-0.21828 0.23419,-0.39687 0.52039,-0.39687 z m -41.0228,11.37708 c -1.17372,0 -1.73718,0.16756 -2.89338,0.8599 -2.6879,1.60964 -3.71189,5.19948 -2.50941,8.79739 0.59391,1.77702 2.95949,6.74579 3.49178,7.33393 0.50012,0.55264 0.49369,0.55161 1.15549,0.19741 0.28149,-0.15065 0.5121,-0.43474 0.5121,-0.63098 0,-0.19627 0.64913,-0.62045 1.44283,-0.94258 0.79369,-0.32215 2.27412,-1.09781 3.28972,-1.72392 1.0156,-0.62613 1.90185,-1.08368 1.96887,-1.01647 0.16021,0.16015 2.46552,-2.67515 3.02824,-3.72433 0.2881,-0.53713 0.43751,-1.47013 0.44751,-2.72852 0.009,-1.80197 -0.0393,-1.96106 -0.83251,-2.75486 -0.7802,-0.78082 -0.97012,-0.84154 -2.59313,-0.83045 -0.96308,0.007 -1.82779,0.0885 -1.92079,0.1819 -0.0934,0.0934 -0.83564,-0.5474 -1.64952,-1.4242 -1.46399,-1.57726 -1.49561,-1.59422 -2.9378,-1.59422 z m 23.80059,13.17852 c -0.22815,0.0614 -0.48927,0.26676 -0.96118,0.66353 -0.55089,0.4632 -1.37578,1.23647 -1.83348,1.71825 -0.76517,0.80555 -0.85474,0.83746 -1.11104,0.39688 -0.15319,-0.26353 -0.28681,-0.34023 -0.28681,-0.17002 -0.006,0.21923 -0.31559,0.18888 -1.06349,-0.10491 -1.4052,-0.55197 -2.49034,-0.22691 -3.53052,1.05833 -1.1906,1.47103 -1.29611,3.52907 -0.28681,5.59036 0.94499,1.92998 3.59275,4.4423 6.13916,5.82549 1.04989,0.57023 1.90891,1.13578 1.90891,1.25677 0,0.12097 0.29586,0.22013 0.65786,0.22013 0.92768,0 1.54242,-1.0061 4.12171,-6.74687 0.32689,-0.72761 0.57107,-1.42791 0.54207,-1.55596 -0.029,-0.12809 0.0896,-1.08207 0.26409,-2.1203 0.3815,-2.27033 0.17787,-3.5774 -0.72504,-4.65036 -0.48789,-0.57989 -0.90591,-0.80357 -1.51101,-0.80357 -0.46001,0 -1.1621,-0.17116 -1.56012,-0.37878 -0.34099,-0.17788 -0.53615,-0.2604 -0.7643,-0.19897 z m -24.46308,7.98815 c -1.41751,0 -2.24261,0.66013 -3.04583,2.43758 -0.53359,1.18112 -0.6332,1.81059 -0.6232,4.04471 0.009,2.78384 -0.0726,2.49499 1.87222,6.64093 1.03502,2.20628 2.12711,3.54553 2.89181,3.54553 0.74247,0.0404 0,0 1.18031,0.0827 -1.0268,0.95626 -1.1965,1.59729 -1.1865,4.578 v 1.8831 l -0.74724,-0.26043 c -0.41089,-0.14327 -1.45952,-0.19106 -2.3306,-0.10594 -1.34821,0.13179 -1.60481,0.0875 -1.72652,-0.29922 -1.20941,-3.84008 -4.27241,-5.61655 -6.8926,-3.99717 l -0.90332,0.55862 0.20103,-0.75705 c 0.1106,-0.41627 0.17894,-1.10546 0.15193,-1.5317 -0.0274,-0.42625 0.0958,-0.96203 0.27389,-1.19063 0.2779,-0.35711 0.26414,-0.36951 -0.0971,-0.0878 -0.35671,0.27808 -0.51753,0.17759 -1.05833,-0.66146 -1.13941,-1.76731 -2.96493,-2.24086 -5.73093,-1.48672 -0.55928,0.15235 -0.59532,0.0822 -0.59532,-1.14361 0,-1.81554 -0.70299,-3.99745 -1.5663,-4.86068 -2.95648,-2.95659 -9.0025,-0.21402 -9.45729,4.29016 -0.12531,1.24124 0.73088,11.24136 1.13688,13.28084 0.11348,0.56997 0.0154,0.84418 -0.40619,1.13948 -0.64838,0.45421 -0.71048,0.95925 -0.17258,1.4056 0.53768,0.44628 6.44623,-0.0799 8.35504,-0.74414 1.81689,-0.63219 5.65068,-2.46512 5.77638,-2.76159 0.20611,-0.48635 1.32532,-1.63277 1.46143,-1.49706 0.0798,0.0795 -0.0442,0.73438 -0.27493,1.45521 -0.26951,0.8414 -0.41548,2.25763 -0.41548,3.95634 0.005,3.13764 0.63212,5.4402 2.05981,7.56182 0.51242,0.76136 0.97433,1.4552 1.02732,1.54151 0.0527,0.0864 -0.46299,0.15761 -1.14667,0.15761 -1.43053,0 -2.50987,0.59442 -3.16159,1.73993 -0.40278,0.70813 -0.56399,0.77221 -2.0252,0.8015 -2.48849,0.0499 -2.88142,0.14515 -4.15944,1.00769 -2.23848,1.51072 -2.72412,2.98763 -1.68103,5.11287 0.85972,1.7517 2.20382,3.63225 2.74402,3.83958 0.22731,0.0872 1.19563,0.75305 2.15181,1.47949 1.91082,1.45164 5.86401,3.43342 6.57532,3.29642 0.24799,-0.0478 0.61346,-0.4427 0.81235,-0.87746 0.5707,-1.24775 1.60985,-2.7745 1.88825,-2.7745 0.1397,0 0.44651,0.3716 0.68162,0.82632 0.9843,1.90336 5.61964,5.82951 9.50793,8.05272 0.72761,0.41603 1.47855,0.96975 1.66865,1.23042 h 0.004 c 0.9079,1.2446 1.95792,0.39571 5.55522,-4.48966 3.1351,-4.25752 4.46725,-7.78021 4.22455,-11.17243 -0.186,-2.59945 -1.34363,-4.36996 -3.55843,-5.44256 -1.78142,-0.86275 -3.61019,-0.67868 -6.23218,0.62632 -1.2504,0.62238 -2.41724,1.30477 -2.59313,1.5167 -0.45609,0.54959 -0.87215,0.47863 -1.51204,-0.25736 -0.94711,-1.08924 -3.64025,-1.22804 -5.45394,-0.28162 -0.4169,0.21749 -0.80227,0.39531 -0.85627,0.39531 -0.18542,0 -0.89969,-1.91627 -0.89969,-2.41379 0,-0.34454 0.18979,-0.49662 0.61907,-0.49662 1.04191,0 4.59746,-0.99931 6.24356,-1.75493 2.53259,-1.16248 4.65611,-4.53284 5.0002,-7.93594 l 0.17571,-1.73995 1.21904,1.07434 c 1.8283,1.61134 4.99867,5.45293 4.99867,6.057 0,0.71993 0.72491,1.29966 1.22111,0.97668 0.2106,-0.13708 1.40694,-3.28517 2.65874,-6.99595 1.6877,-5.00288 2.28375,-7.12359 2.30375,-8.20415 0.0555,-2.94741 -2.56783,-5.71648 -5.19141,-5.48029 -0.80262,0.0723 -1.26233,0.008 -1.27331,-0.1788 -0.009,-0.16055 -0.12472,-0.0241 -0.25633,0.30334 -0.2577,0.64122 -0.79065,0.75224 -1.58025,0.3297 -1.28189,-0.49746 -1.61439,0.16351 -2.08206,-0.39428 1.12797,-0.41375 3.3767,-1.50104 4.00701,-2.08516 0.92829,-0.86032 2.78509,-3.69139 2.99257,-4.5625 0.11584,-0.66469 0,2.6e-4 -0.25064,-1.70947 -0.2281,-1.14046 -1.92474,-2.77636 -3.21995,-3.1042 -0.57679,-0.14613 -1.6741,-0.2208 -2.43808,-0.1664 -0.77902,0.0555 -1.38907,-0.0122 -1.38907,-0.15451 0,-1.07091 -3.60791,-3.16828 -5.45031,-3.16828 z m 30.70614,9.66142 c -0.19781,0.0175 -0.39466,0.0539 -0.59069,0.11009 -2.92729,0.83949 -4.66449,3.61233 -3.75737,5.99808 0.2073,0.54485 0.19135,0.77589 -0.0656,0.93895 -0.2643,0.16777 -0.25199,0.21831 0.0558,0.22532 0.21831,0.005 -0.43659,0.49207 -1.45521,1.08312 -2.08389,1.20918 -3.42413,2.38361 -4.02093,3.52383 -0.51331,0.98073 -0.32644,2.87171 0.37775,3.82302 1.17544,1.58771 4.97647,3.36968 7.98661,3.74446 v 0 c 2.82186,0.3511 7.59983,-0.21217 8.3752,-0.98753 0.60981,-0.60984 0.59052,-5.16808 -0.0393,-9.33535 -0.81309,-5.37977 -3.89988,-9.38543 -6.86676,-9.12399 z m 20.91602,9.1767 c -1.64049,-0.0612 -2.3333,0.029 -3.04892,0.39687 -2.10789,1.08382 -2.37056,3.75526 -0.70538,7.1722 0.83211,1.70759 1.00592,2.68898 0.47852,2.7006 -0.0935,0.003 -0.67437,0.45878 -1.29087,1.01491 -2.00949,1.8128 -2.49801,4.58536 -1.17459,6.66832 1.43888,2.26473 3.87003,3.89406 6.25853,4.19407 1.93138,0.24262 4.10416,-0.0783 5.80686,-0.85783 1.4196,-0.64992 3.37945,-2.40416 6.40324,-5.73143 0.5951,-0.65484 1.27791,-1.34456 1.5167,-1.5322 0.23891,-0.18765 0.43407,-0.5674 0.43407,-0.84389 0,-0.71123 -4.38682,-6.5055 -6.93341,-9.15808 -2.8195,-2.93693 -4.69145,-3.90953 -7.74475,-4.02354 z m -21.39561,16.1091 c -1.3566,0.0164 -2.4466,0.74393 -2.84736,2.08153 -0.17651,0.58904 -0.40061,1.07125 -0.4966,1.07125 -0.0965,0 -0.20323,0.62232 -0.23823,1.38287 -0.0347,0.76057 -0.11642,1.43653 -0.18243,1.50222 -0.0657,0.0657 -0.58124,-0.13988 -1.14514,-0.45683 -3.854,-2.16606 -7.21109,2.17075 -5.23068,6.75722 0.7131,1.6514 1.14014,2.13707 3.21942,3.66541 2.18551,1.60644 5.38718,2.89994 9.92187,4.00751 2.11003,0.51535 4.31282,1.08492 4.8948,1.26608 2.51251,0.78193 2.93137,0.27864 2.64067,-3.17553 -0.70739,-8.4079 -3.67199,-14.91686 -7.89771,-17.34055 -0.91456,-0.52454 -1.82462,-0.77094 -2.63861,-0.76118 z m -40.15258,2.35903 c 0.2091,0 1.34927,1.68949 1.34927,1.99937 0,0.42127 -0.75708,-0.0135 -1.13377,-0.65114 -0.50091,-0.84799 -0.58089,-1.34823 -0.2155,-1.34823 z m 1.78181,4.49791 c 0.50411,0 0.46511,0.12507 -0.4191,1.34565 -0.4291,0.59235 -0.91742,1.49415 -1.08572,2.00403 -0.36319,1.10077 -0.12544,3.51023 0.41754,4.22712 0.20521,0.27093 0.3819,0.64182 0.3819,0.82372 0.0138,0.54295 -0.47937,0.37574 -0.93276,-0.31625 -0.6181,-0.94338 -0.87326,-3.31333 -0.51057,-4.74184 0.3496,-1.37689 1.61322,-3.34243 2.14871,-3.34243 z m -27.95177,19.88561 c -0.64326,-0.005 -0.99084,0.13549 -1.56218,0.52813 -1.39322,0.95745 -1.98996,2.36395 -2.10117,4.9506 -0.23759,5.53169 2.34686,12.2918 6.35154,16.61451 1.14242,1.23301 2.07687,2.42056 2.07687,2.63858 0,0.21802 0.1233,0.62651 0.2739,0.90797 0.1506,0.28149 0.43553,0.5121 0.63304,0.5121 0.55711,0 6.29933,-4.60002 7.82175,-6.26575 0.74898,-0.81953 1.70955,-2.09625 2.13473,-2.83756 0.42511,-0.7413 0.78174,-1.22867 0.79272,-1.08315 0.0727,0.99928 1.57303,-4.70479 1.57303,-5.98051 0,-1.21766 -0.90652,-2.71248 -2.14043,-3.52898 -1.1847,-0.78407 -1.16009,-0.78267 -5.85028,-0.30644 -0.3932,0.0399 -0.89919,0.22537 -1.12448,0.41238 -0.3407,0.28315 -0.40981,0.26815 -0.40981,-0.0894 0,-0.23608 -0.0951,-0.42891 -0.21135,-0.42891 -0.11629,0 -0.35954,-0.4095 -0.54054,-0.91001 -0.49668,-1.37387 -2.53339,-3.47361 -4.12428,-4.25196 -0.7765,-0.37989 -2.05089,-0.75459 -2.83188,-0.83248 -0.29943,-0.0299 -0.54677,-0.0475 -0.76118,-0.0491 z m 72.61312,1.54564 c -0.7937,0 -2.11794,0.79428 -2.55384,1.5322 -0.48019,0.81299 -0.67519,3.8122 -0.35139,5.40277 0.21899,1.07561 0.35988,1.02627 -1.59113,0.5607 -0.2999,-0.0716 -1.22272,0.0468 -2.05052,0.26303 l -1.50535,0.39274 v -2.46755 c 0,-2.38448 -0.0293,-2.50682 -0.87331,-3.61321 l -0.87386,-1.14464 -1.83812,0.0135 c -1.9808,0.0148 -3.24323,0.50088 -4.88031,1.87843 l -0.86352,0.72658 -0.46199,-0.57053 c -0.254,-0.31369 -0.51213,-0.51995 -0.57412,-0.45836 -0.0616,0.0616 -0.69165,-0.18169 -1.40044,-0.54052 -2.37091,-1.20031 -4.34824,-0.6427 -5.39605,1.52186 -0.851,1.75787 -0.75305,3.40865 0.33433,5.63843 0.8092,1.65928 1.74546,2.93597 5.00745,6.82643 0.55682,0.66406 1.22865,1.77933 1.49294,2.47841 0.37981,1.00428 0.62145,1.2882 1.15136,1.35289 0.56118,0.0685 1.05148,-0.35668 3.00498,-2.60553 2.31399,-2.66338 2.39361,-2.77748 2.30561,-4.03382 0.17215,-0.97625 0.18474,-1.42455 0.4698,-1.97597 0.581,-1.12347 2.30649,-3.24029 2.7674,-3.24029 0.54639,0 0.31663,-0.004 -0.82256,1.13565 -1.39801,1.39803 -1.99376,2.52563 -1.94174,3.9067 0.058,1.53305 0.99924,3.13606 2.47852,4.4382 1.27302,1.12057 5.23071,3.18956 7.21612,3.77241 0.94919,0.27871 1.11913,0.42595 1.00303,0.86971 -0.0768,0.29374 -0.0111,0.689 0.14624,0.8785 0.15721,0.18946 0.45627,0.34467 0.66455,0.34467 0.56671,0 2.20244,-1.39362 2.20244,-1.87637 0,-0.23144 0.59124,-1.40478 1.31414,-2.60761 3.1606,-5.25872 3.742,-9.76526 1.7875,-13.86115 -1.33091,-2.78918 -3.66726,-4.93821 -5.36816,-4.93821 z m -38.14599,13.22867 c -1.0828,0 -2.60421,0.75448 -3.56721,1.76887 -0.76671,0.80756 -3.11611,4.97837 -3.11611,5.53196 0,0.2526 -0.22963,0.26609 -0.98184,0.0584 -2.62329,-0.72432 -6.42017,0.53692 -7.69927,2.55746 -1.54361,2.43862 -1.69561,4.94673 -0.4191,6.91534 0.74829,1.15398 2.74489,2.72841 4.73459,3.73364 0.72771,0.36756 1.36228,0.77219 1.41128,0.89916 0.0485,0.12697 0.25684,0.23101 0.46302,0.23101 0.20612,0 0.37881,0.14883 0.37881,0.33073 0.003,0.26217 0.048,0.26146 0.216,-0.003 0.15799,-0.24886 0.40945,-0.26532 0.98806,-0.0651 0.42688,0.14769 2.0859,0.56245 3.68658,0.92141 2.18741,0.49051 3.00288,0.78907 3.2825,1.20301 0.59679,0.88349 1.61843,0.59071 2.32854,-0.66712 1.25389,-2.22115 3.03694,-6.64631 3.55894,-8.83359 0.6573,-2.75418 0.58158,-7.26506 -0.15812,-9.42266 -0.9921,-2.89375 -3.23455,-5.15938 -5.10667,-5.15938 z"
         sodipodi:nodetypes="sssssccccssscccssscssssscssssscssscccssccccssssccssccsscsssscscssssssssssscsccsssssssccscssssssssssssssssssccsssssssssssssssssscccssssccsscscssscccsscssssssscsssssccsscccssssssssssscsscsssssssssscssccssssssssssssssssssssssssssssssccsssssssscssscssssscsccssssccscsscsscscsccsssssssscsccsscsssssscscccssssssssssccssssssssscsssssssccccccsscssssssssssssssssssssssccsssscssssscsscssssssscccssscssccsssscsccssssssssscsssscssssssscssssscsssssssssssssssssssssssssscssssssssssscscsccsssssscssssssssssssssscsccccsscccsccscsscsssssssccscssssssssssssccsssssssssssccsssscscsccsccsssssccssssssssssccscscssssssssssssccssssccsssssssssscssssscsssssscssscsssssssssssccscccscscsssssscccsscssssssssssssssssscscsssssssss" />
      <path
         id="path9909"
         style="fill:#3d5f1f;fill-opacity:1;stroke-width:0.999999"
         d="m -2329.4418,-2463.0566 c 0.4471,0 0.8144,-2.9091 0.8144,-6.4649 0,-3.5557 0.6965,-8.5141 1.5469,-11.0195 2.5982,-9.1385 3.2684,-12.7709 -0.366,-10.1829 -3.4353,4.0179 -5.4738,9.6676 -5.7444,15.8119 -0.1329,2.8894 -0.1955,5.1681 0.9313,7.5642 1.0815,2.2997 1.2233,3.2572 2.8178,4.2912 z m -102.6949,72.4062 c -0.2087,-0.01 -0.3998,0.038 -0.5703,0.1445 -0.6898,0.4263 -0.3489,1.4304 0.957,2.8204 5.2664,5.6061 6.7223,18.3153 3.248,28.371 -0.9942,2.8823 -1.5804,5.4696 -1.3007,5.75 0.9407,0.9408 1.2799,0.5282 3.2675,-3.9648 2.8706,-6.4893 3.5183,-15.9185 1.5567,-22.666 -1.4763,-5.0777 -4.8935,-10.0255 -6.9434,-10.4297 -0.073,-0.014 -0.1453,-0.023 -0.2148,-0.025 z m 157.3808,11.832 c -1.0322,0 -0.8359,1.184 0.834,3.0176 3.1427,3.4504 4.2852,6.2581 4.2852,10.4297 -0.011,4.4115 -3.7284,12.9463 -6.8477,15.7207 -1.1781,1.0477 -2.1426,2.2852 -2.1426,2.75 0,1.7441 2.2935,0.7427 5.045,-2.2031 3.1313,-3.3518 6.955,-12.5194 6.955,-16.6738 0,-3.5883 -3.7368,-11.0674 -6.1835,-12.377 -0.72,-0.3853 -1.2978,-0.593 -1.7227,-0.6484 -0.08,-0.01 -0.1538,-0.016 -0.2227,-0.016 z m -137.2421,117.8789 c -0.4717,0.014 -0.6191,0.4116 -0.6036,1.1348 0.019,0.975 4.495,4.4402 10.7989,8.3633 0.1787,0.1111 -0.8008,1.932 -2.1778,4.0449 -3.6809,5.6482 -6.0018,14.6949 -5.2968,20.6485 0.3239,2.7355 2.2488,8.5113 4.2773,12.8339 2.0285,4.3226 4.2929,7.8594 5.0312,7.8594 1.8442,0 1.8109,-0.1186 -2.2929,-8.2676 -6.511,-12.9284 -5.5152,-25.2868 2.7363,-33.9609 2.1441,-2.2537 3.8984,-4.4751 3.8984,-4.9356 0,-0.4602 -1.2712,-0.8359 -2.8242,-0.8359 -1.6229,0 -4.9167,-1.4884 -7.7461,-3.5 -2.6623,-1.8929 -4.2744,-2.9391 -5.2148,-3.2695 -0.2351,-0.083 -0.4287,-0.12 -0.5859,-0.1153 z m 183.5527,1.9415 c -0.068,0 -0.1382,0.016 -0.2109,0.045 -0.5827,0.2294 -1.3003,1.3198 -1.8458,3.1484 -1.4872,4.9854 -8.2245,20.0522 -9.7617,21.8301 -0.7529,0.8696 -1.0568,1.8922 -0.6777,2.2715 1.1199,1.1196 2.7272,0.1549 4.0605,-2.4336 3.5452,-6.8827 9.2539,-20.9479 9.2539,-22.8008 0,-1.2103 -0.2516,-1.867 -0.623,-2.0234 -0.062,-0.026 -0.1274,-0.038 -0.1953,-0.037 z m -261.8809,179.5918 c -0.3994,0.013 -0.6799,0.1523 -0.8457,0.4199 -0.3628,0.5846 -0.4995,1.1797 -0.3066,1.3203 0.1924,0.1406 2.376,1.4122 4.8515,2.8281 2.4761,1.4159 5.28,3.4359 6.2325,4.4883 1.8614,2.0569 5.2726,16.5314 4.4199,18.7539 -0.2835,0.7397 -0.2448,1.6126 0.084,1.9414 1.9182,1.9172 2.5029,-0.026 2,-6.6504 -0.9279,-12.2251 -3.9658,-17.2245 -13.4317,-22.0996 -1.0744,-0.5534 -1.9258,-0.8762 -2.5644,-0.9727 -0.1597,-0.024 -0.3063,-0.034 -0.4395,-0.029 z m 112.1895,54.4316 c -0.059,0 -0.1059,0.01 -0.1426,0.025 -0.2937,0.1304 0.1172,0.7508 1.1523,1.8945 1.9553,2.1606 3.0795,2.4884 3.9102,1.1445 0.2903,-0.4694 -0.6046,-1.3695 -1.9883,-2 -1.5591,-0.7103 -2.5193,-1.0723 -2.9316,-1.0644 z m 9.4765,1.9199 c -1.0817,0 -1.9668,0.675 -1.9668,1.5 0,0.8784 0.9325,1.5125 2.25,1.5352 1.2375,0.019 3.3751,0.6788 4.75,1.4648 3.1488,1.7999 4,1.8376 4,0.1836 0,-1.5127 -6.1165,-4.6836 -9.0332,-4.6836 z m -133.2204,178.205 c -3.6034,0 -17.8481,6.018 -18.276,8.1412 -0.4323,2.1456 5.8229,0.01 9.9828,-1.674 2.0311,-0.8215 5.449,-2.2964 7.3769,-2.6097 4.3771,-0.7115 4.9479,-3.8575 0.9163,-3.8575 z m -61.846,85.795 c -1.381,0 -1.0787,1.8907 0.8145,5.0957 1.4237,2.4105 4.2851,4.0532 4.2851,2.461 0,-1.1712 -4.3093,-7.5567 -5.0996,-7.5567 z m 6.7344,17 c -2.0239,0 -6.7998,7.4288 -8.1211,12.6328 -1.3708,5.3992 -0.4064,14.3564 1.9297,17.9219 1.7136,2.6154 3.5783,3.2474 3.5254,1.1953 -0.019,-0.6875 -0.6678,-2.0893 -1.4434,-3.1133 -2.0522,-2.7095 -2.9508,-11.8161 -1.5781,-15.9765 0.6361,-1.9271 2.4817,-5.3354 4.1035,-7.5743 3.3419,-4.6131 3.4893,-5.0859 1.584,-5.0859 z m 137.136,110.0879 c -0.4984,0.1839 -1.943,0.8095 -3.4052,2.1287 -3.1576,2.8487 -7.3274,7.8074 -8.7816,10.6193 -1.5913,3.077 -2.3422,9.8716 -1.0638,11.0844 1.4084,1.3363 2.4865,0.7851 2.3353,-3.1761 -0.1946,-5.155 2.1704,-9.3134 7.1973,-14.7989 1.52,-1.6586 2.9791,-2.8091 4.3814,-3.6912 1.6956,-1.0665 1.7287,-3.049 -0.6634,-2.1662 z"
         transform="scale(0.26458333)"
         sodipodi:nodetypes="cscccscssccssssssssssssssscssssssssssssssssssssssssssscsssssssssssscssssssssssssssscssssssscsssssscsss" />
    </g>
  </g>
</svg>
