<?xml version="1.0" encoding="UTF-8" standalone="no"?>
<!-- Created with Inkscape (http://www.inkscape.org/) -->

<svg
   width="121.96103mm"
   height="121.96147mm"
   viewBox="0 0 121.96103 121.96147"
   version="1.1"
   id="svg5"
   sodipodi:docname="Logo redondo daniele.svg"
   inkscape:version="1.1.1 (3bf5ae0d25, 2021-09-20)"
   inkscape:export-filename="/home/tony/Pictures/Logo daniele/Logo redondo daniele.png"
   inkscape:export-xdpi="155.58029"
   inkscape:export-ydpi="155.58029"
   xmlns:inkscape="http://www.inkscape.org/namespaces/inkscape"
   xmlns:sodipodi="http://sodipodi.sourceforge.net/DTD/sodipodi-0.dtd"
   xmlns:xlink="http://www.w3.org/1999/xlink"
   xmlns="http://www.w3.org/2000/svg"
   xmlns:svg="http://www.w3.org/2000/svg">
  <sodipodi:namedview
     id="namedview7"
     pagecolor="#505050"
     bordercolor="#eeeeee"
     borderopacity="1"
     inkscape:pageshadow="0"
     inkscape:pageopacity="0"
     inkscape:pagecheckerboard="0"
     inkscape:document-units="mm"
     showgrid="false"
     inkscape:zoom="0.90509672"
     inkscape:cx="80.654364"
     inkscape:cy="276.21357"
     inkscape:window-width="1920"
     inkscape:window-height="1043"
     inkscape:window-x="1920"
     inkscape:window-y="0"
     inkscape:window-maximized="1"
     inkscape:current-layer="layer1"
     showguides="false"
     inkscape:guide-bbox="true">
    <sodipodi:guide
       position="-268.34858,61.049394"
       orientation="1,0"
       id="guide26683" />
    <sodipodi:guide
       position="-392.5232,7.4766053"
       orientation="1,0"
       id="guide26765" />
    <sodipodi:guide
       position="-359.46076,-2.2801246"
       orientation="0,-1"
       id="guide26880" />
  </sodipodi:namedview>
  <defs
     id="defs2">
    <rect
       x="-959.32129"
       y="1370.9753"
       width="382.474"
       height="116.25998"
       id="rect171041" />
    <rect
       x="-1179.2601"
       y="1253.0492"
       width="219.93884"
       height="117.92622"
       id="rect163335" />
    <rect
       x="-1281.4038"
       y="1331.7754"
       width="418.17657"
       height="57.667877"
       id="rect95546" />
    <linearGradient
       inkscape:collect="always"
       id="linearGradient1780">
      <stop
         style="stop-color:#a42495;stop-opacity:1;"
         offset="0"
         id="stop1776" />
      <stop
         style="stop-color:#a42495;stop-opacity:0;"
         offset="1"
         id="stop1778" />
    </linearGradient>
    <rect
       x="-959.32129"
       y="1370.9753"
       width="382.474"
       height="116.25998"
       id="rect171041-5" />
    <rect
       x="-1179.2601"
       y="1253.0492"
       width="219.93884"
       height="117.92622"
       id="rect163335-3" />
    <rect
       x="-1281.4038"
       y="1331.7754"
       width="418.17657"
       height="57.667877"
       id="rect95546-5" />
    <linearGradient
       inkscape:collect="always"
       xlink:href="#linearGradient1780"
       id="linearGradient1782"
       x1="-30.594719"
       y1="375.94919"
       x2="103.80918"
       y2="375.94919"
       gradientUnits="userSpaceOnUse" />
  </defs>
  <g
     inkscape:label="Layer 1"
     inkscape:groupmode="layer"
     id="layer1"
     transform="translate(132.02115,153.70806)">
    <text
       xml:space="preserve"
       transform="scale(0.26458333)"
       id="text163333"
       style="font-style:normal;font-weight:normal;font-size:40px;line-height:1.25;font-family:sans-serif;white-space:pre;shape-inside:url(#rect163335);fill:#000000;fill-opacity:1;stroke:none" />
    <text
       xml:space="preserve"
       transform="scale(0.26458333)"
       id="text171039"
       style="font-style:normal;font-weight:normal;font-size:40px;line-height:1.25;font-family:sans-serif;white-space:pre;shape-inside:url(#rect171041);fill:#000000;fill-opacity:1;stroke:none" />
    <text
       xml:space="preserve"
       transform="matrix(0.26458333,0,0,0.26458333,-169.61055,-182.71991)"
       id="text163333-2"
       style="font-style:normal;font-weight:normal;font-size:40px;line-height:1.25;font-family:sans-serif;white-space:pre;shape-inside:url(#rect163335-3);fill:#000000;fill-opacity:1;stroke:none" />
    <text
       xml:space="preserve"
       transform="matrix(0.26458333,0,0,0.26458333,-169.61055,-182.71991)"
       id="text171039-9"
       style="font-style:normal;font-weight:normal;font-size:40px;line-height:1.25;font-family:sans-serif;white-space:pre;shape-inside:url(#rect171041-5);fill:#000000;fill-opacity:1;stroke:none" />
    <g
       id="g1117">
      <ellipse
         style="fill:#ffffff;fill-opacity:1;stroke:none;stroke-width:0.2859;stroke-miterlimit:4;stroke-dasharray:none;stroke-opacity:1"
         id="path299560-2"
         cx="-71.040634"
         cy="-92.727325"
         rx="60.980515"
         ry="60.980736" />
      <ellipse
         style="fill:#e41796;fill-opacity:1;stroke:none;stroke-width:0;stroke-miterlimit:4;stroke-dasharray:none"
         id="circle87220-1"
         cx="-71.017487"
         cy="-120.33752"
         rx="6.3923197"
         ry="6.4159451" />
      <path
         style="mix-blend-mode:normal;fill:#b716a2;fill-opacity:1;stroke:none;stroke-width:0;stroke-linecap:butt;stroke-linejoin:miter;stroke-miterlimit:4;stroke-dasharray:none;stroke-opacity:1"
         d="m -84.078024,-139.92996 c -2.60822,0.89686 -5.6479,9.5798 -5.60253,15.35724 0.0686,8.73816 4.45239,16.5492 11.69198,22.84198 19.48532,16.35812 1.83924,34.13771 -10.30682,43.60814 7.96539,-2.38151 23.39838,-14.49352 22.89574,-29.41571 -0.37566,-11.1524 -8.57797,-16.10866 -13.24241,-20.99641 -8.68144,-8.86181 -10.59038,-20.15893 -5.43596,-31.39524 z"
         id="path87222-8"
         sodipodi:nodetypes="csccscc" />
      <path
         style="fill:#e41796;fill-opacity:1;stroke:none;stroke-width:0;stroke-linecap:butt;stroke-linejoin:miter;stroke-miterlimit:4;stroke-dasharray:none;stroke-opacity:1"
         d="m -63.81642,-141.62616 c 7.14699,14.59224 6.37242,26.14787 -3.53491,39.64681 12.78766,-6.43551 18.48304,-27.23917 3.53491,-39.64681 z"
         id="path87224-7"
         sodipodi:nodetypes="ccc" />
      <path
         style="fill:#e41796;fill-opacity:1;stroke:none;stroke-width:0;stroke-linecap:butt;stroke-linejoin:miter;stroke-miterlimit:4;stroke-dasharray:none;stroke-opacity:1"
         d="m -76.17947,-96.47773 c -2.86086,8.17871 -2.44799,13.1374 0.52471,21.11655 -5.95003,-4.21839 -7.74474,-15.39274 -0.52471,-21.11655 z"
         id="path87226-9"
         sodipodi:nodetypes="ccc" />
      <path
         style="fill:#e41796;fill-opacity:1;stroke:none;stroke-width:0;stroke-linecap:butt;stroke-linejoin:miter;stroke-miterlimit:4;stroke-dasharray:none;stroke-opacity:1"
         d="m -69.96915,-68.05687 c 0.28293,7.86513 5.9138,8.75297 12.82171,12.25678 -8.47911,2.92144 -18.55099,-5.00548 -12.82171,-12.25678 z"
         id="path87228-2"
         sodipodi:nodetypes="ccc" />
      <path
         id="path87230-0"
         style="fill:#2fbede;fill-opacity:1;stroke:none;stroke-width:0;stroke-linecap:butt;stroke-linejoin:miter;stroke-miterlimit:4;stroke-dasharray:none;stroke-opacity:1"
         d="m -40.69571,-122.4311 c -3.95963,0.70107 -8.81931,3.9841 -12.60762,10.00708 4.51079,-3.09578 9.21888,-5.63981 10.19107,-5.97052 3.43279,14.2251 -3.79045,26.75161 -17.66794,33.50202 10.39947,-0.75309 19.69003,-8.67251 22.10734,-19.6961 3.78762,-1.73905 7.73584,-3.01982 10.79441,-2.94912 -0.1153,4.24992 -0.28584,17.00925 -9.62455,22.11997 -1.5252,-0.0786 -2.95661,-0.20617 -4.23775,-0.3855 -5.44253,-0.7618 -11.60219,3.41105 -14.63527,7.53342 2.69617,-1.38242 6.58926,-4.82133 10.94965,-4.67425 4.75317,0.16033 11.3808,0.64919 16.41006,1.25771 5.27348,0.63806 9.46868,-1.3653 10.97525,-1.77172 -10.27248,24.4397 -37.72835,18.81999 -47.81548,9.54929 7.14854,13.20664 47.18114,22.36034 54.70823,-17.88745 -3.20215,2.45564 -8.99491,5.51132 -15.13618,6.10544 -2.3348,0.22587 -4.72778,0.34447 -7.03038,0.36141 8.69777,-4.19951 10.32377,-17.59126 9.72538,-25.63289 -3.23268,-0.99156 -9.88721,-0.60492 -14.69769,4.15703 0.62645,-4.80699 -0.0317,-10.11564 -2.40853,-15.62582 z" />
      <path
         id="path87232-2"
         style="fill:#2fbede;fill-opacity:1;stroke:none;stroke-width:0;stroke-linecap:butt;stroke-linejoin:miter;stroke-miterlimit:4;stroke-dasharray:none;stroke-opacity:1"
         d="m -99.7606,-122.16976 c 3.90218,0.97288 8.52525,4.58378 11.89165,10.85413 -4.28785,-3.39999 -8.81037,-6.26316 -9.75758,-6.66023 -4.39992,13.95428 1.94739,26.94998 15.32919,34.64288 -10.32319,-1.46957 -19.04878,-10.01189 -20.70459,-21.17631 -3.65942,-1.99653 -7.51047,-3.54695 -10.56663,-3.68766 -0.17634,4.24781 -0.88098,16.98866 8.0852,22.73228 1.52698,0.027 2.96374,-0.001 4.25413,-0.0919 5.48186,-0.3841 11.34084,4.20429 14.0841,8.52637 -2.59501,-1.56535 -6.2431,-5.265 -10.60323,-5.41942 -4.7529,-0.16835 -11.39834,-0.13842 -16.45739,0.12131 -5.30473,0.27233 -9.35263,-2.01602 -10.82777,-2.52554 8.57256,25.09126 36.34863,21.38116 47.04744,12.82913 -8.03703,12.68161 -48.60231,19.04868 -53.35219,-21.62358 3.0262,2.67097 8.59573,6.1195 14.68172,7.13637 2.31378,0.38661 4.69295,0.67021 6.98893,0.84612 -8.38924,-4.79028 -9.09325,-18.26259 -7.94495,-26.24384 3.293,-0.76593 9.90524,0.0794 14.37784,5.16231 -0.29541,-4.83886 0.72519,-10.08945 3.47413,-15.42243 z" />
    </g>
  </g>
</svg>
